<svg xmlns="http://www.w3.org/2000/svg" viewBox="0 0 4680 3120"><defs><style>.cls-1{isolation:isolate;}.cls-11,.cls-2{fill:#fff;}.cls-2{opacity:0;}.cls-3{fill:#fff1d7;}.cls-4{fill:#ef624a;}.cls-5{fill:#ce3932;}.cls-6{fill:#699ff0;}.cls-7{fill:#e47c15;}.cls-8{fill:#fec009;}.cls-9{fill:#b65600;}.cls-10{fill:#afcdfb;}.cls-12,.cls-13{mix-blend-mode:soft-light;}.cls-13{opacity:0.5;}.cls-14{fill:#231e1d;}.cls-15{fill:#f7a893;}.cls-16{fill:#e57075;}.cls-17{fill:#231f20;}.cls-18{fill:#4e0701;}.cls-19{fill:#ccc;}.cls-20{fill:#5f9aa8;}.cls-21{fill:#ef6289;}.cls-22{fill:#df4766;}.cls-23{fill:#e47e0c;}.cls-24{fill:#321914;}.cls-25{fill:#2c2c2c;}.cls-26{fill:#666;}.cls-27{fill:#525252;}.cls-28{fill:#1f1f1f;}.cls-29{fill:#4a68ba;}.cls-30{fill:#37405a;}.cls-31{fill:#2f2f86;}.cls-32{fill:#b1bb2a;}.cls-33{fill:#5b8602;}.cls-34{fill:#72a220;}.cls-35{fill:#3754a9;}.cls-36{fill:#37407a;}.cls-37{fill:#406ef0;}.cls-38{fill:#89b2fb;}.cls-39{fill:#243c78;}.cls-40{fill:#3a6d9b;}.cls-41{fill:#13375b;}.cls-42{fill:#93872d;}.cls-43{fill:#706d29;}.cls-44{fill:#fee77b;}.cls-45{fill:#ab2948;}.cls-46{fill:#eb5648;}.cls-47{fill:#4d2829;}.cls-48{fill:#de3d64;}.cls-49{fill:#8e5220;}.cls-50{fill:#d9e5ef;}.cls-51{fill:#86b1f2;}.cls-52{fill:#466eb6;}.cls-53{fill:#355389;}.cls-54{fill:#df2532;}.cls-55{fill:#fe9209;}.cls-56{fill:#2d185d;}.cls-57{fill:#8e3d38;}.cls-58{fill:#511914;}.cls-59{fill:#721914;}</style></defs><title>01</title><g class="cls-1"><g id="_01" data-name="01"><rect id="_01-2" data-name="01" class="cls-2" width="4680" height="3120"/><path class="cls-3" d="M4056.41,1699c-58.56,131.08-209.92,247-154.2,387.87,30.19,76.32,22.27,272.34-116.58,433.29a570.76,570.76,0,0,1-74.58,71.91q-16.76,13.52-35.22,26.3c-75.61,52.34-172.81,94.86-296.61,119.22q-9.27,1.83-18.73,3.51a1200.06,1200.06,0,0,1-127.5,15.47c-132.38,9.21-288.84.44-473.27-32.81q-43-7.76-86.23-14.53c-3.51-.55-7-1.1-10.55-1.63l-.3-.05-5.47-.84-2.74-.42a3757.28,3757.28,0,0,0-683.19-40.79h-.11q-5.31.16-10.61.36h-.32l-5.59.19q-97.44,3.55-194.71,12.25l-393,35.17-15.72,1.41a726.51,726.51,0,0,1-86.77,2.57q-12.15-.36-24.23-1.14A715.21,715.21,0,0,1,1070,2684.42q-20.44-6.47-40.37-14.12-11.63-4.46-23.05-9.31a719.56,719.56,0,0,1-182.89-112.34.58.58,0,0,1-.15-.13q-8.6-7.24-17-14.78c-.35-.3-.7-.61-1-.93q-6.95-6.24-13.69-12.66-2.88-2.74-5.75-5.52-14-13.62-27.29-28-1.58-1.7-3.11-3.4a705.32,705.32,0,0,1-147-249.07c-.42-1.25-.84-2.5-1.25-3.75a705.78,705.78,0,0,1-33.34-162.76q-1.6-18.78-2.11-37.12c-7.25-261.6,271.14-485.24,311.4-597.52,39.68-110.71-35.95-479-23.58-595.84,27.31-257.8,221.53-409.86,500.68-461.3,246.2-45.36,511.65,10.75,743.23,115,170.13,76.59,334.72,181.08,521.57,196.32,128.11,10.45,252.19-22.76,377.32-41.5,131.71-19.73,271.61-21.28,406.18-.24q12.28,1.9,24.49,4.09,11.91,2.12,23.74,4.48l5.47,1.1q9.54,1.93,19,4.06,3,.66,6,1.36c141.36,32.21,273.55,91.34,380,182.77,144.6,124.23,228.08,298.07,245.44,471.61C4125.69,1442,4108.53,1582.33,4056.41,1699Z"/><path class="cls-4" d="M1576.13,917.14a397.08,397.08,0,0,1-6.38,71.12,392.59,392.59,0,0,1-62.32,151.49c-71.1,104-190.66,172.24-326.15,172.24-161.17,0-299.8-96.55-361.15-235A387.68,387.68,0,0,1,800,1020.21a397.72,397.72,0,0,1-4.65-187.1c.06-.31.14-.61.2-.92a395.93,395.93,0,0,1,154.12-234.9q12.18-8.84,25.06-16.74a392.72,392.72,0,0,1,206.53-58.28q15.08,0,29.84,1.12a392.2,392.2,0,0,1,195.57,69.51h0A396.68,396.68,0,0,1,1515,706q9.06,14.34,16.93,29.45a393,393,0,0,1,44.18,181.7Z"/><path class="cls-5" d="M1047.13,740.38c-15.76,25,6.58,68.29-40.69,56.47s-76.17-17.07-78.79,9.18,35.46,26.28,35.46,53.85-17.08,36.69-43.34,23.6S886,851.33,855.43,863.15s-48.26,3.94-55.15-19.7a34.87,34.87,0,0,0-4.91-10.34c.06-.31.14-.61.2-.92a395.93,395.93,0,0,1,154.12-234.9q12.18-8.84,25.06-16.74c12.31.45,27,5.12,39.57,20.64,27.57,34.15,45.95,17.08,39.39,56.47s3.94,44.65,26.25,43.33,48.59-1.32,51.21,15.76S1062.89,715.43,1047.13,740.38Z"/><path class="cls-5" d="M1210.61,976.74s-34.79,11.16-44-13.13,1.32-29.55-29.54-36.77-33.48-28.23-53.18-25.6-9.85,10.5-32.83,27.57-44,9.19-43.33,40.71,34.8,36.43,41.69,57.11-4.92,29.55,9.85,45.31,42.35,8.86,29.54,30.52-32.5,38.41-22.65,71.9,3,35.45,19.7,59.08,49.24,31.52,54.16,15.76-22.65-36.43-13.78-52.19,23.63-4.93,29.54-28.56,29.87-23.64,31.84-40-28.88-41.36-17.07-51.87,35.46,19,53.84-7.22,5.91-47.27,24.95-72.22S1223.74,962.29,1210.61,976.74Z"/><path class="cls-5" d="M1576.13,917.14a397.08,397.08,0,0,1-6.38,71.12,392.59,392.59,0,0,1-62.32,151.49,45.13,45.13,0,0,1-31.57-.85c-49.24-19.7-12.8-72.88,6.89-99.47s-30.53-14.77-67-39.39,3.93-90.6-33.49-79.77-82.72,24.62-104.39-11.82,19.7-42.34,1-72.87,10.83-48.26,48.25-51.21,32.5-29.55,78.79-33.49,45.3,55.15,96.51,51.21,48.9,7.88,48.9,7.88a23.79,23.79,0,0,1,10.7,2.25A395.48,395.48,0,0,1,1576.13,917.14Z"/><path class="cls-5" d="M1532,735.44c-42.58,20.72-59.68-35.63-96.07-18.69-36.7,17.07-30.28-15.76-59.15-36.77s-86.67,17.07-84-15.76,46-23.64,55.15-49.89,51.21-19.7,51.21-19.7a28.16,28.16,0,0,1,7.65-1.73s0,0,0,0A396.68,396.68,0,0,1,1515,706Q1524.08,720.33,1532,735.44Z"/><path class="cls-5" d="M1173.19,622.2s22.32-32.2-13.13-41.71-34.8,2.94-62.37,0S1059.28,598.9,1080,622.2s37.42,68,56.13,44.2S1151.19,624.5,1173.19,622.2Z"/><path class="cls-6" d="M1501.2,541.34c-38.88,0-70.39,33.9-70.39,75.7s70.39,108.62,70.39,108.62,70.39-66.82,70.39-108.62S1540.08,541.34,1501.2,541.34Zm0,112.74a41.48,41.48,0,1,1,41.48-41.48A41.41,41.41,0,0,1,1501.2,654.08Z"/><path class="cls-6" d="M877.81,683.35c-59.06,0-106.93,51.49-106.93,115s106.93,165,106.93,165,106.93-101.5,106.93-165S936.87,683.35,877.81,683.35Zm0,171.25a63,63,0,1,1,63-63A62.9,62.9,0,0,1,877.81,854.6Z"/><path d="M965.44,742.39a3.59,3.59,0,0,1-.47,0c-1.89-.21-3.21-1.61-3-3.14,0-.08.34-2,1-5.58.3-1.53,2.07-2.56,4-2.32s3.16,1.67,2.86,3.2c-.68,3.49-1,5.44-1,5.46A3.29,3.29,0,0,1,965.44,742.39Z"/><path d="M968.82,725.67a4.26,4.26,0,0,1-.61,0c-1.88-.27-3.12-1.73-2.79-3.24.82-3.67,1.69-7.46,2.61-11.25a3.49,3.49,0,0,1,4.05-2.2c1.87.29,3.09,1.76,2.72,3.28-.91,3.76-1.78,7.51-2.59,11.15A3.33,3.33,0,0,1,968.82,725.67Zm5.41-22.36a4.37,4.37,0,0,1-.72-.06c-1.86-.32-3-1.8-2.66-3.31,1-3.7,2-7.46,3-11.16a3.53,3.53,0,0,1,4.12-2.11c1.86.34,3,1.83,2.61,3.34-1,3.68-2,7.41-3,11.08A3.36,3.36,0,0,1,974.23,703.31Zm6.21-22.21a3.86,3.86,0,0,1-.82-.08c-1.85-.36-3-1.87-2.54-3.37,1.1-3.69,2.25-7.42,3.41-11.08a3.58,3.58,0,0,1,4.2-2c1.84.38,3,1.9,2.48,3.4-1.15,3.63-2.29,7.33-3.38,11A3.4,3.4,0,0,1,980.44,681.1Zm7-22a4,4,0,0,1-.91-.1c-1.84-.41-2.92-1.94-2.42-3.43,1.24-3.69,2.53-7.39,3.82-11a3.62,3.62,0,0,1,4.27-1.9c1.83.43,2.89,2,2.36,3.46-1.29,3.58-2.56,7.25-3.79,10.91A3.43,3.43,0,0,1,987.43,659.06Zm7.82-21.86a4.42,4.42,0,0,1-1-.12c-1.82-.46-2.85-2-2.29-3.49,1.39-3.65,2.82-7.32,4.26-10.89a3.67,3.67,0,0,1,4.35-1.79c1.81.48,2.8,2.05,2.21,3.52-1.42,3.54-2.85,7.18-4.22,10.8A3.45,3.45,0,0,1,995.25,637.2Zm8.72-21.63a4.45,4.45,0,0,1-1.13-.15c-1.8-.51-2.75-2.1-2.13-3.55,1.55-3.63,3.15-7.25,4.75-10.77a3.72,3.72,0,0,1,4.43-1.65c1.79.53,2.7,2.14,2,3.58-1.58,3.49-3.16,7.07-4.7,10.66A3.47,3.47,0,0,1,1004,615.57Zm408.54-6.64a3.57,3.57,0,0,1-3.14-1.63c-1.9-3.35-3.91-6.79-6-10.21-.84-1.39-.14-3.06,1.57-3.74a3.85,3.85,0,0,1,4.62,1.28c2.11,3.46,4.15,7,6.07,10.34.8,1.41,0,3.07-1.7,3.71A4.14,4.14,0,0,1,1412.51,608.93Zm-398.83-14.7a4.12,4.12,0,0,1-1.25-.19c-1.78-.57-2.65-2.19-2-3.62,1.73-3.56,3.51-7.12,5.29-10.58a3.76,3.76,0,0,1,4.51-1.5c1.76.59,2.59,2.23,1.86,3.65-1.77,3.42-3.53,6.94-5.23,10.47A3.54,3.54,0,0,1,1013.68,594.23Zm386.44-5.73a3.62,3.62,0,0,1-3.06-1.5c-2.16-3.34-4.4-6.69-6.64-10a2.55,2.55,0,0,1,1.34-3.8,3.9,3.9,0,0,1,4.69,1.09c2.27,3.3,4.53,6.69,6.72,10.07.89,1.37.23,3.06-1.45,3.77A4,4,0,0,1,1400.12,588.5Zm-375.61-15.23a4.21,4.21,0,0,1-1.4-.24c-1.74-.63-2.52-2.28-1.75-3.69,1.95-3.53,3.94-7,5.94-10.41a3.84,3.84,0,0,1,4.6-1.31c1.72.67,2.45,2.33,1.63,3.72-2,3.34-4,6.8-5.87,10.28A3.58,3.58,0,0,1,1024.51,573.27Zm361.94-4.65a3.67,3.67,0,0,1-3-1.37c-2.38-3.25-4.82-6.5-7.27-9.65a2.5,2.5,0,0,1,1.08-3.85,4,4,0,0,1,4.76.88c2.48,3.19,5,6.48,7.36,9.77a2.52,2.52,0,0,1-1.21,3.83A4.1,4.1,0,0,1,1386.45,568.62Zm-349.79-15.87a4.08,4.08,0,0,1-1.58-.31c-1.69-.71-2.36-2.39-1.49-3.76,2.19-3.44,4.43-6.84,6.67-10.11a3.9,3.9,0,0,1,4.69-1.08,2.52,2.52,0,0,1,1.34,3.79c-2.2,3.22-4.41,6.57-6.56,10A3.64,3.64,0,0,1,1036.66,552.75Zm334.83-3.39a3.7,3.7,0,0,1-2.87-1.24c-2.6-3.14-5.27-6.26-7.93-9.28a2.47,2.47,0,0,1,.8-3.9,4,4,0,0,1,4.81.65c2.71,3.07,5.41,6.24,8,9.43a2.48,2.48,0,0,1-.95,3.87A4,4,0,0,1,1371.49,549.36Zm-321.18-16.48a4.09,4.09,0,0,1-1.78-.4,2.52,2.52,0,0,1-1.18-3.83c2.48-3.32,5-6.59,7.55-9.72a4,4,0,0,1,4.78-.8,2.5,2.5,0,0,1,1,3.87c-2.49,3.07-5,6.27-7.41,9.53A3.67,3.67,0,0,1,1050.31,532.88Zm304.84-2a3.79,3.79,0,0,1-2.75-1.1c-2.84-3-5.75-6-8.65-8.83a2.45,2.45,0,0,1,.47-3.93,4,4,0,0,1,4.85.38c3,2.9,5.92,5.93,8.81,9a2.45,2.45,0,0,1-.64,3.91A4,4,0,0,1,1355.15,530.87Zm-289.4-17a4,4,0,0,1-2-.53,2.47,2.47,0,0,1-.78-3.9c2.82-3.15,5.71-6.23,8.6-9.15a4,4,0,0,1,4.85-.44,2.46,2.46,0,0,1,.53,3.93c-2.82,2.85-5.64,5.86-8.39,8.94A3.75,3.75,0,0,1,1065.75,513.9Zm271.53-.57a3.85,3.85,0,0,1-2.58-.94c-3.12-2.83-6.3-5.61-9.45-8.24a2.43,2.43,0,0,1,.07-3.95,4.05,4.05,0,0,1,4.88.06c3.22,2.69,6.47,5.52,9.65,8.41a2.44,2.44,0,0,1-.28,3.95A3.93,3.93,0,0,1,1337.28,513.33ZM1317.71,497a3.91,3.91,0,0,1-2.36-.76c-3.41-2.59-6.89-5.11-10.34-7.47a2.45,2.45,0,0,1-.4-3.94,4,4,0,0,1,4.86-.32c3.54,2.42,7.11,5,10.6,7.66a2.44,2.44,0,0,1,.16,3.95A3.85,3.85,0,0,1,1317.71,497Zm-234.41-.82a4,4,0,0,1-2.3-.71,2.44,2.44,0,0,1-.26-4c3.22-2.91,6.53-5.71,9.83-8.34a4.05,4.05,0,0,1,4.88,0,2.44,2.44,0,0,1,0,3.95c-3.2,2.54-6.4,5.26-9.53,8.08A3.82,3.82,0,0,1,1083.3,496.19Zm213-13.85a4,4,0,0,1-2.08-.56c-3.71-2.28-7.5-4.45-11.26-6.46a2.49,2.49,0,0,1-1-3.87,4,4,0,0,1,4.78-.79c3.88,2.08,7.79,4.32,11.62,6.66a2.46,2.46,0,0,1,.68,3.91A3.79,3.79,0,0,1,1296.29,482.34Zm-193-2a3.81,3.81,0,0,1-2.63-1,2.45,2.45,0,0,1,.39-3.94c3.69-2.53,7.47-4.93,11.25-7.14a4,4,0,0,1,4.81.64,2.48,2.48,0,0,1-.78,3.9c-3.63,2.11-7.26,4.42-10.81,6.86A3.91,3.91,0,0,1,1103.33,480.31Zm169.57-10.46a4.07,4.07,0,0,1-1.7-.37c-4-1.85-8.14-3.57-12.21-5.12-1.72-.66-2.46-2.33-1.65-3.72a3.86,3.86,0,0,1,4.6-1.34c4.22,1.61,8.48,3.4,12.66,5.32a2.54,2.54,0,0,1,1.31,3.81A3.67,3.67,0,0,1,1272.9,469.85Zm-146.83-2.74a3.7,3.7,0,0,1-3-1.37,2.53,2.53,0,0,1,1.22-3.83c4.16-2,8.44-3.81,12.7-5.41a3.82,3.82,0,0,1,4.58,1.36c.8,1.4.05,3.06-1.68,3.71-4.05,1.52-8.12,3.25-12.09,5.15A4.13,4.13,0,0,1,1126.07,467.11Zm121.48-6.91a4.22,4.22,0,0,1-1.21-.18c-4.31-1.31-8.7-2.47-13-3.45-1.83-.42-2.91-2-2.39-3.44a3.6,3.6,0,0,1,4.25-1.94c4.54,1,9.12,2.23,13.62,3.6,1.78.54,2.68,2.15,2,3.6A3.51,3.51,0,0,1,1247.55,460.2Zm-96.11-2.58a3.49,3.49,0,0,1-3.27-1.9c-.61-1.46.36-3.05,2.16-3.54,4.54-1.25,9.19-2.3,13.83-3.13a3.53,3.53,0,0,1,4.11,2.13c.41,1.51-.77,3-2.63,3.33-4.39.78-8.8,1.77-13.09,3A4.24,4.24,0,0,1,1151.44,457.62Zm69.14-3.5a4.44,4.44,0,0,1-.63,0c-4.48-.67-9-1.16-13.55-1.48-1.9-.14-3.3-1.49-3.14-3s1.84-2.68,3.74-2.54c4.73.34,9.5.86,14.19,1.55,1.88.28,3.12,1.73,2.78,3.25A3.34,3.34,0,0,1,1220.58,454.12Zm-41.87-1.36a3.26,3.26,0,0,1-3.43-2.5c-.2-1.53,1.18-2.91,3.07-3.07,1.46-.12,2.93-.23,4.37-.31,3.32-.19,6.68-.3,10-.31,1.92,0,3.46,1.23,3.47,2.77s-1.52,2.8-3.42,2.81c-3.15,0-6.36.12-9.53.3-1.37.08-2.76.18-4.14.3Z"/><path d="M1420.62,624.24a3.49,3.49,0,0,1-3.22-1.8s-.88-1.85-2.56-5.08c-.74-1.42.09-3.06,1.84-3.66a3.79,3.79,0,0,1,4.52,1.49c1.73,3.33,2.61,5.19,2.64,5.26.68,1.44-.21,3.06-2,3.61A4.36,4.36,0,0,1,1420.62,624.24Z"/><path class="cls-7" d="M4049.65,2598.83H3100.77V414.72h661.41c158.77,0,287.47,46.6,287.47,205.37Z"/><path class="cls-8" d="M2319.68,414.23h731V2598.38H2116V618C2116,505.44,2207.17,414.23,2319.68,414.23Z"/><path class="cls-8" d="M2943.46,414.18v2184.2H3759.9V626.22c0-187.31-132.6-212-296.21-212Z"/><path class="cls-9" d="M2923.41,579.3H2335.74a54.91,54.91,0,0,0-54.92,54.91V2621.73h697.5V634.21A54.91,54.91,0,0,0,2923.41,579.3Z"/><path class="cls-7" d="M2332.36,579.17h53.84V2621.91H2280.82V630.73A51.55,51.55,0,0,1,2332.36,579.17Z"/><rect class="cls-10" x="3088.58" y="880.23" width="554.9" height="192.08"/><path class="cls-11" d="M3643.48,851.13h-584v250.28h613.11V851.13Zm0,221.17h-554.9V880.23h554.9Z"/><g class="cls-12"><polygon class="cls-11" points="3249.01 1072.31 3206.96 1072.31 3352.75 880.23 3394.79 880.23 3249.01 1072.31"/></g><g class="cls-12"><polygon class="cls-11" points="3284.76 1072.31 3263.74 1072.31 3409.53 880.23 3430.55 880.23 3284.76 1072.31"/></g><g class="cls-13"><polygon class="cls-14" points="3088.58 1072.31 3088.58 880.23 3643.48 880.23 3101.83 895.79 3101.83 1072.31 3088.58 1072.31"/></g><g class="cls-13"><polygon class="cls-14" points="3073.13 1101.52 3073.13 1114.5 3676.92 1114.5 3676.92 858.48 3672.75 858.48 3672.58 1101.41 3073.13 1101.52"/></g><path d="M2735.33,898.05c-6.48-13.38-13.73-37.15-17.27-79.52.55,4.2,7.85,57.64,28.4,87.89,84.4,55.42,246.19,240.46,243,275.52,0,0,17.87-16.76,43.78-40.58l6-36c3.17,6.5,3.51,18.82,3.3,27.5,48.43-44.4,117.92-107,155.06-135.27-4.62-15.12-17-41.53-17.44-42.49,10.84,3,23.71,22.88,30,33.46,1.09-.75,2.12-1.41,3.1-2,0,0-11.06-87.34-137-152.57-66-34.19-111.26-48.36-108.62-91.75s-17.27-230.16-144.11-181.28c0,0-32.83-15.74-71.51,7.83C2706.3,596.61,2663.86,832.27,2735.33,898.05Z"/><path d="M2780.69,568.88c-12-8.35-34.36-15.58-60.49,9.77-25.95,25.18-38.52,106,56.84,84.91Z"/><path class="cls-15" d="M2912.32,908.93s-115.09,103.42-150.58,89.58,51.64-153.35,51.64-153.35l.7-39.83s-24.32,10.8-57.78-12.27c-12.83-8.86-19.8-28.94-23.4-51.55-.14-.65-.23-1.29-.32-1.94-.69-4.85-1.29-9.83-1.71-14.81-.09-.88-.18-1.71-.23-2.59-3.23-39.18,1.06-78.86,1.06-78.86s16.66-19.11,23.35-25.2l6.74-6.09s4.34,6.41,41.81,28.33,49.33,21.23,54,22.8,6,27,11.36,33.13c5.16,5.77,9,.65,9.27.23v0c4.39-8.82,13.29-13.29,22.48-4.16,12.27,12.28,13,30,9.59,43.34a26.24,26.24,0,0,1-15.09,17.67l.74,95Z"/><path class="cls-16" d="M2859.21,777.29c-.54,1.45,8,40.53-45.82,67.87l.69-39.84s14.42-4.53,25.18-9.26C2849.69,791.49,2858.66,778.12,2859.21,777.29Z"/><path class="cls-17" d="M2806.75,707.74c0,6,3.42,10.88,7.64,10.88s7.63-4.87,7.63-10.88-3.42-10.89-7.63-10.89S2806.75,701.73,2806.75,707.74Z"/><path class="cls-11" d="M2806.34,705.51c0,3,1.8,5.48,4,5.48s4-2.46,4-5.48-1.8-5.48-4-5.48S2806.34,702.48,2806.34,705.51Z"/><path class="cls-17" d="M2747,707.74c0,6,3.42,10.88,7.63,10.88s7.64-4.87,7.64-10.88-3.42-10.89-7.64-10.89S2747,701.73,2747,707.74Z"/><path class="cls-11" d="M2746.61,705.51c0,3,1.8,5.48,4,5.48s4-2.46,4-5.48-1.8-5.48-4-5.48S2746.61,702.48,2746.61,705.51Z"/><path class="cls-18" d="M2831.05,694.84a2.31,2.31,0,0,1-2-1.07c-6.78-10.74-17-7.1-17.42-6.94a2.31,2.31,0,0,1-1.64-4.31c4.85-1.86,15.89-2.41,23,8.78a2.31,2.31,0,0,1-.72,3.19A2.28,2.28,0,0,1,2831.05,694.84Z"/><path class="cls-18" d="M2780.33,736a2.39,2.39,0,0,1-.74-.12c-.28-.1-6.9-2.43-8.19-8.69-1.24-6,5.54-13.88,6.32-14.76a2.31,2.31,0,1,1,3.45,3.06c-2.51,2.85-5.81,8.08-5.25,10.77.75,3.66,5.13,5.24,5.17,5.26a2.3,2.3,0,0,1-.76,4.48Z"/><path class="cls-18" d="M2744.62,685.08a2.31,2.31,0,0,1-1.43-4.12c9.6-7.57,21.41-2.17,21.9-1.93a2.31,2.31,0,0,1-2,4.18c-.16-.08-9.78-4.39-17.09,1.37A2.35,2.35,0,0,1,2744.62,685.08Z"/><path class="cls-11" d="M2769,757.59a5.93,5.93,0,0,1,1.39-4.34c1.32-1.32,3.37-1.49,5.24-1.59l20.37-1,3.47,2.33a19,19,0,0,1-6.72,13.8,15.74,15.74,0,0,1-14.87,2.77A13.45,13.45,0,0,1,2769,757.59Z"/><path class="cls-16" d="M2810.69,733c0,4.87,7.45,8.82,16.64,8.82S2844,737.82,2844,733s-7.45-8.82-16.64-8.82S2810.69,728.08,2810.69,733Z"/><path class="cls-16" d="M2753.71,733c0,4.85-7.43,8.82-16.66,8.82a30.53,30.53,0,0,1-4.15-.28c-.14-.65-.23-1.29-.32-1.94-.69-4.85-1.29-9.83-1.71-14.81a28.86,28.86,0,0,1,6.18-.65C2746.28,724.11,2753.71,728.08,2753.71,733Z"/><path d="M2730.55,658.86,2769,663l8.58-25.43,2.86,25.75,36.24,5.4,5.41-23.21,3.49,22.26s35,3.49,38.15-7.95-23.84-49-53.72-61-45.78-33.38-67.08-13.67S2721.33,647.42,2730.55,658.86Z"/><path class="cls-16" d="M2887.88,734.45a2.18,2.18,0,0,0,.67-.1,2.3,2.3,0,0,0,1.54-2.87c-.23-.78-5.55-19.08,9.26-24.23a2.31,2.31,0,0,0-1.51-4.36c-15.21,5.3-14.61,21.89-12.16,29.93A2.3,2.3,0,0,0,2887.88,734.45Z"/><path class="cls-16" d="M2886.51,724.2a2.23,2.23,0,0,0,1.51-.57c7.72-6.74,12.07-2.52,12.54-2a2.32,2.32,0,0,0,3.25.15,2.3,2.3,0,0,0,.18-3.23c-.07-.09-7.64-8.33-19,1.63a2.3,2.3,0,0,0,1.52,4Z"/><path d="M2425.76,2499l49.71,1.52,53.81,1.65s124.29-138.39,194-360.22q2.45-7.74,5.16-15.66C2766.61,2015,2845.7,1875.37,2887.39,1749c6.63-20.14,12.59-39.09,17.94-57,1.71-5.75,3.38-11.39,5-17,30.72-106.73,39.61-176.81,47.81-251.69l-301,2.41S2608.51,1937,2425.76,2499Z"/><path class="cls-11" d="M2960.28,1474.73c-153.17,48.2-282.05-17.28-282.05-17.28s14.89-203.2,32.83-365.49c10.52-95.23,22.09-176.35,32.3-194.1,0,0,25.95-17.1,58.47-35.18-1.59,14.26,8.31,27.32,38.82,28,26.49.6,56.08-11.86,66.07-24.29,37.07,13.89,51.19,446.64,53.41,573.63C2960.51,1461.85,2960.55,1474.64,2960.28,1474.73Z"/><path class="cls-19" d="M2960.28,1474.73c-153.17,48.2-282.05-17.28-282.05-17.28s14.89-203.2,32.83-365.49c10.54-10,16.81-15.89,16.81-15.89s12.39,312.75,61,349.19c25.18,18.89,102.57,19,171.28,14.75C2960.51,1461.85,2960.55,1474.64,2960.28,1474.73Z"/><path class="cls-20" d="M2958.1,1268.73c13.16,18.62,38.39,131.81,101.15,146-32.34-80.67-56.9-116-60.73-140.85-7.12-46.3-7.27-94.2-3.73-139.39-21-36.82-36.69-62.07-36.69-62.07-1.64-6-33.38-104.09-43.55-16.37S2943.41,1247.9,2958.1,1268.73Z"/><path class="cls-21" d="M2727.87,1076.07c-2.11,35.92-8.45,587.33-8.45,587.33s4.23,25.35-44.36,14.8-61.27-21.13-61.27-21.13,46.48-340.15,33.8-458.46c-2.5-23.32-.23-49.55,5-76.62-27.53,16.73-55.11,31.41-78.67,43.14-18.17,9-34,16.36-45.51,21.52a41.87,41.87,0,0,1-38.58-2.27l-235.6-140.77L2282.38,954s81.51,45.57,110.62,58.71c16.6,7.49,54.79,25.38,81.71,38a42,42,0,0,0,49.78-10.73c44.18-51.61,159.19-163.56,277.34-177.29C2801.83,862.68,2730,1040.15,2727.87,1076.07Z"/><path class="cls-22" d="M2686.55,1010.16c-29.81,57.9-33.94,111.83-33.94,111.83-27.53,16.73-55.11,31.41-78.67,43.14C2622.83,1088.3,2686.55,1010.16,2686.55,1010.16Z"/><path class="cls-20" d="M2475.47,2500.51l53.81,1.65s124.29-138.39,194-360.22q2.45-7.74,5.16-15.66C2766.61,2015,2845.7,1875.37,2887.39,1749c6.63-20.14,12.59-39.09,17.94-57,1.71-5.75,3.38-11.39,5-17L2866,1641.37s-133.08,215.5-174.28,418.3C2655.9,2235.83,2512.57,2447.8,2475.47,2500.51Z"/><path d="M2861.34,2078.55c-.76,98.63,4.22,325.37,17.07,419.23h47.66c26.35,0,39.49-.38,39.49-.38,32.22-163.2,55.14-298.25,71.83-414.62,13.69-95.5,25.86-177.36,35.22-247.84,9.43-70.93,16-130.32,18.32-180.5q.54-11.85.78-23c.15-7.49.19-14.79.13-21.86l-260.08-25.36C2835,1757,2861.76,2021.24,2861.34,2078.55Z"/><path class="cls-20" d="M2926.07,2497.78c26.35,0,39.49-.38,39.49-.38,32.22-163.2,55.14-298.25,71.83-414.62,13.69-95.5,25.86-177.36,35.22-247.84,9.43-70.93,16-130.32,18.32-180.5l-95.43,56.14s60.91,21.49,37.67,184.17S2958.42,2474.75,2926.07,2497.78Z"/><path class="cls-21" d="M2913.8,1652.85s18.3,66.18,81.68,57.72S3149,1664.09,3149,1664.09s-27.1-85.58-60.76-198c-.37-1.18-.71-2.39-1.08-3.59-39.74-132.77-88.31-301.78-112.46-411.75-.52-2.35-1-4.67-1.51-7-6.67-31-11.25-56.91-12.93-75.47l-53.55-101.95s-77.43,175.9-81.66,220.27S2913.8,1652.85,2913.8,1652.85Z"/><polygon class="cls-11" points="2858.08 1013.69 2854.83 1032.13 2930.22 1044.6 2937.82 1027.25 2858.08 1013.69"/><path class="cls-15" d="M2977.08,1080l-70.36-213.65c.19.09,88.61,26,132.61,48.18,0,0,27.5,35.45,44.52,117.25,0,0,18,196.38-22.17,268.22,0,0-126.76,25.35-329.58-44.37v-46.48s221.83,11.62,267.26,16.9Z"/><path class="cls-22" d="M2922.7,1179.58c2.8,70.87,19.29,207.56,164.47,282.9-39.74-132.77-88.31-301.78-112.46-411.75C2948.38,1091.14,2921.26,1142.2,2922.7,1179.58Z"/><path class="cls-21" d="M2906.72,866.37s129.61,9,160.6,78,40.84,298.6,1.41,366.21c0,0-54.3,15.46-150.33-2.49l-3.55-.68s-30.63-75-3.17-89.79c0,0,81,4.23,72.54-22.54S2906.72,866.37,2906.72,866.37Z"/><path class="cls-15" d="M2754.84,1221.53s-17.68-21.42-21.44-43.28-15.47-38.09-46-42.1-43.62-4.44-43.54,4.16,24.92,68.63,68.69,104.48S2754.84,1221.53,2754.84,1221.53Z"/><path class="cls-15" d="M2130.85,964.48c2.4,7.48,30.82,27.84,47.36,37.39l.08,0a57.59,57.59,0,0,0,9.43,4.68,8.9,8.9,0,0,0,2.15.5c7.44,3.18,16.24,13.32,27.69,17.36s28.19,6.14,40.09,8.61l25-78.09c-3.44-14-11.85-36-17.6-55.2-7.53-25.29-9.18-27-16.73-24-4.85,1.95-2.14,28.78,2.15,53.6-20.66-13.23-47.73-24.89-47.73-24.89l-.13.35c-5.26-3.31-43.82-27.09-54.63-23.64-9.36,3,27.28,30.17,49.59,43.59l-1,4c-11.5-7.43-59.58-37.61-70.79-33.47-11.48,4.31,42.57,43.53,65.19,55.66l-1.94,7.84c-7.19-4.6-57.29-36.68-68.51-32.53s42.83,43.05,63.21,53.44l-1.13,4.65c-13.29-8.06-43-25.3-50.72-22.35C2130.73,962.37,2130.46,963.25,2130.85,964.48Z"/><ellipse class="cls-23" cx="2423.29" cy="2601.71" rx="1670.22" ry="142"/><path d="M2140.1,2566H3577.68a43.25,43.25,0,0,0,43.07-39.22l77.74-830.07H2011.29l77,822.1A52.06,52.06,0,0,0,2140.1,2566Z"/><rect class="cls-24" x="2219.07" y="1641.08" width="1541.59" height="146.7"/><path class="cls-25" d="M2137.27,2566H3337a59,59,0,0,0,58.78-53.58l76.45-824.5H2002l76.45,824.5A59,59,0,0,0,2137.27,2566Z"/><ellipse class="cls-26" cx="2750.19" cy="2161.39" rx="529.79" ry="196.58"/><path class="cls-27" d="M2750.19,1964.8c245.09,0,451.3,61.75,511.8,145.61-85.55-65.89-267.24-111.36-477.55-111.36-292.59,0-529.78,88-529.78,196.58,0,17.63,6.25,34.72,18,51-33.47-25.78-52.23-54.68-52.23-85.22C2220.41,2052.82,2457.6,1964.8,2750.19,1964.8Z"/><path class="cls-28" d="M3472.18,1696.73l-25,260.38C3360.67,1864.79,2002,1810.55,2002,1810.55V1696.73Z"/><rect x="1956.52" y="1641.08" width="1620.18" height="146.7"/><rect class="cls-25" x="1956.52" y="1641.08" width="1620.18" height="31.36" transform="translate(5533.21 3313.52) rotate(180)"/><path class="cls-29" d="M3989.74,2186.56l-.4,2.26a4.76,4.76,0,0,0-1.69-2.26Z"/><ellipse class="cls-30" cx="3828.93" cy="2189.51" rx="160.51" ry="19.65"/><path class="cls-31" d="M3989.44,2189.51a2.85,2.85,0,0,1-.5,1.56l.4-2.25A2.35,2.35,0,0,1,3989.44,2189.51Z"/><path class="cls-32" d="M3871,1948.73c-8.21,34.88-16.87,69.19-18.56,105,1,1.76.76,8.25-.29,6.49-.2,5.76-9,4.71-9-1,.09-3.71.18-7.42.37-11-20.51-25.46-50.3-41.59-74.37-63.73-19.46-17.91-33.39-39.25-40.76-64.86-20-68.81-1.25-141.73-25.26-210.36-20.7-59.19-57.84-110.63-89.26-164.25-33.16-56.71-57.64-116.29-60.09-182.71-2-50.85,4.11-118.62,42.84-156.72,41.06-40.43,92-10.13,123.41,25.92,91.14,104.61,133.32,236.81,150.37,372,9.4,74.81,19.16,150.08,16.91,225.6C3886,1869.63,3880.16,1909.31,3871,1948.73Z"/><path class="cls-33" d="M3852.79,2081.17c4.71-70.7,4.42-141.52-2.51-211.93.12-.26.35-.43.36-.77,1.15-57.29,5.7-114.35,3.45-171.71-2.44-62.31-11.58-123.38-25.23-184.17-.16-.7-1.25-.54-1.11.18a1201,1201,0,0,1,19.93,180.11q1.74,48.54-.77,97.09c-.56,10.53-1.53,21.13-2.23,31.74,0,0,0-.07,0-.1-23.1-161.22-82.61-314.17-170.44-451-1.19-1.86-4.5.13-3.33,2,63.25,103.28,109.89,216.73,138.73,334.44-43.83-81.21-110-148-159.15-226-.26-.42-1,0-.74.46,44.12,86.87,117,155.37,163.48,241,8.06,34.89,14.66,70.1,19.58,105.52,6.74,48.65,9.91,97.59,10.57,146.6-26.7-49.91-54.41-97.64-76.25-150.42-.59-1.41-2.6-.45-2.13.95,18.58,54.83,43.56,113.89,78.52,160.64.19,34.7-.84,69.42-2.88,104.08-5.45,92.53-21.25,183.82-28.56,276.05-.22,2.77,3.68,3.1,4.23.45C3835.5,2273.22,3846.47,2176,3852.79,2081.17Z"/><path class="cls-33" d="M3754.53,1367.6c-.28-.67-1.27-.21-1,.46,16.9,46.73,26.45,94.08,38.66,142a1.77,1.77,0,0,0,3.49-.57C3790.68,1460.88,3773.33,1412.4,3754.53,1367.6Z"/><path class="cls-33" d="M4183.69,1563.47c-10.95,27.45-24.55,54-38.87,79.85-30.43,55.27-62.18,105.9-67.92,170.26-2.57,28.73-3.48,57.6-12.24,85.28-7.56,24-19.85,46.08-34,66.76-33,48.05-74.21,89.45-104.77,139.31a586.51,586.51,0,0,0-69.62,167.87c-.76,3.23-5.85,2.36-5.1-.87a2.74,2.74,0,0,0,.2-.73,1.11,1.11,0,0,1-.31-.68c-4.84-138,6.17-277,48.26-409.23a1415.23,1415.23,0,0,1,66.87-170.23c22.54-47.93,50.64-94,90.22-129.82,25.68-23.13,81.38-67,117.94-43.77C4191.91,1528.63,4190.6,1546.25,4183.69,1563.47Z"/><path class="cls-32" d="M4045,1876.27c-23.66,40.45-51.72,78.11-80.18,115.27-13.36,17.44-26.91,34.74-40.24,52.2-6.31,8.25-13.37,16.47-19.15,25.33,3.64-14.51,7.2-29,10.9-43.54,17.8-69.71,34.91-140,61.43-207.07,25.92-65.52,60.39-127.06,95.81-187.82.93-1.6-1.65-2.75-2.59-1.2-29.16,47.94-58.75,95.83-83.26,146.38a768.59,768.59,0,0,0-35.34,86.86c11.92-63.38,26.2-124.23,47-185.59.19-.54-.59-.94-.83-.38-25.42,60.17-43.72,127.83-48.82,193a.55.55,0,0,0,.1.31q-9,26.88-16.61,54.24c-21.74,77.19-40.82,155.2-58.52,233.47.31-51.68,3.55-102.44,13.32-153.44.22-1.16-1.53-1.44-1.81-.3-12.82,52.52-18.62,107.79-13.33,161.75q-10,44.66-19.55,89.38c-13.57,63.6-30.23,128.34-38.16,192.92a1.29,1.29,0,0,0,2.55.43c9.47-34.81,15.18-70.9,22.92-106.15s15.76-70.65,24-105.9c12-51.34,24.54-102.54,37.32-153.68,8.55-18.75,25.07-35.4,37.45-51.13,13.59-17.26,27.17-34.52,40.39-52.06,24.61-32.67,47.2-66.6,66.4-102.75C4046.65,1876.07,4045.45,1875.54,4045,1876.27Z"/><path class="cls-32" d="M4050.9,1817.26c-29.92,38.41-57.09,80.93-78.47,124.69-.27.56.6,1.15,1,.6,26.41-41.39,52.38-83.09,78.74-124.51C4052.56,1817.34,4051.4,1816.62,4050.9,1817.26Z"/><path class="cls-34" d="M3463.52,1694.29c17.89,30.8,38.3,67.78,30.62,104.76-4.87,23.41-22,42.41-25.09,66.28-6.93,52.71,45.59,87.54,83.6,112.44,94.74,62.16,224.69,117.59,241.91,244.54.66,4.49,8.43,3.37,7.87-1a2.55,2.55,0,0,0-.19-.84c.19-.29.47-.38.47-.75,12.26-64.32,12-129.86-1.78-193.89-14.14-65.44-42.69-124.23-76.39-181.72-57-97.27-117.4-196.88-203.63-271.4-23.87-20.6-72.74-57.67-91.75-11.14C3410.72,1606.75,3441.62,1656.75,3463.52,1694.29Z"/><path class="cls-32" d="M3550.24,1900.53c62.82,68,162.69,106.13,216.76,182.3-32-116.75-85.07-221.73-166.59-312.92-2.09-2.35,1.17-5.67,3.46-3.47,59.69,57.36,103.89,124.42,136.14,197.17-14.5-51.95-34.79-101.08-58.62-149.92-.9-1.84,1.72-3.43,2.78-1.63,30.37,51.78,50.54,109.9,63.18,168.52,71.25,172.49,77.85,374.78,62.92,556.58-.21,2.59-4.17,2.67-4.1,0,4.1-143.27,1.78-289-32.56-429-.71-2.93-1.51-5.8-2.25-8.71-58.82-82-158.26-120-222.2-197.87C3548.54,1900.86,3549.56,1899.79,3550.24,1900.53Z"/><path class="cls-32" d="M3535.68,1842.12c33,30.26,65.44,61.2,98.47,91.43.33.31-.11.89-.49.64-35.95-24.33-72.46-56.48-99.95-90.1A1.39,1.39,0,0,1,3535.68,1842.12Z"/><path class="cls-32" d="M3530.47,1711.05c30,48,61.36,93,98.66,135.71a.59.59,0,0,1-.83.83c-40-38.57-75.61-85.23-99.6-135.51A1,1,0,0,1,3530.47,1711.05Z"/><path class="cls-35" d="M3988.94,2191.07l-75.31,420.65H3744.52L3734,2553l-64.69-361.38c8.54,9.86,76.74,17.55,159.61,17.55,38.5,0,73.85-1.65,101.51-4.43C3963.37,2201.44,3985.4,2196.57,3988.94,2191.07Z"/><path class="cls-36" d="M3988.94,2191.07l-75.31,420.65H3744.52L3734,2553c25.85,3.75,54,4.55,81.53-.87,71.23-14,104.15-246,114.9-347.39C3963.37,2201.44,3985.4,2196.57,3988.94,2191.07Z"/><polygon class="cls-37" points="2568.66 1337.3 2503.61 1639.5 2757.11 1639.5 2813.82 1337.3 2568.66 1337.3"/><polygon class="cls-6" points="2557.02 1337.3 2491.98 1639.5 2745.48 1639.5 2802.18 1337.3 2557.02 1337.3"/><polygon class="cls-10" points="2787.17 1349.06 2735.96 1622.02 2506.99 1622.02 2513.51 1591.73 2565.74 1349.06 2787.17 1349.06"/><path class="cls-38" d="M2787.17,1349.06,2736,1622H2507l6.52-30.29c37-1.5,104.81-6.07,153.48-29.49,61.54-29.58,71.51-177.52,73-213.18Z"/><path class="cls-6" d="M2734.64,1477.21H2560.36a5.84,5.84,0,1,0,0,11.67h174.28a5.84,5.84,0,1,0,0-11.67Z"/><path class="cls-6" d="M2725.75,1504.73H2551.46a5.84,5.84,0,0,0,0,11.67h174.29a5.84,5.84,0,0,0,0-11.67Z"/><path class="cls-6" d="M2720.19,1531.13H2545.91a5.84,5.84,0,1,0,0,11.67h174.28a5.84,5.84,0,0,0,0-11.67Z"/><rect class="cls-11" x="2368.41" y="1565.66" width="130.64" height="7.23" transform="translate(228.39 3446.01) rotate(-73.21)"/><path class="cls-11" d="M2416.24,1618.72c-13,0-23.64,9.06-25.27,20.78h50.53C2439.87,1627.78,2429.19,1618.72,2416.24,1618.72Z"/><path class="cls-11" d="M2449.35,1636.15a134.51,134.51,0,0,1-20-1.73l.28-1.65c9.66,1.65,35.38,4.16,38.27-3.94,1.28-3.59.08-9.63-1.58-18-3-15.23-7.56-38.25-2.21-70.35,4.19-25.14,1.07-32.75-2.28-34.71-3.5-2-8.22,1.7-8.26,1.74l-1.05-1.3c.23-.19,5.68-4.5,10.15-1.88,5.54,3.24,6.57,15.49,3.08,36.42-5.3,31.81-.78,54.64,2.21,69.75,1.71,8.63,2.94,14.87,1.51,18.89C2467.51,1634.74,2458.41,1636.15,2449.35,1636.15Z"/><polygon class="cls-15" points="1521.7 2512.83 1523.47 2584.89 1486.72 2684.33 1603.76 2687.35 1599.84 2585.41 1600.21 2514.86 1521.7 2512.83"/><polygon class="cls-15" points="1841.14 2508.71 1852.5 2575.92 1850.12 2668.24 2008.87 2689.8 2024.51 2647.28 1927.19 2585.13 1918.81 2515.08 1841.14 2508.71"/><path class="cls-39" d="M1510.08,2621.12s13.48-11.49,40.38-10.8,45.88,18.32,50.84,13.15c0,0,15.32,72.94,9,91s-55,16.77-80.45,16.84-48.36-14.34-51.74-24.61S1506.9,2629.75,1510.08,2621.12Z"/><path class="cls-39" d="M1851.56,2612.27s30.16,15.33,57.78,16,23.36-27,38.65-29.9,102.54,55.37,116.46,79.73-13.18,31.67-59.59,26.1S1900.55,2687,1900.55,2687s-55.71-11.62-63.57-16.91S1851.56,2612.27,1851.56,2612.27Z"/><path class="cls-40" d="M1942.91,2529.5,1816,2526.22l-137.51-836.68-55.66,843.39-138.63-3.57s-21.19-670.75-24-839.6S1493.93,1423,1493.93,1423l216.12.31,131-.36s.07.25.15.67.3,1.1.53,2c3.18,12.61,7.06,35.08,41.63,193.9C1928.36,1826.28,1942.91,2529.5,1942.91,2529.5Z"/><path class="cls-41" d="M1879.15,2527.85l-63.18-1.63-137.51-836.68s11.71-78.28,16.11-96.54,40.85-42.62,40.85-42.62S1790.2,2356.61,1879.15,2527.85Z"/><path class="cls-41" d="M1840.91,1422.92l.8,2.69c-34.51,10.22-232.24,15.92-297.58,214.67-74.85,227.31,35.6,891.54,35.6,891.54l-95.56-2.46s-21.19-670.75-24-839.6S1493.93,1423,1493.93,1423l216.12.31Z"/><path class="cls-42" d="M2184.23,1376.4s-125.74,24.88-218.83,30.34c-46.92,2.74-85.55.55-95.58-12.26l-63-471.1-6.83-51s129,31.06,146.67,243.05c4.84,58.11,24.65,158.73,24.65,158.73l198.84-7.28Z"/><path class="cls-43" d="M1965.4,1406.74c-46.92,2.74-85.55.55-95.58-12.26l-63-471.1c37.92,23.71,106.15,81.89,117.57,198.05C1938,1260.15,1959.45,1376,1965.4,1406.74Z"/><path class="cls-42" d="M1764.6,862s54.87-3.67,105.22,86.42,59.57,621,34,684c-29.29,72.28-87,28.75-87,28.75s-30.63-345-16.45-520.9S1764.6,862,1764.6,862Z"/><path class="cls-44" d="M1782.37,869c30.8,38.53,67.63,107.08,74.2,182.83,6.06,69.89-21.2,484.91-21.2,484.91H1514.75s-30.48-621.37,0-651.85c13.56-13.56,89-29.42,108.64-31.79C1688.22,845.22,1766.8,849.46,1782.37,869Z"/><path class="cls-42" d="M1623.39,853.05s0,53,26.49,172.23,29.15,583,0,636-201.38,26.49-201.38,26.49,17.66-750.83,66.25-802.88c6.6-7.07,12-12,20.57-16.34C1572.39,849.73,1623.39,853.05,1623.39,853.05Z"/><circle class="cls-11" cx="1628.61" cy="1455.73" r="10.26" transform="translate(-552.35 1577.98) rotate(-45)"/><circle class="cls-11" cx="1625.08" cy="1531.18" r="10.26" transform="translate(-238.51 2760.99) rotate(-76.72)"/><path class="cls-43" d="M1493.05,958.36l59.14-76.31s47.16,104.08,32.3,163.11c-7.11,28.27-30.17,126.35-15.68,148.7,13.35,20.58,66-24.53,76.07-14.46,19.32,19.31-158.77,76.23-158.77,76.23Z"/><path class="cls-43" d="M1668.06,1229.29q.48,12.87.88,26a148.71,148.71,0,0,1-60.46,124.2c-52.63,38.76-116.3,79.53-152.36,80.5,2.49-60.44,5.64-127.42,9.5-193.72,63.27-11.06,202.44-37,202.44-37Z"/><path class="cls-45" d="M1869.45,1223l-156-36.56a3.66,3.66,0,0,1-2.17-1.47l-3.66-5.25a3.66,3.66,0,0,1-.53-3l60.17-226.46a3.66,3.66,0,0,1,4.37-2.62l153.88,36.06a28.83,28.83,0,0,1,21.48,34.63l-43,183.22A28.81,28.81,0,0,1,1869.45,1223Z"/><path class="cls-11" d="M1869.12,1218l-154.73-36.27L1709,1174l54.25-228.34,160.9,37.71a25.15,25.15,0,0,1,18.75,30.23l-43.53,185.71A25.14,25.14,0,0,1,1869.12,1218Z"/><path class="cls-46" d="M1867.59,1216.05l-160.91-37.71L1762.77,939l160.91,37.72a25.15,25.15,0,0,1,18.75,30.22l-44.62,190.35A25.14,25.14,0,0,1,1867.59,1216.05Z"/><path class="cls-46" d="M1715.86,1174l53.19-227,154.73,36.26a18.83,18.83,0,0,1,14,22.6l-44.62,190.35a18.81,18.81,0,0,1-22.59,14Z"/><path class="cls-11" d="M1772.8,992.86l4.06-17.33,7.9,1.85a10.6,10.6,0,0,1,3.93,1.73,6.12,6.12,0,0,1,2.14,2.84,6.4,6.4,0,0,1,.13,3.62,6.33,6.33,0,0,1-1.73,3.22,6.23,6.23,0,0,1-3.18,1.58,10.39,10.39,0,0,1-4.29-.19l-5.2-1.22,2.71-1.63L1777.7,994Zm6.33-5-1.66-2.82,4.9,1.15a3.56,3.56,0,0,0,2.46-.12,2.71,2.71,0,0,0,.87-3.71,3.46,3.46,0,0,0-2.14-1.22l-4.91-1.15,2.74-1.74Z"/><path class="cls-11" d="M1788,996.41l11.71-15.53,4.83,1.13,3.61,19.12-5.1-1.19-2.49-16.33,1.93.45L1793,997.58Zm5-2.41,2.1-3.29,8.47,2,.42,3.89Z"/><path class="cls-11" d="M1815.62,1003.26a15.59,15.59,0,0,1-4-1.5,11,11,0,0,1-2.86-2.09l2.46-3.26a11.89,11.89,0,0,0,2.4,1.85,10.3,10.3,0,0,0,2.91,1.2,6.57,6.57,0,0,0,1.69.21,1.89,1.89,0,0,0,1-.29,1.14,1.14,0,0,0,.46-.7,1,1,0,0,0-.33-1,5.35,5.35,0,0,0-1.29-.9c-.55-.3-1.15-.59-1.8-.89a20.78,20.78,0,0,1-2-1.05,8.43,8.43,0,0,1-1.72-1.37,4.52,4.52,0,0,1-1-1.81,4.65,4.65,0,0,1,0-2.43,5.07,5.07,0,0,1,1.5-2.6,5.89,5.89,0,0,1,3-1.43,10.57,10.57,0,0,1,4.44.23,14.41,14.41,0,0,1,3.26,1.17,10,10,0,0,1,2.64,1.83l-2.33,3.27a10.84,10.84,0,0,0-2.21-1.59,9.31,9.31,0,0,0-2.28-.88,5.38,5.38,0,0,0-1.69-.16,2.18,2.18,0,0,0-1,.36,1.21,1.21,0,0,0-.45.68,1.08,1.08,0,0,0,.33,1.06,4.92,4.92,0,0,0,1.28.87c.55.28,1.15.57,1.82.89a21.64,21.64,0,0,1,2,1,8.78,8.78,0,0,1,1.71,1.35,4.37,4.37,0,0,1,1.08,1.79,4.47,4.47,0,0,1,0,2.39,5.07,5.07,0,0,1-1.51,2.59,6.13,6.13,0,0,1-3,1.44A10.86,10.86,0,0,1,1815.62,1003.26Z"/><path class="cls-11" d="M1831.76,1007a15.94,15.94,0,0,1-4-1.49,11,11,0,0,1-2.87-2.1l2.47-3.26a10.9,10.9,0,0,0,2.39,1.85,10.48,10.48,0,0,0,2.92,1.2,6.57,6.57,0,0,0,1.69.21,1.89,1.89,0,0,0,1-.29,1.14,1.14,0,0,0,.46-.7,1,1,0,0,0-.33-1,5.35,5.35,0,0,0-1.29-.9c-.55-.29-1.15-.59-1.8-.89a18.71,18.71,0,0,1-2-1,8.1,8.1,0,0,1-1.72-1.37,4.45,4.45,0,0,1-1-1.81,4.64,4.64,0,0,1,0-2.43,5.13,5.13,0,0,1,1.49-2.6,6,6,0,0,1,3-1.43,10.74,10.74,0,0,1,4.44.23,15.45,15.45,0,0,1,3.26,1.17,10,10,0,0,1,2.64,1.83l-2.33,3.27a10.84,10.84,0,0,0-2.21-1.59,9.27,9.27,0,0,0-2.28-.87,4.85,4.85,0,0,0-1.69-.16,2,2,0,0,0-1,.36,1.18,1.18,0,0,0-.45.68,1.07,1.07,0,0,0,.33,1,5.18,5.18,0,0,0,1.28.88c.55.27,1.15.57,1.82.88a19.48,19.48,0,0,1,2,1.05,8.37,8.37,0,0,1,1.71,1.34,4.44,4.44,0,0,1,1.08,1.79,4.38,4.38,0,0,1,0,2.39,5,5,0,0,1-1.5,2.59,6,6,0,0,1-3,1.44A10.53,10.53,0,0,1,1831.76,1007Z"/><path class="cls-11" d="M1841.91,1009.06l4.06-17.33,7.9,1.85a10.45,10.45,0,0,1,3.93,1.73,6.12,6.12,0,0,1,2.14,2.84,6.94,6.94,0,0,1-1.6,6.83,6.15,6.15,0,0,1-3.18,1.58,10.21,10.21,0,0,1-4.29-.18l-5.2-1.22,2.71-1.64-1.57,6.69Zm6.33-5-1.66-2.81,4.9,1.14a3.56,3.56,0,0,0,2.46-.11,2.72,2.72,0,0,0,.87-3.72,3.51,3.51,0,0,0-2.14-1.22l-4.91-1.14,2.74-1.74Z"/><path class="cls-11" d="M1868.91,1015.75a11.09,11.09,0,0,1-3.67-1.56,9.27,9.27,0,0,1-2.61-2.61,9.1,9.1,0,0,1-1.35-3.35,8.93,8.93,0,0,1,.12-3.77,8.8,8.8,0,0,1,1.56-3.39,9.16,9.16,0,0,1,6.18-3.57,11.63,11.63,0,0,1,7.67,1.8,9.47,9.47,0,0,1,2.61,2.59,8.9,8.9,0,0,1,1.24,7.08,9.22,9.22,0,0,1-1.57,3.46,8.78,8.78,0,0,1-2.69,2.39,9.52,9.52,0,0,1-3.5,1.16A10.9,10.9,0,0,1,1868.91,1015.75Zm.95-4.06a4.86,4.86,0,0,0,1.93.09,4.46,4.46,0,0,0,1.72-.66,4.84,4.84,0,0,0,1.35-1.32,5.73,5.73,0,0,0,.84-2,5.58,5.58,0,0,0,.12-2.13,4.9,4.9,0,0,0-.63-1.79,4.34,4.34,0,0,0-1.25-1.35,5.11,5.11,0,0,0-1.76-.78,5,5,0,0,0-1.92-.08,4.32,4.32,0,0,0-1.74.65,4.5,4.5,0,0,0-1.35,1.33,5.83,5.83,0,0,0-.83,2,6,6,0,0,0-.13,2.12,4.56,4.56,0,0,0,.63,1.79,4.28,4.28,0,0,0,1.26,1.35A4.76,4.76,0,0,0,1869.86,1011.69Z"/><path class="cls-11" d="M1881.34,1018.3l4.06-17.33,7.9,1.85a10.45,10.45,0,0,1,3.93,1.74,6,6,0,0,1,2.14,2.83,6.35,6.35,0,0,1,.13,3.63,6.19,6.19,0,0,1-1.73,3.19,6.09,6.09,0,0,1-3.17,1.55,10.55,10.55,0,0,1-4.28-.21l-5.2-1.22,2.69-1.56-1.57,6.68Zm6.34-5-1.67-2.8,4.9,1.15a3.5,3.5,0,0,0,2.46-.13,2.43,2.43,0,0,0,1.21-1.7,2.39,2.39,0,0,0-.34-2,3.43,3.43,0,0,0-2.14-1.22l-4.9-1.15,2.73-1.74Zm4.36,7.47-2.83-7.32,5.22,1.22,2.85,7.33Z"/><path class="cls-11" d="M1903.2,1023.42l3.15-13.44-5.32-1.24.91-3.89,15.52,3.64-.91,3.88-5.3-1.24-3.15,13.44Z"/><path class="cls-11" d="M1821.38,1113.21a14,14,0,0,1-3.22-.37c-12.59-2.95-18.62-23.32-13.44-45.42,2.48-10.57,7.12-20,13-26.53,6.13-6.74,12.94-9.65,19.18-8.18s11,7.09,13.54,15.85c2.41,8.49,2.38,19-.1,29.57s-7.11,20-13.05,26.53C1832.25,1110.26,1826.69,1113.21,1821.38,1113.21Zm12.37-78.26c-4.57,0-9.47,2.66-14,7.7-5.64,6.21-10.06,15.22-12.44,25.37-4.85,20.69.31,39.65,11.49,42.28,5.28,1.23,11.19-1.39,16.64-7.4,5.64-6.21,10.06-15.22,12.44-25.37s2.43-20.19.13-28.26c-2.22-7.8-6.34-12.78-11.62-14A11.33,11.33,0,0,0,1833.75,1035Z"/><path class="cls-11" d="M1845.89,1110.12l-.9-.72c-6-4.89-14.38-8.76-23.47-10.89s-18.26-2.37-25.86-.68l-1.13.26-.67-.94A41.57,41.57,0,0,1,1808.2,1036l1-.53.9.72c6.05,4.89,14.39,8.76,23.47,10.89s18.26,2.37,25.86.67l1.13-.25.68.94a41.61,41.61,0,0,1,6.8,33.87l-1.71-.4,1.71.4a41.63,41.63,0,0,1-21.14,27.32Zm-39.42-16.91a70.16,70.16,0,0,1,15.86,1.88,64,64,0,0,1,23.94,10.85,38.06,38.06,0,0,0,12.79-54.56,67.78,67.78,0,0,1-50.22-11.77,38.06,38.06,0,0,0-12.79,54.56A54.47,54.47,0,0,1,1806.47,1093.21Z"/><path class="cls-11" d="M1858.77,1050.2a38.47,38.47,0,0,0-49.15-11.52l-1.22-2.32a41.12,41.12,0,0,1,52.49,12.3Z"/><path class="cls-11" d="M1848.64,1051.89a69.2,69.2,0,0,1-15.75-1.87c-9.52-2.23-18.29-6.31-24.7-11.48l-1.55-1.25,1.76-.93a41.12,41.12,0,0,1,52.49,12.3l1.17,1.61-1.94.44A53.29,53.29,0,0,1,1848.64,1051.89Zm-37.16-14.13a65.29,65.29,0,0,0,46,10.79,38.49,38.49,0,0,0-46-10.79Z"/><path class="cls-11" d="M1827.54,1113.93a41.15,41.15,0,0,1-33.32-17l2.12-1.54a38.47,38.47,0,0,0,49.15,11.52l1.22,2.32A41.2,41.2,0,0,1,1827.54,1113.93Z"/><path class="cls-11" d="M1827.54,1113.93a41.15,41.15,0,0,1-33.32-17l-1.17-1.61,1.94-.44c8-1.79,17.71-1.54,27.23.69s18.3,6.31,24.7,11.48l1.55,1.25-1.76.93A41.2,41.2,0,0,1,1827.54,1113.93ZM1797.6,1097a38.47,38.47,0,0,0,46,10.79,65.11,65.11,0,0,0-46-10.79Z"/><rect class="cls-11" x="1787.71" y="1071.02" width="79.69" height="3.51" transform="translate(366.07 2607.33) rotate(-76.81)"/><rect class="cls-11" x="1825.8" y="1032.93" width="3.51" height="79.69" transform="translate(366.05 2607.31) rotate(-76.81)"/><rect class="cls-11" x="1760.42" y="1129.82" width="101.76" height="9.4" transform="translate(306.68 -383.4) rotate(13.19)"/><path class="cls-15" d="M1825.16,1156.15c-2.39,7.49-30.81,27.85-47.36,37.4l-.07,0a57.17,57.17,0,0,1-9.44,4.68,9,9,0,0,1-2.14.51c-7.45,3.17-16.25,13.32-27.7,17.35s-26.69,6.8-38.59,9.27l-26.52-78.74c3.45-14,11.86-36,17.6-55.2,7.53-25.29,9.19-27,16.73-24,4.85,2,2.14,28.79-2.14,53.61,20.66-13.24,47.73-24.9,47.73-24.9l.12.36c5.27-3.32,43.83-27.1,54.63-23.64,9.36,3-27.27,30.17-49.58,43.59l1,4c11.51-7.44,59.58-37.62,70.8-33.48,11.48,4.31-42.58,43.53-65.19,55.67l1.93,7.84c7.19-4.61,57.29-36.68,68.51-32.54s-42.82,43.06-63.21,53.44l1.13,4.65c13.29-8,43-25.29,50.73-22.35A1.8,1.8,0,0,1,1825.16,1156.15Z"/><path class="cls-42" d="M1537.09,867.63s21.32,3.5,35.07,72.86c17.1,86.33-65.36,238.48-45.93,284.41s144.53-86.56,144.53-86.56l8.81,24.59,30.21,89.83s-178.25,175.29-261.28,159.39S1434.42,886.46,1537.09,867.63Z"/><path class="cls-47" d="M1705.05,556c1.39-5.48,3.52-10.88,6.81-14.86,0,0-28.48,8.92-31.58,31.17,0,0-38.85.57-53,28,0,0,7-4.47,19.28-5.3-18.81,11.32-30,37.79-17.94,80.69.29,49.81,7.16,66.74,41.27,103.21l114.56-48.77c24.3-10.13,44.93-28,54.36-60.23,0,0,21.52-21.37,25.59-57.49C1801.46,603.91,1759.54,528.81,1705.05,556Z"/><path class="cls-15" d="M1655.11,773.66c.38,23.55,0,84.2-.55,88.7-.78,6.54,20.29,36,63.89,36.32,42.78.33,39.21-19,39.21-19l.07-2.65,1.8-55.67-.91-43.77-103.81-22.15S1654.94,763,1655.11,773.66Z"/><path class="cls-16" d="M1668.21,756.81s.14,7.55.31,18.18c13.69,53.91,50.48,99.87,89.21,102.07l1.8-55.67-.91-43.77Z"/><path class="cls-15" d="M1645.17,753.93c6.37,1.5,12.91,10.85,16.81,21.5a58.92,58.92,0,0,0,28.65,32.2c1.42.72,2.92,1.44,4.5,2.18,28.6,13.35,71.12,11.43,71.12,11.43v0c.71,0,42.71-1.65,49.16-36.18.88-4.72,1.67-12.11,2.33-20.69.44-5.93.87-12.42,1.26-19,1.28-23,2.08-47.19,2.48-52.34.42-5.47.69-10.07.91-13.81.38-7.47,1-18.42,1-18.42s-4.11-6.34-57.25-15.26c-30.51-5.12-56.52,5.11-56.52,5.11s-22,77.47-31,77.41c-.2-.06-.46-.08-.66-.14s-.61-.24-.86-.36l-.54-.34c-8.52-5.27-13.39-29.87-13.39-29.87s-29.82-28.93-40.23,3.45C1613.39,730.73,1631.36,750.66,1645.17,753.93Z"/><path class="cls-48" d="M1758.94,797.94c17.64,3.59,38.76-22.51,25.93-25l-49.26-3.54a3.46,3.46,0,0,0-3.85,3.62C1733.05,786.1,1744.46,796.9,1758.94,797.94Z"/><path class="cls-11" d="M1734.41,769.51c9.39,11.43,36.27,12.29,50.46,3.44C1783.69,773,1735.46,769.05,1734.41,769.51Z"/><path class="cls-17" d="M1737.1,722.1c-.38,6.66-4.49,11.84-9.16,11.57s-8.14-5.89-7.75-12.55,4.49-11.84,9.16-11.57S1737.49,715.44,1737.1,722.1Z"/><path class="cls-11" d="M1737.7,719.65c-.19,3.36-2.35,6-4.81,5.82s-4.29-3-4.09-6.34,2.34-6,4.8-5.81S1737.9,716.3,1737.7,719.65Z"/><path class="cls-17" d="M1803.29,726c-.39,6.66-4.49,11.83-9.16,11.56s-8.15-5.89-7.76-12.55,4.49-11.84,9.16-11.57S1803.68,719.3,1803.29,726Z"/><path class="cls-11" d="M1803.88,723.51c-.19,3.35-2.34,6-4.8,5.81s-4.3-3-4.1-6.33,2.35-6,4.81-5.81S1804.08,720.15,1803.88,723.51Z"/><path class="cls-18" d="M1711.16,706.94a3.25,3.25,0,0,1-2.64-5.14c8.82-12.32,21.42-10.93,26.86-8.48a3.25,3.25,0,0,1-2.66,5.93c-.49-.21-11.07-4.63-18.92,6.33A3.23,3.23,0,0,1,1711.16,706.94Z"/><path class="cls-18" d="M1764.7,755.11a2.56,2.56,0,0,1-.68-5s5-1.49,6.06-5.49c.78-2.94-2.53-9-5.13-12.27a2.56,2.56,0,1,1,4-3.16c.8,1,7.8,10.18,6,16.75-1.83,6.86-9.31,9-9.63,9.1A2.35,2.35,0,0,1,1764.7,755.11Z"/><path class="cls-18" d="M1807.56,701.69a3.24,3.24,0,0,1-2.16-.82c-7.42-6.59-17.7-2.67-18.13-2.5a3.25,3.25,0,0,1-2.41-6c.58-.24,14.4-5.61,24.86,3.67a3.25,3.25,0,0,1-2.16,5.68Z"/><ellipse class="cls-16" cx="1712.67" cy="748.71" rx="9.79" ry="18.47" transform="translate(865.64 2414.95) rotate(-86.67)"/><path class="cls-16" d="M1795.73,753.56c-.31,5.37,7.72,10.25,17.89,10.85a37.45,37.45,0,0,0,4.11,0c.45-5.93.87-12.42,1.26-19a36,36,0,0,0-4.23-.51C1804.58,744.28,1796.05,748.14,1795.73,753.56Z"/><path class="cls-16" d="M1652.08,739.86a2.38,2.38,0,0,1-.73-.15,2.56,2.56,0,0,1-1.52-3.29c.31-.84,7.38-20.77-8.7-27.44a2.56,2.56,0,0,1,2-4.74c16.51,6.86,14.77,25.21,11.54,34A2.54,2.54,0,0,1,1652.08,739.86Z"/><path class="cls-16" d="M1654.27,728.59a2.5,2.5,0,0,1-1.65-.73c-8.11-8-13.21-3.57-13.75-3.05a2.58,2.58,0,0,1-3.61,0,2.55,2.55,0,0,1,0-3.59c.09-.09,9-8.73,21,3a2.55,2.55,0,0,1,0,3.62A2.5,2.5,0,0,1,1654.27,728.59Z"/><path class="cls-49" d="M1770.2,581.07s21,9.46,13.56,28.37-48.47-.61-48.47-.61,2.2,16.62-14.67,17.86-19.08-15.38-19.08-15.38,8.57,10.64,17.72,6.1,9.46-21,9.46-21,38.75,20.65,44.87,8S1770.2,581.07,1770.2,581.07Z"/><path class="cls-15" d="M2319.46,1312.86c-3.54,7-34.81,22.65-52.66,29.48l-.06,0a57.66,57.66,0,0,1-10.06,3.14,8.47,8.47,0,0,1-2.2.16c-7.85,2-18.13,10.6-30.08,12.78s-29.35,6.26-41.49,6.82L2171,1279.52c5.6-13.26,17.37-33.69,26.07-51.74,11.42-23.79,13.32-25.2,20.3-21.08,4.49,2.69-2.41,28.76-10.56,52.6,22.49-9.82,51.06-17.08,51.06-17.08l.06.38c5.73-2.45,47.55-19.86,57.67-14.75,8.78,4.43-31.68,25.5-55.82,35.24l.32,4.06c12.53-5.53,64.76-27.77,75.18-21.91,10.66,6.06-48.9,36.28-73.14,44.71l.68,8c7.82-3.42,62.35-27.21,72.77-21.35s-49.06,35.78-70.83,42.82l.39,4.77c14.39-5.86,46.46-18.21,53.61-14.09C2319.91,1310.8,2320,1311.71,2319.46,1312.86Z"/><path class="cls-50" d="M2223.89,1221.45l6,131.09,181.26-8.29a10.28,10.28,0,0,0,9.8-10.74L2415.89,1223a10.28,10.28,0,0,0-10.74-9.79Z"/><path class="cls-50" d="M2503.54,1208.65l-73.25,3.36c-8.21.37-14.66,5.27-14.4,10.94l5.06,110.56c.26,5.67,7.12,10,15.34,9.59l73.25-3.36Z"/><path class="cls-51" d="M2228.34,1318.63l1.55,33.91,181.26-8.29a10.28,10.28,0,0,0,9.8-10.74l-1.08-23.65Z"/><path class="cls-51" d="M2417.06,1248.51l-1.17-25.56a10.28,10.28,0,0,0-10.74-9.79l-181.26,8.29,1.64,35.82Z"/><rect class="cls-52" x="2235.51" y="1228.66" width="94.25" height="7.03" transform="translate(-53.94 105.64) rotate(-2.62)"/><polygon class="cls-52" points="2285.71 1248.04 2236.28 1249.95 2235.95 1242.93 2285.39 1241.02 2285.71 1248.04"/><rect class="cls-52" x="2442.81" y="1309.2" width="47.9" height="6.89" transform="translate(-57.42 114.12) rotate(-2.62)"/><rect class="cls-52" x="2442.43" y="1301.5" width="47.9" height="5.3" transform="translate(-57.05 114.13) rotate(-2.62)"/><rect class="cls-52" x="2442.07" y="1293.79" width="47.9" height="5.31" transform="matrix(1, -0.05, 0.05, 1, -56.69, 114.1)"/><rect class="cls-52" x="2439.69" y="1241.67" width="47.9" height="5.3" transform="translate(-54.29 113.89) rotate(-2.62)"/><rect class="cls-52" x="2439.43" y="1236.96" width="47.9" height="3.31" transform="translate(-54.05 113.92) rotate(-2.62)"/><rect class="cls-52" x="2439.21" y="1232.25" width="47.9" height="3.31" transform="translate(-53.83 113.88) rotate(-2.62)"/><rect class="cls-52" x="2441.62" y="1281.69" width="47.9" height="9.71" transform="translate(-56.25 114.09) rotate(-2.62)"/><rect class="cls-52" x="2441.11" y="1270.59" width="47.9" height="9.7" transform="translate(-55.74 114.04) rotate(-2.62)"/><rect class="cls-52" x="2440.6" y="1259.48" width="47.9" height="9.7" transform="translate(-55.21 113.96) rotate(-2.62)"/><rect class="cls-52" x="2440.1" y="1248.38" width="47.9" height="9.7" transform="translate(-54.7 113.92) rotate(-2.62)"/><path class="cls-53" d="M2380.19,1310.71l-.81-34.31-12.55,6.86a2.08,2.08,0,0,0-1.08,2.1l4.2,34.23,8.41-5.55A4,4,0,0,0,2380.19,1310.71Z"/><path class="cls-53" d="M2344.2,1305.68l2-11-5.25,3.07a1.05,1.05,0,0,0-.55.75l-.71,10.8,3.59-2.36A2.12,2.12,0,0,0,2344.2,1305.68Z"/><path class="cls-53" d="M2339.47,1248.91l31.2,14.28-11.25,8.83a2.08,2.08,0,0,1-2.35.16l-29.81-17.36,8.42-5.54A4.08,4.08,0,0,1,2339.47,1248.91Z"/><path class="cls-53" d="M2329.89,1284l10.94,2.52-4.88,3.61a1,1,0,0,1-.91.21l-10.2-3.61,3.58-2.36A2.14,2.14,0,0,1,2329.89,1284Z"/><path class="cls-53" d="M2371.49,1263.56l-32.79,25.93c-1.47,1.17-5.63,5.78-4.6,7.35s6.91-.44,8.56-1.33l36.77-19.91c3.73-2,17.16-14.86,14.82-18.4S2374.82,1260.93,2371.49,1263.56Z"/><path class="cls-53" d="M2327.91,1259.74l-22.07,14.55a1.09,1.09,0,0,1-1.51-.31h0a1.11,1.11,0,0,1,.31-1.51l22.07-14.54a1.09,1.09,0,0,1,1.51.31h0A1.09,1.09,0,0,1,2327.91,1259.74Z"/><path class="cls-53" d="M2334.45,1265l-22.07,14.54a1.09,1.09,0,0,1-1.51-.31h0a1.11,1.11,0,0,1,.31-1.51l22.07-14.54a1.09,1.09,0,0,1,1.51.31h0A1.1,1.1,0,0,1,2334.45,1265Z"/><path class="cls-53" d="M2365.93,1317.44,2343.86,1332a1.08,1.08,0,0,0-.31,1.5h0a1.09,1.09,0,0,0,1.51.31l22.06-14.54a1.09,1.09,0,0,0,.31-1.51h0A1.08,1.08,0,0,0,2365.93,1317.44Z"/><path class="cls-53" d="M2363.66,1309.35l-22.07,14.54a1.09,1.09,0,0,0-.31,1.51h0a1.08,1.08,0,0,0,1.5.31l22.07-14.54a1.09,1.09,0,0,0,.31-1.51h0A1.08,1.08,0,0,0,2363.66,1309.35Z"/><path class="cls-11" d="M3069.34,803.25v-66h31.79a39,39,0,0,1,16,3,22.78,22.78,0,0,1,14.1,21.89,22.28,22.28,0,0,1-14.1,21.6,40,40,0,0,1-16,2.92H3081.7l9.91-9.15v25.76Zm22.27-23.3-9.91-10.1h18q4.62,0,6.84-2.07a8.33,8.33,0,0,0,0-11.32q-2.22-2.09-6.84-2.08h-18l9.91-10.09Zm17.26,23.3-16.23-24.06h23.59l16.41,24.06Z"/><path class="cls-11" d="M3161.51,786.46h33v16.79h-54.91v-66h53.68V754h-31.79ZM3160,761.74h29.44v16H3160Z"/><path class="cls-11" d="M3237.26,804.76a42,42,0,0,1-14.66-2.5,34.4,34.4,0,0,1-11.7-7.13,32.29,32.29,0,0,1-7.69-10.94,36.93,36.93,0,0,1,0-27.92,32.42,32.42,0,0,1,7.69-10.95,34.53,34.53,0,0,1,11.7-7.12,42,42,0,0,1,14.66-2.5,41.25,41.25,0,0,1,17.22,3.4,31.89,31.89,0,0,1,12.41,9.81l-14.06,12.55a22.64,22.64,0,0,0-6.46-5.71,15.77,15.77,0,0,0-8-2,16.94,16.94,0,0,0-6.32,1.13,13.45,13.45,0,0,0-4.86,3.3,15.24,15.24,0,0,0-3.16,5.24,21.27,21.27,0,0,0,0,13.68,15.1,15.1,0,0,0,3.16,5.23,13.35,13.35,0,0,0,4.86,3.31,16.94,16.94,0,0,0,6.32,1.13,15.77,15.77,0,0,0,8-2,22.64,22.64,0,0,0,6.46-5.71l14.06,12.55a32.7,32.7,0,0,1-12.41,9.76A40.79,40.79,0,0,1,3237.26,804.76Z"/><path class="cls-11" d="M3295.19,786.46h33v16.79H3273.3v-66H3327V754h-31.79Zm-1.51-24.72h29.43v16h-29.43Z"/><path class="cls-11" d="M3336.79,803.25v-66h31.79a38.9,38.9,0,0,1,16,3,22.77,22.77,0,0,1,14.11,21.89,23.41,23.41,0,0,1-3.68,13.2,24.1,24.1,0,0,1-10.43,8.64,38.4,38.4,0,0,1-16,3.06h-19.43l9.9-9.53v25.76Zm22.26-23.3-9.9-10.1h18q4.62,0,6.84-2.07a8.35,8.35,0,0,0,0-11.32q-2.22-2.09-6.84-2.08h-18l9.9-10.09Z"/><path class="cls-11" d="M3418.87,803.25V754.47h-19.34V737.21h60.94v17.26h-19.34v48.78Z"/><path class="cls-11" d="M3466.22,803.25v-66h22.27v66Z"/><path class="cls-11" d="M3533.86,804.76a42.24,42.24,0,0,1-14.86-2.55,35,35,0,0,1-11.84-7.22,33.17,33.17,0,0,1-7.78-11,35.62,35.62,0,0,1,0-27.59,33.38,33.38,0,0,1,7.78-10.94,35,35,0,0,1,11.84-7.22,44.72,44.72,0,0,1,29.77,0,35,35,0,0,1,11.79,7.22,33.24,33.24,0,0,1,7.78,10.94,35.5,35.5,0,0,1,0,27.59,33,33,0,0,1-7.78,11,35,35,0,0,1-11.79,7.22A42.12,42.12,0,0,1,3533.86,804.76Zm0-18a14.85,14.85,0,0,0,5.8-1.13,13.88,13.88,0,0,0,4.72-3.26,14.71,14.71,0,0,0,3.16-5.19,21.81,21.81,0,0,0,0-13.86,14.71,14.71,0,0,0-3.16-5.19,13.88,13.88,0,0,0-4.72-3.26,15.45,15.45,0,0,0-11.6,0,14.08,14.08,0,0,0-4.72,3.26,14.85,14.85,0,0,0-3.16,5.19,21.81,21.81,0,0,0,0,13.86,14.85,14.85,0,0,0,3.16,5.19,14.08,14.08,0,0,0,4.72,3.26A14.88,14.88,0,0,0,3533.86,786.74Z"/><path class="cls-11" d="M3579.24,803.25v-66h18.3l33.58,40.19h-8.49V737.21h21.7v66H3626l-33.58-40.19h8.49v40.19Z"/><rect class="cls-40" x="1992.13" y="512.76" width="372.23" height="224.47" rx="43.03"/><path class="cls-40" d="M2047.36,723.63l39.31,78.26a10.29,10.29,0,0,0,18.5-.23l36.62-77.58Z"/><circle class="cls-11" cx="2080.49" cy="624.45" r="17.87"/><circle class="cls-11" cx="2175.9" cy="624.45" r="17.87"/><path class="cls-11" d="M2289.19,624.45a17.88,17.88,0,1,1-17.88-17.88A17.88,17.88,0,0,1,2289.19,624.45Z"/><path class="cls-54" d="M3358.8,1214.5a140.37,140.37,0,1,1-167.08,107.21c.53-2.44,1.13-4.85,1.78-7.23l-46.08-68.31,73.3,16A140.33,140.33,0,0,1,3358.8,1214.5Z"/><polygon class="cls-11" points="3437.26 1316.58 3318.25 1435.59 3235.64 1352.99 3261.86 1326.78 3318.25 1383.17 3411.05 1290.37 3437.26 1316.58"/><polygon class="cls-25" points="3559.33 635.7 3113.45 635.7 3086.29 395.71 3567.55 395.71 3559.33 635.7"/><path class="cls-7" d="M3138.17,509.15l-10-90.54h93.23l-.74,90.54Zm2.51,22.65,9,81h70.17l.66-81Z"/><polygon class="cls-11" points="3502.78 452.04 3262.28 450.78 3258.22 425.91 3507.55 424.64 3502.78 452.04"/><polygon class="cls-11" points="3477.04 476.97 3265.84 476.97 3263.68 463.88 3479.2 463.88 3477.04 476.97"/><polygon class="cls-11" points="3502.78 560.73 3262.28 559.46 3258.22 534.59 3507.55 533.33 3502.78 560.73"/><polygon class="cls-11" points="3450.85 611.27 3270.81 611.27 3268.65 598.19 3453.01 598.19 3450.85 611.27"/><polygon class="cls-8" points="3198.77 460.5 3177.18 437.83 3171.94 432.32 3167.68 438.47 3150.88 462.71 3157.24 467.95 3167.51 457.38 3173.28 498.22 3182.54 498.22 3179.89 456.93 3192.5 467.26 3198.77 460.5"/><polygon class="cls-8" points="3187.07 596.35 3207.79 575.26 3212.83 570.13 3207.45 565.74 3186.25 548.42 3181.43 554.68 3190.6 565.16 3153.65 566.24 3154.27 575.52 3190.7 577.56 3181.2 589.93 3187.07 596.35"/><path class="cls-32" d="M889.73,2436.48c6.08,23.16,11.72,46.13,21.93,67.79,1.11.74,3,4.63,1.86,3.92,1.69,3.46-3.82,5.59-5.61,2.24-1.11-2.22-2.22-4.44-3.24-6.62-20.08-8.61-42.72-8.8-63.87-14.33-17.1-4.47-32-12.71-44.38-25.52-33.34-34.37-45.14-83.28-80.82-116.28-30.76-28.45-68.81-47.19-104.16-69-37.34-23.09-70.46-50.6-92.71-89-17.09-29.41-34.74-71.32-23.81-105.94,11.57-36.73,51.11-34.79,81-23.36,86.58,33.2,152.9,98,205.31,172.49,29,41.22,58.33,82.59,80.66,127.88A406.5,406.5,0,0,1,889.73,2436.48Z"/><path class="cls-33" d="M920.5,2520.36q8,17.94,15.78,36.22l-7.76,1.3q-6-14.39-12.49-28.61-5.94-13-12.2-25.81-9-18.45-18.71-36.53c-35.29-16.66-68.54-43.69-96.68-70.24-.72-.68.17-1.87.95-1.23,29.43,24.31,60.75,43.81,92.14,64.91a792.72,792.72,0,0,0-52.16-83.23c-14-19.37-28.93-38.1-44.61-56.16-54.26-36-118.76-53.58-172-91-.27-.19,0-.67.3-.51,53.44,30.68,113.44,49.37,164.77,83.58a787.67,787.67,0,0,0-186.68-154c-1.29-.76,0-3,1.32-2.25,94.74,53.29,177.79,124.95,241.94,212.89l0,0c-2.9-6.47-5.65-13-8.62-19.43q-13.68-29.45-30-57.56a803.83,803.83,0,0,0-68.19-100.09c-.31-.38.28-.82.59-.46,27.1,31.61,51.63,64.81,72.6,100.83,19.29,33.15,34.48,68.27,51.75,102.45.11.21,0,.38,0,.57a826.67,826.67,0,0,1,51.09,88.83Q912.48,2502.43,920.5,2520.36Z"/><path class="cls-33" d="M638.94,2129.88c-.38-.31-.82.27-.47.59,24.62,22.29,45.09,47.26,67.31,71.71a1.18,1.18,0,0,0,1.88-1.43C689.5,2173.62,664.07,2150.43,638.94,2129.88Z"/><path class="cls-33" d="M989.32,2396.41c-4.42,38.7-15.78,76.07-18.21,115.07a383.58,383.58,0,0,0-.42,39.69l-8.94,1.36-5.71.88c.47,1.76,1,3.53,1.43,5.29q-1.34-2.55-2.65-5.1l-2.25.36q-7.08,1.11-13.92,2.23c-27.06-57.41-48.16-117.47-59.56-180.23a946.39,946.39,0,0,1-13.85-121.43c-1.71-35.36.45-71.37,12.59-104.92,7.91-21.7,27.06-65,55.91-62.79,13.86,1.1,18.61,11.9,19.93,24.24,2.13,19.63,2.42,39.58,2.06,59.32-.65,42.16-3.52,82,13.25,121.79,7.48,17.76,16,35.1,19.49,54.18C991.51,2362.86,991.19,2379.78,989.32,2396.41Z"/><path class="cls-32" d="M917.26,2463.94c9.64,31.33,22.65,60.71,37.56,89.66l-2.25.36c-16.67-27.69-28.56-58.43-36.47-89.63C915.91,2463.57,917,2463.18,917.26,2463.94Z"/><path class="cls-32" d="M970.69,2339.13c0,27.35-2.7,54.46-7,81.45-2.3,14.5-4.92,29-7.53,43.39-2.38,13.17-6.92,28.17-6.09,41.92q5.79,23.33,11.69,46.64l-5.71.88c-13.55-50-26.21-100.27-37.17-150.87-2.68-12.38-5.11-24.79-7.19-37.23a.31.31,0,0,1-.15-.15c-17.42-40.1-27.82-85.78-31.65-129.26,0-.4.54-.41.61,0,6.91,42.75,17.54,83.15,30.36,124.3a513.43,513.43,0,0,1-6.35-62.35c-1.36-37.52,1.1-75.06,3.29-112.5.07-1.21,2-1.33,1.91-.1-1.87,47-3,94.09,2.28,140.89,5.35,47.89,17.27,94.77,28.61,141.51,2.35,9.71,4.81,19.41,7.2,29.11.64-7,2.24-14.1,3.37-20.95,2.41-14.49,5-28.94,7.4-43.43,5.17-30.85,9.94-61.88,11.23-93.17C969.82,2338.6,970.69,2338.54,970.69,2339.13Z"/><path class="cls-32" d="M954.78,2302.49a480.9,480.9,0,0,0-7.26,98.19c0,.42.71.5.75.06,2.62-32.71,4.89-65.46,7.47-98.17C955.78,2302,954.87,2302,954.78,2302.49Z"/><path class="cls-33" d="M910.89,2561q-7.3,1.32-14.29,2.65-5.28,1-10.37,2-14.46,2.89-27.45,5.83c-46.37-15.22-100.76-13.75-147.87-18.13-30.24-2.8-72.16-6.9-84.57-40.19-5.66-15.06-1.51-31.65-6-47-7-24.24-30.68-39.68-50.89-52.26-24.7-15.3-58.6-35.13-61.88-67.61-3.35-33.41,37.11-26.85,57.65-22.16,71.28,16.29,135.75,53.71,197.52,91.68l7.73,4.75c34.14,21,66.16,44,93.24,73.41q4.5,4.84,8.79,9.94A320.11,320.11,0,0,1,910.89,2561Z"/><path class="cls-32" d="M896.6,2563.63q-5.28,1-10.37,2c-1.32-1.52-2.66-3-4-4.53s-2.71-2.95-4.06-4.44c-60.42-30-131-21.26-193.17-47.19-.6-.25-.34-1.22.3-1,58.39,20.46,129.29,11.68,185.07,39.71C814.89,2489.33,750.69,2444,674,2415.67a1.64,1.64,0,0,1,1-3.14c53.22,15.17,100.32,40.92,142.15,73.76-24.83-26.12-52.2-48.77-81.58-70.14-1.1-.81-.06-2.57,1.14-1.83a339.73,339.73,0,0,1,48.55,36.59c8.92,8,17.48,16.45,25.65,25.2,5.47,5.84,10.77,11.83,15.89,17.91A557.43,557.43,0,0,1,896.6,2563.63Z"/><path class="cls-32" d="M658.4,2478.58c29,7.53,57.81,15.63,86.78,23.13a.27.27,0,0,1-.09.53c-28.85-3.1-60.47-10.64-87.23-21.88A.93.93,0,0,1,658.4,2478.58Z"/><path class="cls-32" d="M614.26,2402.83c32.72,19,65.36,35.7,100.76,49.21a.39.39,0,0,1-.23.75c-35.72-10.22-71.34-26.62-101.25-48.79A.69.69,0,0,1,614.26,2402.83Z"/><g id="_6" data-name="6"><path class="cls-55" d="M2403.07,2417.17c-68.35,0-124-55.74-124-124.24s55.6-124.23,124-124.23S2527,2224.43,2527,2292.93,2471.42,2417.17,2403.07,2417.17Zm0-220.9c-53.14,0-96.37,43.36-96.37,96.66s43.23,96.66,96.37,96.66,96.37-43.36,96.37-96.66S2456.21,2196.27,2403.07,2196.27Z"/><path class="cls-8" d="M2665.42,2446.75V2579.8c0,24.76-22,46.76-46.76,46.76l-433.13.69c-24.76,0-44.8-22.69-44.8-47.45V2446.75a153.82,153.82,0,0,1,153.82-153.82h217a153.77,153.77,0,0,1,153.83,153.82Z"/><path class="cls-55" d="M2665.42,2446.44V2579.5c0,24.75-22,46.75-46.76,46.75l-433.13.69c-24.76,0-44.8-22.69-44.8-47.44v-27.12c86,37.66,286.74,18.16,406.51-4.25,94.45-17.67,100.16-118.3,92.91-186.19A153.12,153.12,0,0,1,2665.42,2446.44Z"/><rect class="cls-55" x="2306.9" y="2292.93" width="61.79" height="206.54"/><rect class="cls-55" x="2438.07" y="2292.93" width="61.79" height="206.54"/></g><rect class="cls-56" x="1005.45" y="2541.9" width="37.91" height="50.54" rx="12.32"/><rect class="cls-56" x="1306.8" y="2541.9" width="37.91" height="50.54" rx="12.32"/><rect class="cls-41" x="972.16" y="2519.41" width="61.26" height="46.21"/><path class="cls-57" d="M1092.16,1528.91c0-5.46,4.06-9.91,9.06-9.91h155.67c5,0,9.07,4.45,9.07,9.91v274.83h27.58V1528.91c0-22.08-16.44-40-36.65-40H1101.22c-20.2,0-36.65,18-36.65,40v274.83h27.59Z"/><path class="cls-58" d="M1378.92,2567.71l-372.54-20.9c-19.91,0-36-16.95-36-37.86L935,1846.22c-1.11-46.35,51.46-53.67,71.37-53.67h405.39c19.92,0,36.06,17,36.06,37.85V2509C1448,2544.13,1413.38,2567.1,1378.92,2567.71Z"/><rect class="cls-57" x="934.89" y="1813.37" width="477.5" height="754.26" rx="44.47"/><path class="cls-59" d="M1323.8,2180.4v387.23H1027.62V2180.4a136.18,136.18,0,0,1,136.19-136.19h23.8A136.06,136.06,0,0,1,1323.8,2180.4Z"/><path class="cls-58" d="M1185.71,1764.09c37.51,0,69.3,16.64,70.59,36.62h30.1c-1.12-32.89-45.76-59.35-100.69-59.35s-99.58,26.46-100.7,59.35h30.1C1116.41,1780.73,1148.2,1764.09,1185.71,1764.09Z"/><rect class="cls-58" x="1100.26" y="1482.8" width="159.43" height="38.45" rx="16.46"/><rect class="cls-21" x="1265.76" y="1622.19" width="152.7" height="60.73"/><path class="cls-58" d="M1323.8,2180.4v387.23H1027.62V2506.1c116.47,30.69,234.1-90.56,236.58-250.56,1.83-117.71-22.26-178.67-38.06-205.8A136.23,136.23,0,0,1,1323.8,2180.4Z"/><path class="cls-59" d="M995,1983.38h0a13,13,0,0,1-13-13V1868.57a13,13,0,0,1,13-13h0a13,13,0,0,1,13,13v101.86A13,13,0,0,1,995,1983.38Z"/><path class="cls-59" d="M1063.26,1983.38h0a13,13,0,0,1-13-13V1868.57a13,13,0,0,1,13-13h0a13,13,0,0,1,13,13v101.86A13,13,0,0,1,1063.26,1983.38Z"/><path class="cls-59" d="M1131.49,1983.38h0a13,13,0,0,1-13-13V1868.57a13,13,0,0,1,13-13h0a13,13,0,0,1,13,13v101.86A13,13,0,0,1,1131.49,1983.38Z"/><path class="cls-59" d="M1199.72,1983.38h0a13,13,0,0,1-13-13V1868.57a13,13,0,0,1,13-13h0a13,13,0,0,1,13,13v101.86A13,13,0,0,1,1199.72,1983.38Z"/><rect class="cls-59" x="1255" y="1855.62" width="25.91" height="127.76" rx="12.95"/><path class="cls-59" d="M1336.18,1983.38h0a13,13,0,0,1-13-13V1868.57a13,13,0,0,1,13-13h0a13,13,0,0,1,13,13v101.86A13,13,0,0,1,1336.18,1983.38Z"/></g></g></svg>