<svg xmlns="http://www.w3.org/2000/svg" viewBox="0 0 4680 3120"><defs><style>.cls-1{isolation:isolate;}.cls-13,.cls-2{fill:#fff;}.cls-2{opacity:0;}.cls-3{fill:#fff1d7;}.cls-4{fill:#5b8602;}.cls-5{fill:#72a220;}.cls-6{fill:#8c635b;}.cls-7{fill:#b1bb2a;}.cls-45,.cls-8{fill:#662a14;}.cls-9{fill:#e47e0c;}.cls-10{fill:#cc5520;}.cls-11{fill:#c0561f;}.cls-12{fill:#ffac20;}.cls-14{fill:#3754a9;}.cls-15{fill:#acd1ff;}.cls-16{fill:#81c74b;}.cls-17{fill:#c8eaff;}.cls-18,.cls-21{fill:#c70e1e;}.cls-19{fill:#ef624a;}.cls-20{fill:#e3453b;}.cls-20,.cls-21,.cls-44,.cls-45,.cls-46{fill-rule:evenodd;}.cls-22{fill:#e45715;}.cls-23{fill:#f3a50a;}.cls-24{fill:#d48120;}.cls-25{fill:#fec009;}.cls-26{opacity:0.56;mix-blend-mode:multiply;}.cls-27{fill:#eca6a2;}.cls-28{fill:#e47c15;}.cls-29{fill:#2f725e;}.cls-30{fill:#41957a;}.cls-31{fill:#16593e;}.cls-32{fill:#f7a893;}.cls-33{fill:#ef6289;}.cls-34{fill:#c52066;}.cls-35{fill:#e57075;}.cls-36{fill:#2c2c2c;}.cls-37{fill:#f9cf58;}.cls-38{fill:#122930;}.cls-39{fill:#6b1f20;}.cls-40{fill:#8b1f20;}.cls-41{fill:#de3d64;}.cls-42{fill:#231f20;}.cls-43{fill:#4e0701;}.cls-44{fill:#a9503c;}.cls-46{fill:#312a14;}</style></defs><title>02</title><g class="cls-1"><g id="_02" data-name="02"><rect id="_02-2" data-name="02" class="cls-2" width="4680" height="3120"/><path class="cls-3" d="M3680,1619.84c-29.08,72.43-85.22,140-117.05,210.19q-2.35,5.15-4.5,10.32-2.61,6.27-4.93,12.56v0a249.82,249.82,0,0,0-9.3,31.24q-1.28,5.63-2.22,11.3c-.44,2.58-.82,5.16-1.15,7.76a179.06,179.06,0,0,0-1.2,32.54,174.16,174.16,0,0,0,10,49c5,14.08,8.77,32.48,10.7,54.13,2.21,24.73,2,53.69-1.42,85.24a541.22,541.22,0,0,1-27.33,119.66c-.45,1.29-.91,2.59-1.38,3.88a526.18,526.18,0,0,1-79.15,144.76,510.2,510.2,0,0,1-63.06,67.66q-14.17,12.72-29.78,24.75c-63.94,49.24-146.12,89.25-250.8,112.17q-7.83,1.73-15.83,3.3a918.6,918.6,0,0,1-107.81,14.56c-95.91,7.42-206.78,2.43-334.67-18.84q-32-5.31-65.5-12-36.4-7.31-72.91-13.67c-3-.52-5.95-1-8.92-1.54l-.26,0-4.63-.79-2.31-.4A2862.71,2862.71,0,0,0,1948,2528.28q-15.52.38-31,.93h-.09l-9,.34h-.28l-4.72.18q-52.26,2.12-104.5,6.19-30.09,2.34-60.14,5.34l-88.71,8.83-40.23,4-81.55,8.12-9,.89L1406,2574.36l-13.3,1.32a551.32,551.32,0,0,1-73.37,2.42q-10.27-.33-20.48-1.07a550.59,550.59,0,0,1-143.9-30q-17.29-6.08-34.14-13.28-9.82-4.2-19.5-8.76c-2-.93-4-1.88-5.93-2.84s-3.93-1.93-5.9-2.91-3.84-1.94-5.76-2.93l-.12-.05-3.59-1.88q-2.34-1.2-4.67-2.46-2.17-1.15-4.34-2.34l-.89-.49q-2.52-1.38-5-2.79l-1.39-.78q-2-1.11-4-2.26t-4.08-2.37l-1.26-.74c-1.15-.67-2.29-1.35-3.42-2l-2.9-1.73-2.92-1.79-3-1.84c-.8-.49-1.61-1-2.41-1.51-1-.62-2-1.26-3-1.92s-2-1.25-3-1.89-1.87-1.21-2.8-1.82l-2.67-1.75c-1.1-.72-2.2-1.46-3.29-2.2-.81-.54-1.62-1.07-2.42-1.63s-1.55-1-2.33-1.59c-1.3-.88-2.6-1.78-3.9-2.68-.42-.29-.84-.58-1.28-.9q-2.05-1.43-4.1-2.89c-.53-.37-1.06-.74-1.59-1.14-1.18-.84-2.34-1.67-3.5-2.52s-2-1.48-3-2.24q-1-.75-2.07-1.53c-1.13-.83-2.24-1.67-3.36-2.52q-1.17-.87-2.34-1.77c-.77-.58-1.55-1.17-2.32-1.77l-3.26-2.53c-.51-.39-1-.78-1.49-1.17l-3.81-3c-.5-.41-1-.81-1.52-1.23-1.26-1-2.53-2-3.78-3.05l-.63-.52c-1.55-1.26-3.09-2.54-4.62-3.82-1.7-1.43-3.4-2.86-5.1-4.31q-5.07-4.32-10.06-8.78c-3.34-3-6.63-6-9.91-9-1.64-1.53-3.26-3.06-4.88-4.59-3.24-3.09-6.45-6.2-9.63-9.37-1.6-1.58-3.18-3.16-4.76-4.76-.85-.85-1.69-1.72-2.53-2.58q-1.85-1.87-3.64-3.75c-1.13-1.17-2.24-2.32-3.34-3.5l0,0q-2.44-2.58-4.86-5.19a652.82,652.82,0,0,1-55.45-68.81q-8.67-12.37-16.83-25.21l-1.12-1.77c-45.84-72.68-79.05-156.22-95.78-247.1q-1.73-9.32-3.2-18.74-4.41-27.93-6.7-56.72a.13.13,0,0,1,0-.06c-.06-.72-.11-1.44-.16-2.16q-.39-5.12-.71-10.2-.78-12.46-1.08-24.72c-1.43-57.31,10.24-112.69,29.41-165.25,63.17-173.2,207.79-315.91,233.9-397,33.55-104.17-30.4-450.71-19.95-560.62,23.1-242.56,187.33-385.64,423.36-434C1608.72,332.25,1833.17,385,2029,483.14c143.85,72.06,283,170.37,441,184.71,108.32,9.83,213.23-21.41,319-39,111.36-18.57,229.66-20,343.44-.23q10.38,1.78,20.71,3.85,10,2,20.07,4.21,10.39,2.29,20.71,4.86c121.43,30,235.1,86,326.36,173.24,122.27,116.89,192.85,280.45,207.53,443.74C3738.62,1378.07,3724.1,1510.08,3680,1619.84Z"/><path class="cls-4" d="M1705.44,2335.05,3575.21,2454.7S3635,2249.13,3445.68,2289c0,0,21.87-16.12,23.11-66.64.61-24.94-24.2-71.4-71.83-68.61-42.84,2.51-53.23,46.91-53.23,46.91s13.76-97.69-80-118.67c0,0-12.12-210.13-229-220,0,0-46.79-166.85-255.21-154.25-123.46,7.46-171.15,156.87-171.15,156.87S2432,1739.36,2365.5,1979.27c0,0-183.83-62.92-253.24,134.94,0,0-188.19-97.3-289.19,54C1823.07,2168.18,1701.37,2193.32,1705.44,2335.05Z"/><path class="cls-5" d="M3435.94,2445.79l-1255.36-80.34s63.43-95.91,151-92.45c0,0,57.6-137.72,87-133.7s25,55.52,25,55.52,14.78-155.82,99.59-178.24,77,71.33,77,71.33,58-133.4,152.7-132.7,109.27,149.47,109.27,149.47,76.85-180.42,207.61-41.89c0,0,85.45-79.8,102.57,86.87,0,0,51.16,11,49.41,96.24C3241.69,2245.9,3439.2,2235.12,3435.94,2445.79Z"/><path class="cls-5" d="M3103,1566.1c-10.45,15.89-10.44,38,0,53.87s30.77,24.61,49.49,21.29c15.17-2.7,27.89-12.49,36.87-25.22-8.83,19.52-22.24,36.61-40.74,47-29.14,16.43-71.76,10.32-88.52-18.63.49,8.3-8.65,14.58-16.95,14.16s-15.56-5.48-22.12-10.58c-14.54-11.33-29.09-25.74-30.53-44.11-.94-11.93,3.92-23.55,9.81-34a167.48,167.48,0,0,1,37.87-45.58,65,65,0,0,0,5.28,15.26C3054.08,1561,3080.85,1575.19,3103,1566.1Z"/><path class="cls-5" d="M3302.28,1660.67c-.24,0-.47-.08-.71-.12a40,40,0,0,0-4,25.93c2.67,14.31,12.22,26.59,23.69,35.56,10.57,8.29,23.91,14.37,37.18,12.31s25.33-14.62,23.12-27.87c21.75,10.56,45,21.4,69,18.71s47.49-25,41.94-48.54c-1.33-5.6-4.15-10.91-4.3-16.66-.13-5,1.83-9.89,3.76-14.56l19.41-47a39.56,39.56,0,0,0,41.81-2.94c-8.53,12-3.89,29.64,6.45,40.1s24.88,15.43,38.92,19.86c16.37,5.16,35.27,9.77,49.8.64,4-2.52,7.54-6,12.06-7.48,5.3-1.69,11-.26,16.54.41,19.64,2.39,41.4-6.93,49.44-25s-2.63-43.18-22.15-46.4l9.4-24.6c12.25-.11,25.06-3,35.15-9.63a45,45,0,0,0,23-6.39c5-3,9.43-7.08,14.9-9.12,7.56-2.84,15.94-1.5,24-.77,23.79,2.18,49.47-2,67.38-17.8s24.71-45.32,10.23-64.33c18,6,39.4.3,52.05-13.9s15.85-36.07,7.81-53.3c-10-21.33-34.42-32.87-57.93-34a77.34,77.34,0,0,0,5.84-66c20.33-6.6,34.52-28.49,32.24-49.74s-20.79-39.63-42.05-41.77c0,0,6.21-38.31-51.38-43.33-26.38-2.29-40.8,5.75-48.68,15.14a33.94,33.94,0,0,1,5.54,25.75c21,4,37.81,23.94,38.21,45.31s-15.64,41.92-36.47,46.71a77.44,77.44,0,0,1-2.21,47.56,154.9,154.9,0,0,1,.88,19.83c19.59,5.32,37.57,18,44.42,36.84,6.49,17.86,1.38,39.37-12.47,52.4s-35.62,16.84-53.06,9.27c12.75,20.21,3.39,49-15.85,63.19s-45.18,16.07-68.69,11.81c-7.94-1.44-16.17-3.51-24-1.35-5.63,1.56-10.41,5.18-15.64,7.78-17.86,8.88-41.41,4.32-54.65-10.59-.1-.11-.18-.23-.28-.34a246.87,246.87,0,0,1-79.86-8.69c7.35,20.64-18,37.31-38.34,34.72-26.41-3.36-46.42-7.34-60.76-21.53a51.72,51.72,0,0,1-27.41,9.32s42.63,12,22.94,66.34-55.1,38.48-55.1,38.48C3345.93,1650.81,3323.4,1664,3302.28,1660.67Zm500.21-208.29s28.92-9.1,47.05,14.8C3820.47,1475.41,3805.52,1454.57,3802.49,1452.38Zm-19.74.95s29.72,6,34,35.7C3787.37,1482.19,3784.35,1456.72,3782.75,1453.33Zm-262.48,58.43s29.72,6,34,35.69C3524.89,1540.62,3521.86,1515.15,3520.27,1511.76Z"/><path class="cls-5" d="M2799.6,1141.45c10.37,21.13,35.07,32.19,58.6,32.86a77.31,77.31,0,0,0-4.55,66.13c-20.2,7-33.94,29.16-31.25,50.36s21.56,39.22,42.87,40.94c0,0-4.49,31.6,37.7,40.38a71.86,71.86,0,0,0-12.3,13.63c-13.86,20.08-16,48.6-2.4,68.87,10,15,35.53,22.41,44.56,6.85,20.16,31.89,70.59,38.66,98.44,13.2a35.55,35.55,0,0,0,6.47,17.21,120.88,120.88,0,0,1,5.85-21.94c2.78-7.58,6.23-15.33,5.45-23.37-.57-5.8-3.32-11.14-5-16.74a43,43,0,0,1-1.72-12c-16.24-5.62-29.31-20.44-32-37.51-1.05,0-2.12-.09-3.21-.16-57.69-3.88-52.22-42.3-52.22-42.3-21.31-1.72-40.17-19.73-42.87-40.94s11.05-43.36,31.25-50.36a77.33,77.33,0,0,1,4.55-66.14c-23.54-.67-48.23-11.72-58.6-32.85-8.38-17.07-5.6-39,6.76-53.44s33.61-20.57,51.77-14.93c-14-17.69-9.26-45.13,6.17-61.73-12.42-5.07-22.87-15.12-27.74-27.66-.09-.22-.15-.44-.23-.66-21.39-.19-43.3,5.09-58.92,19.43-17.6,16.16-23.81,45.81-9,64.53-18.16-5.65-39.4.47-51.77,14.92S2791.23,1124.38,2799.6,1141.45Zm85.43,98.43s25.95-15.69,49.22,3.25C2908,1258,2888.5,1241.3,2885,1239.88Zm5.16-36.55s30.32,0,40.46,28.2C2900.46,1230.69,2892.43,1206.33,2890.19,1203.33Z"/><path class="cls-4" d="M3251,1604.39q-6.24,5.35-12.41,10.83a75.48,75.48,0,0,0,23.93,1.49c1.12,21.11,18.24,40.24,39,43.84.24,0,.47.09.71.12,21.12,3.28,43.65-9.86,51.2-29.86,0,0,35.41,15.88,55.1-38.48s-22.94-66.34-22.94-66.34a51.72,51.72,0,0,0,27.41-9.32c14.34,14.19,34.35,18.17,60.76,21.53,20.36,2.59,45.69-14.08,38.34-34.72a246.87,246.87,0,0,0,79.86,8.69c.1.11.18.23.28.34,13.24,14.91,36.79,19.47,54.65,10.59,5.23-2.6,10-6.22,15.64-7.78,7.78-2.16,16-.09,24,1.35,23.51,4.26,49.46,2.36,68.69-11.81s28.6-43,15.85-63.19c17.44,7.57,39.22,3.76,53.06-9.27s19-34.54,12.47-52.4c-6.85-18.85-24.83-31.52-44.42-36.84a154.9,154.9,0,0,0-.88-19.83,77.44,77.44,0,0,0,2.21-47.56c20.83-4.79,36.88-25.34,36.47-46.71s-17.22-41.31-38.21-45.31a33.94,33.94,0,0,0-5.54-25.75c-6.2-8.94-18.37-17.77-41.83-21.92-2.36-.42-4.61-.73-6.79-1a42.59,42.59,0,0,1-8.07,3.59,77.34,77.34,0,0,1-5.84,66c23.51,1.14,48,12.68,57.93,34,8,17.23,4.84,39.1-7.81,53.3s-34,19.9-52.05,13.9c14.48,19,7.69,48.52-10.22,64.33s-43.6,20-67.39,17.8c-8-.74-16.42-2.07-24,.76-5.47,2.05-9.92,6.07-14.9,9.12-16,9.79-38,8.19-52.63-3.38-31.31,26.12-71.27,43.38-113.6,48.3q-4.83,4.31-9.68,8.58-15.85,14-31.88,27.6c-16.56,14.08-32.72,28.53-48.69,43s-32.32,28.12-48.82,41.53S3267.13,1590.45,3251,1604.39Zm379.34-156.31c-20-22.6-7.77-45.12-7.11-48.81C3623.24,1399.27,3644,1421.37,3630.35,1448.08Zm43.46-28c-29.89,4.38-42-18.22-44.73-20.79C3629.08,1399.3,3658.94,1394,3673.81,1420.09Zm-7.21,40.2c-26.59-14.24-25-37.15-25.88-40.53C3640.72,1419.76,3667.73,1433.36,3666.6,1460.29Z"/><path class="cls-4" d="M3037.74,1491.88a86.77,86.77,0,0,0,.4,32.5,65,65,0,0,0,5.28,15.26c10.66,21.38,37.43,35.55,59.53,26.46-10.45,15.89-10.44,38,0,53.87s30.77,24.61,49.49,21.29c15.17-2.7,27.89-12.49,36.87-25.22a81.47,81.47,0,0,0,10.92-22q1.52,1.57,3.14,3a584.73,584.73,0,0,1,27.35-60c5.14-9.8,10.73-19.3,16.46-28.67a166.8,166.8,0,0,1-14.82-13.24,181.3,181.3,0,0,1-19-23.62,206,206,0,0,1-14.47-26.06q-3-6.62-5.52-13.36-2.64-7-4.85-14.18a261.42,261.42,0,0,1-6.66-28.39c-1.57-9.58-2.61-19.12-3.26-28.67s-.73-19.06-.58-28.54.72-18.9,1.45-28.27q.26-3.24.56-6.46a80.54,80.54,0,0,1-27.51,7.9c-26.34,2.53-54.44-10.41-66.73-33.84-7.63,8.54-20.61,10.79-31.68,7.83s-20.45-10.31-28.44-18.51a135,135,0,0,1-28.54-44c-7.58-19-10.72-39.41-13.81-59.62-2.44-16-4.87-32.27-4.09-48.36-9.06-6.42-16.78-14.43-22-24.24-11.26-21.08-7.31-51.11,12.9-63.85a47.51,47.51,0,0,1-16.16-3.56c-15.43,16.6-20.21,44-6.17,61.73-18.16-5.64-39.4.48-51.77,14.93s-15.14,36.37-6.76,53.44c10.37,21.13,35.06,32.18,58.6,32.85a77.33,77.33,0,0,0-4.55,66.14c-20.2,7-33.95,29.16-31.25,50.36s21.56,39.22,42.87,40.94c0,0-5.47,38.42,52.22,42.3,1.09.07,2.16.12,3.21.16,2.65,17.07,15.72,31.89,32,37.51a43,43,0,0,0,1.72,12c1.66,5.6,4.41,10.94,5,16.74.78,8-2.67,15.79-5.45,23.37A120.88,120.88,0,0,0,3037.74,1491.88Zm116.65-67.27s-26.55,14.64-49-5.2C3132.2,1405.59,3151,1423.05,3154.39,1424.61Zm-24.17,11.85s-19.87,22.81-45.67,15C3104.92,1429.27,3126.72,1436.51,3130.22,1436.46Zm-43.29-152.14c-9.15,28.74-32,31.33-35.12,32.84C3051.81,1317.16,3060.25,1288.12,3086.93,1284.32Zm.06,54.73s-13-27.31,4.41-47.88C3103.67,1318.71,3088.35,1335.82,3087,1339.05Zm65.93,91.2s-2.29,30.24-31.21,38.19C3124.86,1438.4,3149.76,1432.25,3152.92,1430.25Z"/><path class="cls-4" d="M3257.09,1283.26a157.38,157.38,0,0,1-12.69,21.4c-8.38,11.9-18.39,22.58-29.07,32.64-5.93,5.57-12.09,10.94-18.36,16.26a392.56,392.56,0,0,1-2.21-48.73c.06-5.47.22-10.95.43-16.43a101.94,101.94,0,0,0,22.62-23.5A158.75,158.75,0,0,0,3257.09,1283.26Z"/><path class="cls-4" d="M3548.17,1390.41a200.79,200.79,0,0,1-84.11,29.16c10.06-9.73,19.92-19.69,29.45-30a511.08,511.08,0,0,0,42.72-52.63c1.57.15,3.14.26,4.72.3C3531.94,1354.11,3535.13,1376.53,3548.17,1390.41Z"/><path class="cls-4" d="M3354.89,1239.06c.67,10.36,1.34,20.74,1.92,31.18.71,13.48,1.63,27,2,40.74a212.74,212.74,0,0,1-3,41.16q-1.23,7-2.93,13.87c27-33.54,53.51-67.14,76.78-103,5.46-8.36,10.63-16.89,15.62-25.54a47.42,47.42,0,0,1-4.86-25.19,116.11,116.11,0,0,1-88.08-9l.29,3.91C3357.32,1217.09,3357.69,1228.29,3354.89,1239.06Zm39.81,16.26s8.45-29,35.13-32.84C3420.68,1251.21,3397.86,1253.8,3394.7,1255.32Z"/><path class="cls-4" d="M3467.09,1261.87c6.67,8.4,7.94,19.71,11.45,29.85,7.07,20.44,24.78,36.58,45.41,42.79a530.47,530.47,0,0,1-42.82,42.54c-15.9,14.32-32.52,27.87-49.53,41-5.83,4.58-11.73,9.09-17.65,13.59q-16.83,12.78-34,25.31c-17.41,12.84-35.37,25.13-53.11,37.94a434.71,434.71,0,0,0-50.44,42.44q-10.68,10.53-20.72,21.81c1.13-2.64,2.27-5.28,3.45-7.91,5.54-12.42,11.93-24.55,18.43-36.64,6.72-12,13.6-24,21-35.68,14.6-23.55,30.47-46.53,46.55-69.49,1.38-2,2.78-4,4.17-5.93,30.89-43.9,62.8-87.75,89.41-135,4.2-7.4,8.17-14.92,12-22.51a45.08,45.08,0,0,0,3.6,4C3458.5,1254,3463.46,1257.3,3467.09,1261.87Z"/><path class="cls-4" d="M3314.91,1283.5a61.62,61.62,0,0,0,23.14-15.12c0,.71,0,1.42,0,2.14-.29,13.32-1.25,26.57-2.49,39.67s-2.15,26.08-3,39-2.2,25.82-4,38.75c-.46,3.44-1,6.87-1.54,10.32l-1.19,1.5c-16.75,21-33.42,42.26-49.18,64.43-4.53,6.26-8.92,12.65-13.25,19.1a136.13,136.13,0,0,1-11.05-8.7,153.46,153.46,0,0,1-17.13-18.55,180.5,180.5,0,0,1-14-21.61c-1.74-3.23-3.37-6.53-4.93-9.87q-3.2-6.84-5.95-13.93a210.73,210.73,0,0,1-9.07-31c9.15-9.81,18.36-19.8,27-30.4,9.78-12,18.94-24.7,26.2-38.53a167.2,167.2,0,0,0,10.8-25.37C3281.85,1289.16,3298.87,1289.21,3314.91,1283.5Z"/><path class="cls-6" d="M3349.58,1201.68c.91.53,1.84,1,2.76,1.51l.29,3.91A42.25,42.25,0,0,0,3349.58,1201.68Z"/><path class="cls-7" d="M3729.54,1138.7a42.59,42.59,0,0,0,8.07-3.59c15.87-9.07,26.13-27.84,24.17-46.14a46.44,46.44,0,0,0-11-24.91c14.48-26.18,30.19-72.22-16.44-100-62.36-37.16-101.61,4.49-107.7,11.66,6.92-8.58,53.69-69.54,6.5-91.79-50.82-24-66.15,16.3-66.15,16.3s20.42-51.61-43.68-47.63c13.77-17-4.62-41.16-24.69-45.45-41.33-8.85-68-10.92-95.37,29.18,1.64-10.72-6.92-43.61-49.23-45.53-38.72-1.76-74.93,27.6-90.34,63.47,3-10.44,4.15-32.31-28-50.86-43.95-25.39-69.11,10.38-69.11,10.38s14.92-41.68-40.8-57.12-63.28,22.63-63.28,22.63c-20.68-5.43-44.44,5.32-54,24.44s-3.93,44.58,12.81,57.87a77.32,77.32,0,0,0-17.6,63.91c-22.43-7.16-49.39-4.91-66.17,11.6-13.39,13.17-18.06,34.41-11.54,52,.08.22.14.44.23.66,4.87,12.54,15.32,22.59,27.74,27.66a47.51,47.51,0,0,0,16.16,3.56c-20.21,12.74-24.16,42.77-12.9,63.85,5.24,9.81,13,17.82,22,24.24-.78,16.09,1.65,32.35,4.09,48.36,3.09,20.21,6.23,40.63,13.81,59.62a135,135,0,0,0,28.54,44c8,8.2,17.38,15.56,28.44,18.51s24.05.71,31.68-7.83c12.29,23.43,40.39,36.37,66.73,33.84a80.54,80.54,0,0,0,27.51-7.9,93.61,93.61,0,0,0,15.13-9.26,101.94,101.94,0,0,0,22.62-23.5,158.75,158.75,0,0,0,39.28,18.36c2.7.81,5.42,1.53,8.14,2.15,16.62,3.75,33.64,3.8,49.68-1.91a61.62,61.62,0,0,0,23.14-15.12,66.67,66.67,0,0,0,16.84-29.32c2.8-10.77,2.43-22-2.26-32a42.25,42.25,0,0,0-3.05-5.42c.91.53,1.84,1,2.76,1.51a116.11,116.11,0,0,0,88.08,9,47.64,47.64,0,0,0,10.3,33.69,45.08,45.08,0,0,0,3.6,4c4.18,4.08,9.14,7.4,12.77,12,6.67,8.4,7.94,19.71,11.45,29.85,7.07,20.44,24.78,36.58,45.41,42.79a64.86,64.86,0,0,0,12.28,2.46c1.57.15,3.14.26,4.72.3-9,16.84-5.82,39.26,7.22,53.14.57.61,1.13,1.23,1.74,1.8.88.83,1.79,1.61,2.74,2.36,14.63,11.57,36.66,13.17,52.63,3.38,5-3,9.43-7.07,14.9-9.12,7.56-2.83,15.94-1.5,24-.76,23.79,2.18,49.47-2,67.39-17.8s24.7-45.33,10.22-64.33c18,6,39.4.29,52.05-13.9s15.85-36.07,7.81-53.3c-10-21.33-34.42-32.87-57.93-34A77.34,77.34,0,0,0,3729.54,1138.7Zm-144.17-62.11s1-30.31,29.54-39.5C3613.06,1067.24,3588.44,1074.45,3585.37,1076.59Zm-374,50.45s-27.28-13.24-24-43.07C3214.11,1098,3210.67,1123.37,3211.37,1127Zm434,165.81c-20.23,22.44-44,12.75-47.71,12.51C3597.65,1305.36,3617.29,1282.26,3645.36,1292.85Zm-15.63,49.28c-29.85-4.64-34.75-29.81-36.6-33.07C3593.13,1309.06,3623.22,1312.84,3629.73,1342.13Zm-473-216.52c26.36-14.74,45.74,2.06,49.2,3.49C3205.91,1129.1,3179.88,1144.66,3156.71,1125.61Zm-7.6-40.12c29.91,3.83,36.57,25.8,38.63,28.64C3187.74,1114.13,3157.65,1111.05,3149.11,1085.49Zm501.11-37.76c-14.61,26.44-39.94,22.4-43.63,23C3606.59,1070.74,3620.48,1043.78,3650.22,1047.73Zm-30.56,266s29.48-6.75,45.78,14.72C3635.88,1334.4,3622.52,1315.72,3619.66,1313.7ZM3234.79,978.62s-25.29-16.73-18.15-45.87C3241.34,950.14,3234.58,974.88,3234.79,978.62Zm150.32-99.2c24.21,18.06,16.76,42.6,16.87,46.35C3402,925.77,3377.16,908.34,3385.11,879.42Zm23.13,23.66s-9.44-28.73,10.43-47C3427.35,885,3410,900,3408.24,903.08Zm27.38-12.66c-1.86,30.15-26.47,37.36-29.55,39.5C3406.07,929.92,3407.06,899.61,3435.62,890.42Z"/><path class="cls-5" d="M3782.31,1140.38s1-30.31,29.54-39.5C3810,1131,3785.39,1138.24,3782.31,1140.38Z"/><path class="cls-7" d="M2892.3,934.78c25.31,16.48,19.45,41.45,19.79,45.18C2912.09,980,2886.21,964.15,2892.3,934.78Z"/><path class="cls-7" d="M2915.71,905.79c17.78,24.42,3.4,45.67,2.39,49.27C2918.1,955.06,2899.56,931.07,2915.71,905.79Z"/><path class="cls-5" d="M2888,1375.6c-18.53,23.86-42.92,15.94-46.66,16C2841.38,1391.57,2859.27,1367.1,2888,1375.6Z"/><path class="cls-4" d="M2934.25,1243.13c-26.29,14.87-45.75-1.83-49.22-3.25C2885,1239.88,2911,1224.19,2934.25,1243.13Z"/><path class="cls-4" d="M3554.31,1547.45c-29.42-6.83-32.45-32.3-34-35.69C3520.27,1511.76,3550,1517.77,3554.31,1547.45Z"/><path class="cls-4" d="M3816.79,1489c-29.42-6.84-32.44-32.31-34-35.7C3782.75,1453.33,3812.47,1459.34,3816.79,1489Z"/><path class="cls-4" d="M3849.54,1467.18c-29.07,8.23-44-12.61-47.05-14.8C3802.49,1452.38,3831.41,1443.28,3849.54,1467.18Z"/><path class="cls-4" d="M2930.65,1231.53c-30.19-.84-38.22-25.2-40.46-28.2C2890.19,1203.33,2920.51,1203.3,2930.65,1231.53Z"/><path class="cls-5" d="M3803.53,1134.52s13.89-27,43.63-23C3832.55,1138,3807.23,1133.91,3803.53,1134.52Z"/><path class="cls-5" d="M3585.37,1076.59s1-30.31,29.54-39.5C3613.06,1067.24,3588.44,1074.45,3585.37,1076.59Z"/><path class="cls-7" d="M3575.64,877.14s1-30.31,29.54-39.5C3603.33,867.79,3578.71,875,3575.64,877.14Z"/><path class="cls-5" d="M3406.07,929.92s1-30.31,29.55-39.5C3433.76,920.57,3409.15,927.78,3406.07,929.92Z"/><path class="cls-5" d="M3402,925.77s-24.82-17.43-16.87-46.35C3409.32,897.48,3401.87,922,3402,925.77Z"/><path class="cls-5" d="M3408.24,903.08s-9.44-28.73,10.43-47C3427.35,885,3410,900,3408.24,903.08Z"/><path class="cls-5" d="M3211.37,1127s-27.28-13.24-24-43.07C3214.11,1098,3210.67,1123.37,3211.37,1127Z"/><path class="cls-5" d="M3205.91,1129.1s-26,15.56-49.2-3.49C3183.07,1110.87,3202.45,1127.67,3205.91,1129.1Z"/><path class="cls-5" d="M3149.11,1085.49c29.91,3.83,36.57,25.8,38.63,28.64C3187.74,1114.13,3157.65,1111.05,3149.11,1085.49Z"/><path class="cls-7" d="M3105.35,1419.41c26.85-13.82,45.64,3.64,49,5.2C3154.39,1424.61,3127.84,1439.25,3105.35,1419.41Z"/><path class="cls-7" d="M3152.92,1430.25s-2.29,30.24-31.21,38.19C3124.86,1438.4,3149.76,1432.25,3152.92,1430.25Z"/><path class="cls-7" d="M3084.55,1451.5c20.37-22.23,42.17-15,45.67-15C3130.22,1436.46,3110.35,1459.27,3084.55,1451.5Z"/><path class="cls-5" d="M3629.73,1342.13c-29.85-4.64-34.75-29.81-36.6-33.07C3593.13,1309.06,3623.22,1312.84,3629.73,1342.13Z"/><path class="cls-5" d="M3597.65,1305.36s19.64-23.1,47.71-12.51C3625.13,1315.29,3601.38,1305.6,3597.65,1305.36Z"/><path class="cls-5" d="M3619.66,1313.7s29.48-6.75,45.78,14.72C3635.88,1334.4,3622.52,1315.72,3619.66,1313.7Z"/><path class="cls-7" d="M3630.35,1448.08c-20-22.6-7.77-45.12-7.11-48.81C3623.24,1399.27,3644,1421.37,3630.35,1448.08Z"/><path class="cls-7" d="M3629.08,1399.3s29.86-5.27,44.73,20.79C3643.92,1424.47,3631.8,1401.87,3629.08,1399.3Z"/><path class="cls-7" d="M3640.72,1419.76s27,13.6,25.88,40.53C3640,1446.05,3641.63,1423.14,3640.72,1419.76Z"/><path class="cls-7" d="M3429.83,1222.48c-9.15,28.73-32,31.32-35.13,32.84C3394.7,1255.32,3403.15,1226.28,3429.83,1222.48Z"/><path class="cls-7" d="M3051.81,1317.16s8.44-29,35.12-32.84C3077.78,1313.06,3055,1315.65,3051.81,1317.16Z"/><path class="cls-7" d="M3087,1339.05s-13-27.31,4.41-47.88C3103.67,1318.71,3088.35,1335.82,3087,1339.05Z"/><path class="cls-5" d="M3234.79,978.62s-25.29-16.73-18.15-45.87C3241.34,950.14,3234.58,974.88,3234.79,978.62Z"/><path class="cls-5" d="M3650.22,1047.73c-14.61,26.44-39.94,22.4-43.63,23C3606.59,1070.74,3620.48,1043.78,3650.22,1047.73Z"/><path class="cls-5" d="M3899.76,1336.58s13.89-26.95,43.63-23C3928.78,1340,3903.45,1336,3899.76,1336.58Z"/><path class="cls-5" d="M3545.56,1670c-19-23.46-5.78-45.43-5-49.08C3540.6,1620.89,3560.38,1643.88,3545.56,1670Z"/><path class="cls-5" d="M3508.92,1660.08c-4-29.93,18.73-41.78,21.33-44.47C3530.25,1615.61,3535.15,1645.54,3508.92,1660.08Z"/><path class="cls-8" d="M3195.19,1288.4c-.21,5.48-.37,11-.43,16.43a392.56,392.56,0,0,0,2.21,48.73c6.27-5.32,12.43-10.69,18.36-16.26,10.68-10.06,20.69-20.74,29.07-32.64a157.38,157.38,0,0,0,12.69-21.4c2.7.81,5.42,1.53,8.14,2.15a167.2,167.2,0,0,1-10.8,25.37c-7.26,13.83-16.42,26.57-26.2,38.53-8.68,10.6-17.89,20.59-27,30.4a210.73,210.73,0,0,0,9.07,31q2.74,7.08,5.95,13.93c1.56,3.34,3.19,6.64,4.93,9.87a180.5,180.5,0,0,0,14,21.61,153.46,153.46,0,0,0,17.13,18.55,136.13,136.13,0,0,0,11.05,8.7c4.33-6.45,8.72-12.84,13.25-19.1,15.76-22.17,32.43-43.41,49.18-64.43l1.19-1.5c.55-3.45,1.08-6.88,1.54-10.32,1.79-12.93,3-25.81,4-38.75s1.82-25.92,3-39,2.2-26.35,2.49-39.67c0-.72,0-1.43,0-2.14a66.58,66.58,0,0,0,16.84-29.32c.67,10.36,1.34,20.74,1.92,31.18.71,13.48,1.63,27,2,40.74a212.74,212.74,0,0,1-3,41.16q-1.23,7-2.93,13.87c27-33.54,53.51-67.15,76.78-103,5.46-8.36,10.63-16.89,15.62-25.54a47.57,47.57,0,0,0,5.44,8.5c-3.84,7.59-7.81,15.11-12,22.51-26.61,47.29-58.52,91.14-89.41,135-1.39,2-2.79,4-4.17,5.93-16.08,23-32,45.94-46.55,69.49-7.4,11.72-14.28,23.68-21,35.68-6.5,12.09-12.89,24.22-18.43,36.64-1.18,2.63-2.32,5.27-3.45,7.91q10-11.27,20.72-21.81a434.71,434.71,0,0,1,50.44-42.44c17.74-12.81,35.7-25.1,53.11-37.93q17.13-12.59,34-25.32c5.92-4.5,11.82-9,17.65-13.59,17-13.12,33.63-26.67,49.53-41a530.47,530.47,0,0,0,42.82-42.54,64.86,64.86,0,0,0,12.28,2.46,511.08,511.08,0,0,1-42.72,52.63c-9.53,10.28-19.39,20.24-29.45,30a200.79,200.79,0,0,0,84.11-29.16c.57.61,1.13,1.23,1.74,1.8.88.83,1.79,1.61,2.74,2.36-31.31,26.12-71.27,43.38-113.6,48.3q-4.83,4.31-9.68,8.58-15.85,14-31.88,27.6c-16.56,14.08-32.72,28.53-48.69,43s-32.32,28.12-48.82,41.53q-4.8,3.9-9.57,7.82c-.09.24-77.15,125.06-29.93,439.89,22.83,152.27-4.1,335.54-4.1,335.54s-83.05-5-102.23,40.69l-76.84-35.4c22.84-46.14,38.75-96.61,48.57-149.44,10.21-52.74,14.94-107.55,18.3-163s4.91-111.8,8.5-168.52c1.74-28.34,4.1-56.81,7.4-85.28s7.46-57,13.43-85.21a722.61,722.61,0,0,1,22.58-83.78q3.45-10,7.29-19.81a584.73,584.73,0,0,1,27.35-60c5.14-9.8,10.73-19.3,16.46-28.67a166.8,166.8,0,0,1-14.82-13.24,181.3,181.3,0,0,1-19-23.62,206,206,0,0,1-14.47-26.06q-3-6.62-5.52-13.36-2.64-7-4.85-14.18a261.42,261.42,0,0,1-6.66-28.39c-1.57-9.58-2.61-19.12-3.26-28.67s-.73-19.06-.58-28.54.72-18.9,1.45-28.27q.26-3.24.56-6.46A93.61,93.61,0,0,0,3195.19,1288.4Z"/><path class="cls-9" d="M3588.69,2495.8c-5.91,34-61.51,65.57-130.52,82.94-81.73,20.56-178.61,25.3-272.51,28.58s-190.31,5.77-276.31,22.63c-12.3,18.61,20.54,40.06-.09,57.18-8.66,7.19-25.11,11.84-41.21,15.87-124.28,31.13-267.65,44.44-409.88,51.29l-12.12.56c-452.81,20.68-919.47-21.36-1317.09-118.73-31.83-7.79-67.43-19.11-65.79-35.1,2.95-28.93,118.79-34.3,123.53-63.19,2.49-15.13-28.73-26.9-58.26-34.78-53.47-14.26-112-24.9-172.74-31.4-66.9-7.16-141.83-10.54-189.59-32.31-39.56-18-50.17-47.13-25.42-69.69s66.47-50.64,600.68-52.39L3101,2322c23.94,20.75,91.31,17.84,143.83,20.85,77.86,4.47,142.23,27.86,201.85,50.29,61.17,23,126.19,48.89,140,83.73A34.69,34.69,0,0,1,3588.69,2495.8Z"/><ellipse class="cls-10" cx="2114.84" cy="2557.37" rx="641.19" ry="71.5"/><path class="cls-11" d="M3457.49,2399.36c-145.65-9.85-291.23-29.79-438.15-39.49-62.27-3-138.91-15.27-210.76-12.22-124.54,3.06-244.29,39.72-373.62,30.56-42.73-3.41-84.75-6.05-126.43-7.83-145.17-6.23-286.19-2-438.78,17-80.55,9.79-890.14-65.72-890.14-65.72,206.08-10.56,1037.48-3,1244.21-4.39,29.34-.2,60.53-2.61,93-6.51,163.68-19.61,359-76.75,507-74.9C3067.36,2238.92,3476.54,2382,3457.49,2399.36Z"/><path class="cls-11" d="M3588.69,2495.8c-5.91,34-61.51,65.57-130.52,82.94-81.73,20.56-178.61,25.3-272.51,28.58s-190.31,5.77-276.31,22.63c-12.3,18.61,20.54,40.06-.09,57.18-8.66,7.19-25.11,11.84-41.21,15.87-124.28,31.13-267.65,44.44-409.88,51.29l-12.12.56q-2.13-1.36-4.18-2.82c-11.52-8.17,249.35-50.62,332.07-95.54,45-24.45-58.2-67.3,7.46-90.13,109.43-38.07,186.49-48.53,334.34-49.53C3262,2515.84,3422.89,2589.53,3588.69,2495.8Z"/><rect class="cls-12" x="2517.04" y="477.54" width="371.72" height="224.17" rx="42.97"/><path class="cls-12" d="M2572.19,688.11l39.26,78.16a10.28,10.28,0,0,0,18.48-.23l36.56-77.47Z"/><circle class="cls-13" cx="2605.28" cy="589.07" r="17.85" transform="translate(-27.11 1041.84) rotate(-22.5)"/><circle class="cls-13" cx="2700.56" cy="589.07" r="17.85" transform="translate(-44.9 268.97) rotate(-5.65)"/><circle class="cls-13" cx="2795.84" cy="589.07" r="17.85" transform="translate(-60.55 658.11) rotate(-13.28)"/><path class="cls-13" d="M1684.85,856.82H1520.49c-21.33,0-34.89-.36-48.86-.53-30.46-.36-47.2-36.4-27.13-59.31.37-.42.73-.82,1.11-1.21,9.78-10.32,26.61-16,40.36-12.33,17.4,4.6,29.21,16.25,40.49,24.9,4-34.3,18.17-65.56,33.4-72.38,26.21-11.74,53.61,6.87,65.91,25,10.14,14.9,15.69,32.6,17.75,50.5,16.46-18.19,53.27-32.07,66.53-3.22C1715.26,819.53,1715.73,856.82,1684.85,856.82Z"/><path class="cls-13" d="M1338,739.71h-99.09c-12.84,0-21-.21-29.43-.31-18.3-.22-28.46-21.82-16.48-35.66.25-.28.5-.56.76-.83,5.9-6.23,16-9.63,24.33-7.44,10.5,2.78,17.62,9.8,24.42,15,2.41-20.67,11-39.52,20.13-43.63,15.81-7.08,32.33,4.14,39.74,15,6.11,9,9.47,19.66,10.71,30.45,9.92-11,32.11-19.33,40.1-1.94C1356.37,717.24,1356.65,739.71,1338,739.71Z"/><path class="cls-13" d="M1733.08,557.29a17.5,17.5,0,0,1,11.56,2.83c.61-12.66,6.53-26.38,21.13-34.29,17.92-9.72,35.13,9.6,39,21.79,3.55-11.25,21.64-26.39,36.17-13.61,9.92,8.72,13.25,21.8,13.75,32.59a9.86,9.86,0,0,1-9.84,10.34H1734C1721.53,576.94,1720.61,558.19,1733.08,557.29Z"/><path class="cls-13" d="M2595.89,1189.56a17.45,17.45,0,0,1,11.56,2.84c.61-12.67,6.52-26.39,21.13-34.3,17.92-9.72,35.13,9.61,39,21.79,3.55-11.25,21.64-26.39,36.17-13.61,9.91,8.72,13.25,21.8,13.75,32.59a9.86,9.86,0,0,1-9.84,10.34H2596.84C2584.34,1209.21,2583.42,1190.46,2595.89,1189.56Z"/><path class="cls-14" d="M2191.15,1291.7l68.24,976.55L1839.46,2443.3l-10,6.58-18.58-5.94L1643,2391.14c-55.52-17.36-118.08-16.95-176.41,1.3l-222.63,70-13,4.12-15.56-5.44L796.8,2317.4l-35.86-890.23,462.68,94.47,14.89,3.51,13.69-8.52q70.85-44,141.52-88c71.74-44.55,164.39-39.06,236.59-3.86,45,22,90.91,32.57,136.06,54.52,4.85,2.32,9.55,4.67,14.4,7l14.18-6.8.14,0Z"/><path class="cls-15" d="M801.36,1478.44,1238,1593s140.77-113.54,252-130.55,294.46,97.83,294.46,97.83l354.9-179.18,83.21,867.18-395,163.76s-206.22-79.29-293.14-73.15-303.19,96.07-303.19,96.07L838.78,2296.59Z"/><path class="cls-14" d="M1252.2,1516.63,1244,2462.41l-13,4.12-15.56-5.44-2.19-939.34,25.22,3.4Z"/><path class="cls-14" d="M1795,1479.49l44.51,963.81-10,6.58-18.58-5.94-44.53-964.65c4.85,2.32,9.55,4.67,14.4,7Z"/><path class="cls-16" d="M809.19,1649.46S886.43,1527.28,988,1602.4s-40.11,172.71-41.32,232.9,120.05,304.73,176.76,300.64,94,102.59,94,102.59l-2.44,63.72s-55,52.52-132.12-19.18-68.66-195.55-100.3-217.16-97.25-249-84-284.27,64.56-98.45,50.1-119.86S814,1758.67,814,1758.67Z"/><polygon class="cls-17" points="1097.83 1571.35 1096.37 1702.38 971.05 1824.95 984.71 1871.06 1113.42 1761.99 1146.31 1990.52 1057.27 2034.87 1088.71 2074.18 1145.8 2035.85 1214.95 2164.94 1214.35 2048.09 1189.01 1972.58 1159.65 1745.58 1147.31 1580.48 1097.83 1571.35"/><polygon class="cls-17" points="859.11 2018.5 925.37 2019.24 944.31 2049.07 858.78 2048.13 857.52 2161.92 1010.59 2188.14 1010.1 2232.68 870.92 2231.14 835.77 2230.75 838.12 2018.27 859.11 2018.5"/><path class="cls-17" d="M1244.57,2328s119.09-127.35,188.19-135.16,98.2-75.74,88.25-137.35-7.6-250.87,31.66-288.61,171-71.7,178.3-107,1.43-128.95,1.43-128.95l33.2,18.18s7,132.48-10.67,150-145.81,76.3-156.63,93.89,140.27,81,154.3,115.79,30.83,148.36,8.94,190.62-100,55-96.87,96,136.88,46.07,136.88,46.07l-.51,46s-142-19.29-162.3-47.85,5.17-88.48,37.52-130.62,83.16-126.59,51.57-165.9-160.68-101-160.68-101,.68,53.1-.94,85-6.89,208.9-17.83,226.49-95.26,80.4-119.16,97.85-36,122.82-36,122.82l-36.36,12.51s34-100.34,16.3-97-129.12,140.24-129.12,140.24Z"/><path class="cls-16" d="M1295.55,1626.67s100.67-126.4,144.85-122.36,132.59,16.27,167.91,25.2,81.43,2.36,84.46,48.43-141.6,144.48-183.45,170.16-23,135.69-21.24,188.83-147.82,129.41-161.67,100.92S1295.55,1626.67,1295.55,1626.67Z"/><rect class="cls-16" x="1307.69" y="2091.46" width="122.88" height="76.13" transform="translate(23.69 -15.05) rotate(0.64)"/><polygon class="cls-17" points="1848.94 1588.26 1998.11 1510.42 2022.26 1590.18 1848.02 1671.75 1848.94 1588.26"/><polygon class="cls-16" points="1847.62 1707.16 1934.67 1672.71 1952.94 1750.83 1846.68 1792.16 1847.62 1707.16"/><path class="cls-16" d="M1993,1648.57s63.63,29.82,69.54-34.26-32.76-163.68-32.76-163.68l35.41-32.15s55.62,202.19,37.52,237.89-103.34,56-110.26,41.78S1993,1648.57,1993,1648.57Z"/><path class="cls-17" d="M2132.83,1742.06s-215.56,72.13-234,118,13.06,120.56-1.88,170-71.74,104.57-71.74,104.57l1.75,38.09s51.29-33.07,69.24-75.37,2.13-150.79,35.83-186.58,200.21-115.4,200.21-115.4Z"/><path class="cls-16" d="M2067.33,1958.33s-56.41-38.77-88.52-1-1.63,130.22-2,179.8-85.31,44.54-106.74,60.52-38.6,72.59-38.6,72.59,41.27,67.62,96.29,25.73,147.77-91.08,172.33-95.77S2067.33,1958.33,2067.33,1958.33Z"/><path class="cls-18" d="M1224.5,910.14c-172.22,0-311.81,139.62-311.81,311.82s311.81,664.77,311.81,664.77,311.79-492.58,311.79-664.77S1396.71,910.14,1224.5,910.14Zm0,524.39c-106.59,0-193-86.4-193-193s86.41-193,193-193,193,86.39,193,193S1331.06,1434.53,1224.5,1434.53Z"/><path class="cls-19" d="M1265.08,910.14c-137.55,0-254.26,89.05-295.7,212.63A311.39,311.39,0,0,0,953.27,1222c0,172.19,311.81,664.77,311.81,664.77s136.73-216,229.09-411.94c47.11-99.94,82.7-194.67,82.7-252.83C1576.87,1049.76,1437.28,910.14,1265.08,910.14Zm0,138.46c106.56,0,193,86.39,193,193s-86.39,193-193,193-193-86.4-193-193S1158.49,1048.6,1265.08,1048.6Z"/><path class="cls-20" d="M1494.17,1474.79c-92.36,195.93-229.09,411.94-229.09,411.94S953.27,1394.15,953.27,1222a311.39,311.39,0,0,1,16.11-99.19c-.38,20.19-22.86,156.71,159.89,364.58C1269.5,1646.84,1368.38,1592.45,1494.17,1474.79Z"/><polygon class="cls-21" points="1224.5 1886.73 1265.08 1886.73 1241.62 1849.1 1224.5 1886.73"/><path class="cls-22" d="M1720.19,971.37l-4.8-1.07c-9-2-15-10-13.83-18.37,6.52-46,12.06-100.64,47.85-133.94,18.68-17.38,32-24.52,58.3-23.09a433.23,433.23,0,0,1,44.7,4.93Z"/><path class="cls-23" d="M1743.48,1323c-22.6-5.76-46.18-13.77-60.58-30.88-12-14.3-15.82-32.91-17.1-50.78-3-41,5.22-81.72,13.35-121.93l50.22-248.18c3.49-17.26,7.23-35.07,18.05-49.41,14.43-19.12,39.29-29.18,63.86-35.25,26.84-6.63,54.66-9.56,82.47-11.56,41.16-3,158.07,3.37,203.21,7.18,49.1,4.13,106.28,17.46,143.72,47.49,43.67,35,49.6,82.45,49.66,135.13.06,63.18,5.08,129.19-7,191.88-13.26,68.86-12.46,143.48-82.9,177.8-57.36,28-259.13,7.13-323.3,6.19A575.38,575.38,0,0,1,1743.48,1323Z"/><path class="cls-24" d="M1838.21,1308.49c10.72-15.21,16.3-33.79,19.83-51.54,3.93-19.69,5.12-39.76,6.36-59.76,1.28-20.94,3.18-41.83,4.79-62.75,3.36-43.46,6.48-87,12.19-130.2,2.69-20.37,6.43-40.51,10-60.74,2.44-13.72,3.4-27.65,5.08-41.46,3.21-26.51,8.42-58,34.06-74.15,6.52-4.11,14.1-6.75,21.59-9a211.31,211.31,0,0,1,25.76-6,367.31,367.31,0,0,1,55.5-5.11,491.9,491.9,0,0,1,53.72,2.23c23.17,2,46.41,4,69.32,8.06,4.59.81,9.12,1.75,13.62,2.77,32.91,35.41,40.91,86.87,41,134,.07,63.19-9.78,125.89-22.91,187.68-14.57,68.59-40.23,130.44-110.67,164.77-57.36,28-136.13,34.42-200.3,33.48a579,579,0,0,1-71.9-5.58A79.51,79.51,0,0,0,1838.21,1308.49Z"/><path class="cls-25" d="M1772.39,822.83c22.66-11.88,49.28-11.11,70.8-.75a70.4,70.4,0,0,1,27.64,23.22c8.46,12.23,12.76,27.83,13.82,43.73,1.26,18.8-52.16,359.55-56.69,373.17-3.87,11.62-9.14,23.3-17.21,32.11-10.22,11.15-25,15.1-38.17,16-17.5,1.13-34.5-3.8-50.44-10.24-13.31-5.38-25.76-12.47-35.66-23.87a75.07,75.07,0,0,1-6.73-9.1,138.27,138.27,0,0,1-3.68-28.64c-1.54-40.41,5.76-81.27,13-121.62l42.36-235.38a84.43,84.43,0,0,1,10-27.87l.09-.16C1749.38,840.21,1759.79,829.43,1772.39,822.83Z"/><g class="cls-26"><path class="cls-27" d="M1712.82,1287.88c15.94,6.44,32.94,11.37,50.45,10.24,13.2-.85,27.94-4.8,38.16-16,8.07-8.81,13.34-20.49,17.21-32.11,4.54-13.61,58-354.37,56.7-373.17-1-14.34-4.59-28.41-11.49-40a67.31,67.31,0,0,1,7,8.44c8.46,12.23,12.76,27.83,13.82,43.73,1.26,18.8-52.16,359.55-56.69,373.17-3.87,11.62-9.15,23.3-17.21,32.11-10.22,11.15-25,15.1-38.17,16-17.5,1.13-34.5-3.8-50.44-10.24-13.31-5.38-25.76-12.47-35.66-23.87a75.07,75.07,0,0,1-6.73-9.1c0-.12,0-.25-.08-.37C1689.14,1276.53,1700.6,1283,1712.82,1287.88Z"/></g><path class="cls-28" d="M1696.32,1149c.82-5.63,6.56-9.41,12.66-8.36,12.46,2.16,24.94,4.25,37.28,7,14.81,3.25,29.42,7.73,44,11.79q9.78,2.71,19.52,5.54c5,1.44,8.3,5.9,7.82,10.64a317.25,317.25,0,0,1-14.14,66.92c-4,12.18-9.14,24.73-19.69,32.88-11.58,8.95-28.27,11.08-43.22,7.92-20.71-4.38-38.84-18.62-46.82-36.78-8.5-19.33-5.66-40.91-2.68-61.39Q1693.69,1167.07,1696.32,1149Z"/><path class="cls-22" d="M1730.89,1275c14.95,3.16,31.63,1,43.22-7.92,10.55-8.15,15.7-20.69,19.69-32.88a317.74,317.74,0,0,0,14.14-66.92,8.89,8.89,0,0,0-.23-3l2.08.59c5,1.44,8.3,5.9,7.82,10.64a317.88,317.88,0,0,1-14.14,66.92c-4,12.18-9.14,24.73-19.69,32.88-11.58,8.95-28.27,11.08-43.22,7.92a68.92,68.92,0,0,1-35-19.53A68.78,68.78,0,0,0,1730.89,1275Z"/><path class="cls-29" d="M1948.49,765.14c17.35-29.65,19.28-67.49,3-96.46-11.38-20.45-28.8-43.52-56.54-48a116.13,116.13,0,0,0-20.14-.9c-3.7.59-7.36,1.21-11,2-33.73,7.55-48.61,42-53.85,72-5.25,29.28-4.58,64.48,14.88,88.32,13.74,16.31,42.53,30.66,66.25,24.73l10.42.4C1919.77,797.39,1938.26,781.23,1948.49,765.14Z"/><path class="cls-30" d="M2319.12,633.33c-45.68-3.48-90.34-4.18-137-5.8-69.48-2.41-140.87-7.6-209.21-10-32.46-1.5-65.77-2.93-98.07,2.25a116.13,116.13,0,0,1,20.14.9c27.74,4.48,45.16,27.55,56.54,48,16.29,29,14.36,66.81-3,96.46-10.23,16.09-28.72,32.25-47,42.06l444.12-5.59c32.91-16.57,53.05-11.86,61.37-50.26C2422.38,689.71,2391.88,639.44,2319.12,633.33Z"/><path class="cls-31" d="M1907.16,803.83l-7.1,1.78a48.68,48.68,0,0,1-20.52-.09c-8.59-2.11-17.82-7.62-25.5-16.13s-14.11-19.64-18.53-32.58a118.35,118.35,0,0,1-6.45-43.51c1.14-15.47,4.43-32.62,15.26-47.95a56.66,56.66,0,0,1,22.6-18.49c9.34-4,20.42-6,30.58-3.39a49.06,49.06,0,0,1,24.93,15.13,64,64,0,0,1,13.73,24.13c1.35,4.54,1.89,9,2.73,13.33.19,4.69.84,9.41.27,14-.08,4.66-1.25,9.28-2.21,13.9-1.62,4.51-2.85,9.16-5.45,13.35-2,4.41-5.16,8.3-8.14,12.23-1.56,1.92-3.48,3.57-5.2,5.36a50.36,50.36,0,0,1-5.52,5c-7.81,6.4-18.33,10.8-28.78,10.41-10.47-.16-19.88-5.67-24.67-13.1C1854,750,1853,741,1853.05,733.29a103.38,103.38,0,0,1,2.41-23c1.72-7.33,4.33-14.51,9.14-20.51a27.21,27.21,0,0,1,9-7.3,48.7,48.7,0,0,1,5.51-1.83c1.89-.22,3.75-.48,5.56-.54l5.27.49a29.62,29.62,0,0,1,4.8,1.43,21,21,0,0,1,7.21,6,31.61,31.61,0,0,1,5.87,14.38,38.4,38.4,0,0,1,0,13.15c-1.13,8-5.48,14-9.69,16.25l-2.84,1.37-2.24.44c-1.21.22-1.83.35-1.83.35l1.82-.44,2.2-.53,2.69-1.46c4-2.41,7.72-8.28,8.53-16.06a37.26,37.26,0,0,0-.58-12.68,29.69,29.69,0,0,0-6.1-13.31,19.7,19.7,0,0,0-6.19-4.9,27.7,27.7,0,0,0-4.36-1.14l-4.72-.28c-1.59.13-3.17.44-4.77.61-1.52.44-3,1-4.54,1.61a23.08,23.08,0,0,0-7.41,6.37c-4.11,5.34-6.43,12.08-7.86,19.08a98.43,98.43,0,0,0-1.7,22.07c.18,7.65,1.3,15.17,5.94,21.3a25.21,25.21,0,0,0,20.28,10.54c8.48.25,17.21-3.34,24.08-9a41.65,41.65,0,0,0,5.06-4.62c1.54-1.65,3.29-3.15,4.68-4.9,2.65-3.6,5.49-7.11,7.32-11.13,2.34-3.82,3.37-8.09,4.84-12.19.82-4.23,1.9-8.47,1.91-12.79.54-4.34-.14-8.48-.29-12.7-.88-4.39-1.46-8.76-2.68-12.72a58.45,58.45,0,0,0-12.28-22.1c-5.68-6.34-13.08-11.46-21.62-13.47a37.06,37.06,0,0,0-6.46-1,36.17,36.17,0,0,0-6.7.22,51.07,51.07,0,0,0-12.89,3.53,50.32,50.32,0,0,0-20.06,16.23c-9.86,13.91-13.72,30.14-15.2,45.29a116.32,116.32,0,0,0,5.18,42.18c4.06,12.68,9.73,23.78,16.82,32.25S1871.82,802,1880,804.3a48.66,48.66,0,0,0,20,1Z"/><path class="cls-32" d="M2372.48,964.76l80.25,34.65,50.75,21.82c30.69,13.38,61.32,26.54,92.1,39.78l49.23-80.84c-40.89-28.69-78.08-52.85-109.61-72.63-13-8.13-25.07-15.45-36-22.1-163.86-98.64-217-105.62-251.71-87.53a69.82,69.82,0,0,0-14.94,10.22Q2302.6,886.31,2372.48,964.76Z"/><path class="cls-33" d="M2539.23,900.77c-12.53,25-26.24,52-39.85,78.82-11.55,22.76-23,45.4-33.65,66.62l-153-85.92-72.9-41q-6-61.08-12-122.18c8.8-6,21-19.63,39.48-23.09,32.18-6,109.05,29,109.05,29S2500,877.8,2539.23,900.77Z"/><path class="cls-34" d="M2499.38,979.59c-11.55,22.76-23,45.4-33.65,66.62l-153-85.92c18.88-34.38,42.88-70.62,42.88-70.62S2404.23,959.23,2499.38,979.59Z"/><path class="cls-32" d="M2491,2060.46c-32.53,10.41-87.21-78.57-95.25-92.09-3.8-6-7.58-12.25-11.44-18.62q-15.14-24.9-30.71-53.15-2.84-5.17-5.7-10.48c-1.73-3.2-3.45-6.41-5.17-9.66a1485.48,1485.48,0,0,1-89.67-204c-1.35-3.77-2.79-7.67-4.09-11.66a1493.53,1493.53,0,0,1-55.36-208.14c12.07-23.61,31-42.24,55.6-52.24,44.48,23.82,89.18,47.69,133.74,71.65q29,58.83,50.06,111.52c26.51,65.67,44.74,124.21,57.19,175.72,13,53.76,19.68,99.85,22.91,138.37q.75,8.92,1.26,17.32c.58,8.74.89,17.09,1.07,25C2516.61,1978.19,2518.14,2051.65,2491,2060.46Z"/><path class="cls-35" d="M2513.06,1897.64l-159.51-1q-2.84-5.17-5.7-10.48c-1.73-3.2-3.45-6.41-5.17-9.66,3-60,12.39-234.12,19.52-234.12,6.69,0,90.83,80.91,128,116.93C2503.14,1813,2509.83,1859.12,2513.06,1897.64Z"/><path class="cls-32" d="M1923.46,1933c-3.08,4.69-6.15,9.54-9.07,14.24q-56.55,87.38-112.45,183.32c-39.16,67.32-67.72,138-101.21,202.56q-31.56,60.43-60,118.93c-1.62,3.23-11.09,1.65-12.55,4.89-7.6-3.24-15.37-6.31-23-9.55-12-4.85-24-9.87-35.93-14.89,6.15-14.56,15.54-37.37,25.73-65.85,7.45-20.72,13.6-39.81,18.77-57.61,31.72-107.44,29.45-164.56,63.76-235.27,17.79-36.73,51-88.51,118.12-139.48l96.6-1C1902.58,1933.15,1913.1,1933.15,1923.46,1933Z"/><path class="cls-32" d="M2511.3,1919.25c9.84,73.84,13.87,96.79,28.25,175.68,14.18,77.88,78,317.71,89.74,361.67-20.23,6.62-54.46,13.89-74.7,20.51-31.55-90.58-125.21-263.8-146.56-344.5-10.31-39.54-18.75-100.4-1.06-182.76C2439.06,1921.81,2479.21,1947.29,2511.3,1919.25Z"/><path class="cls-32" d="M2331.85,679q-5.88,28.88-11.88,57.9L2301,829.56l-115.47-20.64c20.74-63.08,36.53-126.87,57.28-189.95,16.65,13.64,20.19,23.53,44.19,37.38A454.93,454.93,0,0,0,2331.85,679Z"/><path class="cls-35" d="M2331.85,679c-3.92,19.25-16.54,79.77-20.56,99.09-80.48-3.45-95.43-67.83-88.08-106.5C2238.26,678.2,2316.89,671.4,2331.85,679Z"/><path class="cls-32" d="M2263.5,1530.93l-178.14-212,10.71-268.18c-2.26-13.12-19.48-118.6,13.67-198.86,17.23-41.72,55.61-99.86,55.61-99.86,13.42-15.52,43-12.32,43-12.32,33.61,12.73,48,31.75,81.64,44.47,9.87,8.22,120.39,102.82,98.29,213.41a157.36,157.36,0,0,1-19.84,50.57q-18.09,84.72-36.45,169.7Q2298,1375,2263.5,1530.93Z"/><path class="cls-32" d="M2170.48,1532.63q-24.27,60.91-49.35,111.81c-51,104.69-102.75,179.93-147.9,234q-14.81,17.71-28.64,32.52c-7.6,8.25-14.56,15.37-21.19,22-4.05,4-7.93,7.76-11.65,11.32l-.81.81c-28,26.86-80.74,75.89-105.18,61.81-15.69-9.22-14.72-41.91-9.54-72.65,3.55-22,9.38-43.2,12.45-54,.65-2.59,1.3-4.37,1.62-5.67a1499.93,1499.93,0,0,1,124.27-304.2c1.94-3.56,3.88-7.28,6-10.84A1495.39,1495.39,0,0,1,2058,1378.91c25.57-6.8,52.11-5.18,76.05,6.31Q2152.28,1458.77,2170.48,1532.63Z"/><path class="cls-32" d="M2181.32,1574.7c-14.4,29.93-35.76,53.88-60.19,69.74-36.41,24-79.77,30.1-117,12.3-36.57-17.64-58.9-54.53-63.59-97.25-3.4-29.45,1.78-61.65,16.5-92.23,22-46.12,60.36-77.67,101-88.35,25.57-6.8,52.11-5.18,76.05,6.31C2196.21,1414.83,2217.24,1499.78,2181.32,1574.7Z"/><path class="cls-36" d="M2532.74,1862.65c-74.7,10.54-126.13,18.82-200.82,29.36-86.67-130.88-138-228.82-161.48-307.15-19.54-65.29-17.15-123.65,2.82-161.94,30.3-58.12,99.6-90.41,170-77,25.06,30.72,14,45.69,34.22,86.67C2462.26,1604.17,2520.43,1754.32,2532.74,1862.65Z"/><path class="cls-35" d="M1973.23,1872.27v6.15a158,158,0,0,0-28.64,32.52c-7.6,8.25-14.56,15.37-21.19,22-3.08,4.69-6.15,9.54-9.06,14.24-1.14-.65-2.27-1.46-3.4-2.11-6.31-4-12.46-7.93-18.77-11.81-10.84-7-21.69-13.75-32.53-20.71-17-10.68-34-21.52-51-32.36C1863.53,1877.28,1918.38,1874.86,1973.23,1872.27Z"/><path class="cls-36" d="M1976,1949.13l-182-74.84q75.84-212.37,151.7-424.75c2.62-5.62,37.76-77.81,115.28-89,64.88-9.36,131.57,28,161.82,93-11.65,39.07-32.33,185.29-32.33,185.29S2048,1850.68,1976,1949.13Z"/><path class="cls-33" d="M2411.51,1451.89c-22.4,26.75-88.57,42.45-165.66,55.9-4.43.77-8.91,1.54-13.41,2.3-182.31,30.8-315.94-84-324.32-91.93,25.72-88.77,35.32-164.74,53.29-221.57,41.59-131.63,73.4-222.26,96.08-283.22,15.78-42.38,27.17-70.42,34.38-87.94,13.55-32.92,25.27-60,33.35-78.3l58.77-5.66q92.19,99.54,114.86,85.65c5.91-3.63,9.74-12.67,8.54-27.92,25.7,18,58.71,47.61,78.77,94,28.79,66.58,12,131,4.49,168.67C2375.39,1138.72,2395.69,1293,2411.51,1451.89Z"/><path class="cls-34" d="M2245.85,1507.79c-4.43.77-8.91,1.54-13.41,2.3-182.31,30.8-315.94-84-324.32-91.93,25.72-88.77,35.32-164.74,53.29-221.57,41.59-131.63,73.4-222.26,96.08-283.22,34.84-11.78,69.58-23.7,69.58-23.7s0,160.81-35.89,214-59.8,255.17-35.88,312.32C2073.12,1458.52,2188.24,1493,2245.85,1507.79Z"/><path class="cls-32" d="M2887.05,815.66q13.56,30.27,27.1,60.53c-35.33,25.17-62.86,47.67-81.71,63.79-77.19,66-101.57,93.18-152,110.06-33.62,11.24-64,12.1-84.83,11q-7.66-45.32-15.32-90.63a465.17,465.17,0,0,1,64.5-40.27c82.38-42.38,134.38-37.37,205.53-85.61A335.09,335.09,0,0,0,2887.05,815.66Z"/><path class="cls-32" d="M2094.33,760.51c-35.28,10.68-82.2,53.4-170.71,179.12-7.28,10.52-15.37,22-24.11,34.79-20.71,30.75-45,68-70.87,110.68l77.67,54.05c22.81-24.44,45.62-48.87,68.28-73.63,5-5.5,10.19-11,15.37-16.5,7.28-7.93,14.72-15.86,22.17-24,19.74-21.36,39.64-42.72,59.38-64.08q26.22-81.3,52.59-162.45Z"/><path class="cls-33" d="M2019.17,1073.17l-141.6-117a1304.92,1304.92,0,0,1,102.7-128.13c37.49-41.13,68.25-66.72,106.52-74.54,13.21-2.7,30.59-6.48,38.42-6.38,6.71,9.51,6.61,29.64,12.66,43.42,15.31,34.83,16.67,78.3,6.47,104.69C2099.1,960.18,2064.41,1008.23,2019.17,1073.17Z"/><path class="cls-32" d="M2136.24,1346.4l-48.73,45c-35.13-25.47-65.22-44.4-86.51-57.13-84-50.23-115.68-64.85-152.77-109-44.8-53.37-40.36-88.83-39.22-96.58,2.87-19.49,12.3-34.28,19.65-43.53l63.16,19.8a464,464,0,0,1,58.72,48.29c66.42,64.58,78.25,115.47,146.65,167.54A335.89,335.89,0,0,0,2136.24,1346.4Z"/><polygon class="cls-13" points="1947.48 2564.83 1931.62 2561.67 2167.64 1371.37 2183.5 1374.52 1947.48 2564.83"/><path class="cls-37" d="M2144.38,1530.26a21.79,21.79,0,0,1-17.14-25.61l24.41-123.06a21.79,21.79,0,1,1,42.74,8.47L2170,1513.13A21.79,21.79,0,0,1,2144.38,1530.26Z"/><rect class="cls-38" x="1923.46" y="2545.68" width="22.77" height="59.95" transform="translate(721.91 -408.71) rotate(14.8)"/><polygon class="cls-13" points="2958.87 2027.35 2942.72 2028.23 2875.58 816.62 2891.73 815.72 2958.87 2027.35"/><path class="cls-37" d="M2892.53,976.3a21.79,21.79,0,0,1-23-20.55l-6.94-125.26a21.79,21.79,0,1,1,43.51-2.41l6.94,125.26A21.78,21.78,0,0,1,2892.53,976.3Z"/><rect class="cls-38" x="2937.94" y="2011" width="22.77" height="59.95" transform="translate(14.53 -20.84) rotate(0.41)"/><path class="cls-32" d="M2176.42,1480.69a218.42,218.42,0,0,1-124.34-114l51.38-41.26,105.13,31.07a15.66,15.66,0,0,1,11,12.58,118.12,118.12,0,0,1-43.2,111.65Z"/><path class="cls-32" d="M2914.73,926.91l-39.15-24.28c-4.28-5.91-21.35-30.9-16.63-64.21a86.22,86.22,0,0,1,16.63-39.61,120.37,120.37,0,0,1,83.29,0Q2936.81,862.86,2914.73,926.91Z"/><path class="cls-35" d="M2861.93,876.55a1.58,1.58,0,0,0,1.54-1.73l-3.8-33.9a1.51,1.51,0,0,0-1.72-1.35,1.53,1.53,0,0,0-1.35,1.72l3.8,33.89A1.53,1.53,0,0,0,2861.93,876.55Z"/><path class="cls-39" d="M2356.55,474.54c-3-.58-70-47.2-126.52-15.1-70.09,39.82-84,135.74-45.94,170.67s164,5.89,168.15,3.12,39.54-40.75,39.82-42.23-6.24-46.59-7.25-51.88S2356.55,474.54,2356.55,474.54Z"/><path class="cls-39" d="M2243.22,519.17a223.64,223.64,0,0,1,17.08-16c1.25-1.05,8.09-7.61,9.6-7.08l-24.23-8.49s48.44-27.23,90.36-13L2318.45,453s55.26,3.94,80,43.87c1.56-5.21,3.44-14,7.95-17.35,20,19.13,10.08,53.61-6.82,74.59,21.41-.93,36.66,25.58,12.46,67.86,0,0-34.11-10.28-27.46-54.33-33.79,21.14-85.73,7.09-120.76-3.84l-4.44-1.41,32-9.65c-13.24-2.92-26.51-5.73-39.78-8.54-11.76,38-39.34,51.25-39.34,51.25s-.39-12.07-.32-13.18a80.77,80.77,0,0,1,2-13.5C2218.23,550,2229.69,533.35,2243.22,519.17Z"/><path class="cls-32" d="M2187.21,655.83c6.39,2.58,11.7,13.36,14.06,25.08A62.08,62.08,0,0,0,2225.94,719q2.05,1.47,4.33,3c27.64,18.48,72.21,23.29,72.21,23.29v0c.74.08,44.73,5.11,57-29.8,1.68-4.77,3.69-12.34,5.74-21.17,1.42-6.1,2.91-12.79,4.36-19.6,5-23.7,9.73-48.78,11-54.09,1.32-5.62,2.33-10.37,3.16-14.23,1.59-7.71,4.81-25,4.81-25s-45.46,3-77.38-3.56a362.8,362.8,0,0,1-58.3-17.54s-17.27,75.42-26.6,73.92c-.2-.1-.46-.15-.66-.25s-.59-.35-.84-.51-.31-.29-.5-.44c-8-6.85-9.16-33.25-9.16-33.25s-26.41-34.9-42.44-2.85C2157.84,626.58,2173.36,650.22,2187.21,655.83Z"/><path class="cls-40" d="M2345.08,495.89s20.36,13.22,9.58,31.71-50.37-8.4-50.37-8.4-.37,17.66-18.14,16.24-17.4-19.07-17.4-19.07,7.23,12.46,17.47,9.2,13.22-20.36,13.22-20.36,37,27.7,45.44,15.52S2345.08,495.89,2345.08,495.89Z"/><path class="cls-41" d="M2297.49,719.55c-18.63-.56-33.74-31.9-20.2-31.35l50.49,8.13a3.58,3.58,0,0,1,3,4.56C2326.41,713.77,2312.33,721.94,2297.49,719.55Z"/><path class="cls-13" d="M2329,696.72c-12.18,9.28-39.48,3.77-51.69-8.52C2278.45,688.58,2328,696,2329,696.72Z"/><path class="cls-42" d="M2288,637.42c-1.47,6.87-6.57,11.61-11.39,10.58s-7.53-7.44-6.06-14.31,6.57-11.61,11.39-10.58S2289.5,630.55,2288,637.42Z"/><path class="cls-13" d="M2289,635c-.74,3.46-3.4,5.82-5.93,5.28s-4-3.79-3.26-7.25,3.4-5.82,5.94-5.28S2289.78,631.51,2289,635Z"/><path class="cls-42" d="M2356.32,652c-1.47,6.87-6.57,11.61-11.39,10.58s-7.54-7.44-6.06-14.32,6.57-11.6,11.39-10.57S2357.79,645.17,2356.32,652Z"/><path class="cls-13" d="M2357.33,649.59c-.74,3.46-3.4,5.82-5.93,5.28s-4-3.79-3.26-7.25,3.4-5.82,5.94-5.28S2358.07,646.13,2357.33,649.59Z"/><path class="cls-43" d="M2264,617.52a3.43,3.43,0,0,1-2.45-5.82c11.16-11.4,24.06-7.94,29.32-4.52a3.42,3.42,0,0,1-3.72,5.75c-.47-.3-10.77-6.6-20.7,3.56A3.44,3.44,0,0,1,2264,617.52Z"/><path class="cls-43" d="M2311.88,676.24a2.7,2.7,0,0,1-.31-5.38s5.43-.74,7.18-4.74c1.3-2.94-1.19-9.72-3.37-13.6a2.7,2.7,0,0,1,4.7-2.65c.68,1.2,6.5,11.86,3.61,18.42-3,6.84-11.14,7.89-11.49,7.93Z"/><path class="cls-43" d="M2365.18,627.5a3.41,3.41,0,0,1-2.64-1.24c-6.68-8-18-5.61-18.48-5.5a3.42,3.42,0,0,1-1.54-6.67c.64-.15,15.89-3.54,25.29,7.81a3.42,3.42,0,0,1-2.63,5.6Z"/><ellipse class="cls-35" cx="2258.33" cy="661.21" rx="10.31" ry="19.45" transform="translate(1139.05 2731.11) rotate(-77.92)"/><path class="cls-35" d="M2344,679.57c-1.19,5.54,6.39,11.91,16.89,14.16a39.41,39.41,0,0,0,4.27.64c1.42-6.1,2.91-12.79,4.36-19.59a37.46,37.46,0,0,0-4.32-1.21C2354.73,671.33,2345.22,674,2344,679.57Z"/><path class="cls-35" d="M2196.66,642.29a2.7,2.7,0,0,1-1.79-3.94c.45-.83,11-20.45-4.66-30a2.7,2.7,0,1,1,2.8-4.61c16.09,9.78,11.34,28.6,6.58,37.19A2.7,2.7,0,0,1,2196.66,642.29Z"/><path class="cls-35" d="M2200.75,630.91a2.7,2.7,0,0,1-1.6-1c-7.17-9.61-13.18-5.84-13.83-5.38a2.72,2.72,0,0,1-3.75-.63,2.69,2.69,0,0,1,.57-3.74c.11-.08,10.77-7.64,21.33,6.52a2.69,2.69,0,0,1-.55,3.77A2.64,2.64,0,0,1,2200.75,630.91Z"/><path class="cls-44" d="M2553.27,2516.83l-5-18s-7-24.82-6.47-29.91,7.27-6.56,7.27-6.56,27.09.7,48.66-2.79,29.73-9,29.73-9,8.4-1.36,10.36,1.19,2.48,30,2.48,30l-12.73,50.68Z"/><path class="cls-45" d="M2772.76,2557.44l.07.59c0,.1,0,.2,0,.3l0,.38v.16l0,.24c0,.07,0,.13,0,.19v.38l0,.25v.88a38777794470.14,38777794470.14,0,0,1,0,.28l0,.25v.08l0,.19v.15a7.37,7.37,0,0,1-1,3.88v0c-.49.88-8,13.61-41,21.52l-1.63.37-.18,0-.24.06-.72.14-.63.13-.87.17h-.06c-.16,0-.32.06-.49.09-1,.2-2.09.39-3.22.58l-.42.07-.85.14h-.08c-1.63.25-3.35.51-5.16.76l-.15,0-.47.07-.48.07-1.46.19-.49.07-1.42.18-1.09.13c-.33,0-.67.09-1,.12H2710l-.95.12-.17,0c-46.46,5.56-132.3,9.14-147.57,9.75h0l-.59,0h-.36l-1.36.06a.46.46,0,0,1-.13-.08,1.5,1.5,0,0,1-.27-.23c-1.4-1.45-3.35-6.87-5.18-14.52-.48-2-.94-4.18-1.39-6.47a195.38,195.38,0,0,1-3.2-25.08c-1.26-20.79-.49-55.4-.49-55.4,59.26,12.83,92-17.06,92-17.06s34.89,36.65,78.54,42.69c.6.1,1.21.17,1.83.23s1.22.15,1.84.21c1.23.12,2.47.22,3.71.29q1,0,1.89.12l1.66.13h.1l1.68.17c1.28.13,2.5.29,3.69.47l1.23.19c1.56.25,3.07.54,4.5.87l1,.23.66.17,1.27.32,1.15.33,1,.31c1.8.56,3.48,1.18,5,1.84l.87.38c.65.29,1.27.59,1.88.9l.79.4c.51.27,1,.55,1.5.83l.71.43.78.49.6.39c.22.14.44.29.65.45a33.48,33.48,0,0,1,4.05,3.3c.17.15.34.32.5.49.33.32.65.65,1,1,0,0,0,0,0,0,.29.32.57.65.84,1a31.38,31.38,0,0,1,3.91,5.79c.14.27.27.54.4.8s.16.34.24.51a30.21,30.21,0,0,1,1.19,2.94l.09.25.08.24,0,.11.05.14.08.24.07.25.08.24.07.24.06.23.07.24.06.23h0l.12.45.05.24c0,.15.08.29.11.44h0l.05.23,0,.17a.14.14,0,0,0,0,.06h0l0,.2,0,.22,0,.21.05.22.1.52,0,.1,0,.21.07.4,0,.19.06.39,0,.19Z"/><path class="cls-13" d="M2639.92,2530.77a2.92,2.92,0,0,1-1-.17,3.09,3.09,0,0,1-1.93-3.92c8.69-25.33,30.32-26.47,31.24-26.51a3.09,3.09,0,0,1,.25,6.18c-.76,0-18.37,1.14-25.64,22.33A3.08,3.08,0,0,1,2639.92,2530.77Z"/><path class="cls-13" d="M2666.61,2532.84a3.13,3.13,0,0,1-.86-.12,3.09,3.09,0,0,1-2.11-3.83c4.23-14.57,18.67-18.47,25.72-18.5h0a3.1,3.1,0,0,1,0,6.19c-.67,0-15.83.32-19.81,14A3.1,3.1,0,0,1,2666.61,2532.84Z"/><path class="cls-46" d="M2772.73,2557.3l0-.19-.06-.39,0-.19-.07-.4,0-.21,0-.1-.1-.52-.05-.22,0-.21,0-.22,0-.2h0v0l0-.17-.05-.23h0l-.06-.21,0-.23-.05-.24-.12-.45h0l-.06-.23-.07-.24-.06-.23-.07-.24-.08-.24-.07-.25-.08-.24-.05-.14,0-.11-.08-.24-.09-.25a30.21,30.21,0,0,0-1.19-2.94c-.08-.17-.15-.34-.24-.51s-.26-.53-.4-.8a31.38,31.38,0,0,0-3.91-5.79c-.27-.32-.55-.65-.84-1,0,0,0,0,0,0-.31-.33-.63-.66-1-1-.16-.17-.33-.34-.5-.49a33.48,33.48,0,0,0-4.05-3.3c-.21-.16-.43-.31-.65-.45l-.6-.39-.78-.49-.71-.43c-.48-.28-1-.56-1.5-.83l-.79-.4c-.61-.31-1.23-.61-1.88-.9l-.87-.38c-1.56-.66-3.24-1.28-5-1.84l-1-.31-1.15-.33-1.27-.32-.66-.17-1-.23c-1.43-.33-2.94-.62-4.5-.87l-1.23-.19c-1.19-.18-2.41-.34-3.69-.47l-1.68-.17h-.1l-1.66-.13q-.93-.08-1.89-.12c-1.24-.07-2.48-.17-3.71-.29-.62-.07-1.23-.13-1.84-.21s-1.22-.14-1.83-.23a59.26,59.26,0,0,0-17.45,30.47,71.84,71.84,0,0,0-1.33,20.62c-35.45,3.56-111.81,10.47-148.1,3.76.45,2.29.91,4.46,1.39,6.47,1.83,7.65,3.78,13.07,5.18,14.52a1.5,1.5,0,0,0,.27.23.46.46,0,0,0,.13.08l1.36-.06h.36l.59,0h0c14.93-.68,97.21-4.5,141.27-9.06l.55-.06.56-.06.48-.05h.06l.55-.06.54-.06.54,0,.54-.06,1.07-.12.53-.07.88-.09.73-.09.39,0,.61-.07.5-.06,1-.13h.08l1.42-.18.49-.07,1.46-.19.48-.07.47-.07.47-.06.47-.06.45-.07.46-.07.46-.06.45-.07.2,0,.25,0,.45-.08.43-.06.77-.12h.1l.23,0,.12,0h.08l.43-.07.42-.07.42-.07.41-.07.4-.07.41-.06.4-.08.79-.14.27,0,.11,0h0l.41-.09c.17,0,.33-.05.49-.09l1.56-.31.72-.14.24-.06.14,0,0,0,1.63-.37c32.92-7.91,40.47-20.64,41-21.52v0a7.37,7.37,0,0,0,1-3.88v-.15l0-.19v-.08l0-.25v-.16l0-.12v-1l0-.21v-.29l0-.15v-.09l0-.24v-.16l0-.38v-.12l-.09-.77Z"/><path class="cls-44" d="M1558,2420.74l7.09-17.26s9.66-23.91,13.2-27.61,9.76-.73,9.76-.73,21,17.13,40.18,27.58,29,11.11,29,11.11,7.48,4.07,7.46,7.28-16.39,25.23-16.39,25.23l-41.1,32.27Z"/><path class="cls-45" d="M1706.7,2587.23l-.3.51-.16.26-.19.33-.09.13-.12.21a1.16,1.16,0,0,0-.11.16l0,0,0,.06,0,.07-.08.12,0,0c0,.08-.1.14-.14.21l-.07.12-.08.11-.06.11-.08.11-.07.1-.06.11-.06.09a.76.76,0,0,1-.08.11.75.75,0,0,1-.07.12l-.13.21-.05.07-.09.16,0,.07,0,.06a7.35,7.35,0,0,1-3.14,2.47l0,0h0c-.93.4-14.7,5.84-45.57-8.06l-1.51-.7-.16-.08-.23-.11-.66-.32-.57-.29-.8-.39,0,0a4.66,4.66,0,0,1-.45-.22c-.92-.47-1.89-1-2.89-1.52l-.38-.2-.75-.41-.08,0c-1.44-.8-3-1.64-4.54-2.55l-.13-.08-.42-.23-.42-.24-1.27-.75-.43-.24-1.23-.73-.94-.56-.88-.53-.08-.05-.82-.49-.15-.09c-40.14-24-110.21-73.76-122.65-82.63l0,0-.48-.34-.29-.21-1.11-.79a.39.39,0,0,1,0-.13,1.67,1.67,0,0,1-.08-.35c-.22-2,1.56-7.49,4.8-14.65.85-1.89,1.81-3.89,2.86-6a198.31,198.31,0,0,1,12.82-21.78c11.74-17.21,33.53-44.1,33.53-44.1,39,46.43,83.21,42.85,83.21,42.85s5.16,50.34,36,81.84c.42.44.86.88,1.31,1.3s.88.87,1.33,1.29c.9.85,1.82,1.69,2.76,2.5.49.42,1,.84,1.42,1.26s.83.74,1.23,1.12l.08.06,1.23,1.17c.92.88,1.79,1.75,2.62,2.62l.86.9q1.62,1.74,3,3.45c.23.26.45.54.67.81l.42.53.8,1,.71,1c.21.28.41.57.61.86a53.45,53.45,0,0,1,2.86,4.54c.16.28.31.56.45.83.34.63.65,1.25.94,1.86.13.27.26.54.37.81.25.53.47,1.05.68,1.57q.16.39.3.78c.12.29.22.57.32.86s.16.45.23.67.17.51.25.76a34.23,34.23,0,0,1,1.18,5.08c0,.23.07.47.1.7.06.46.11.92.15,1.36a.07.07,0,0,0,0,0c0,.43.06.86.08,1.29a31,31,0,0,1-.46,7c0,.3-.11.6-.17.89s-.08.36-.13.54a30.79,30.79,0,0,1-.85,3.06l-.09.24-.08.25,0,.1,0,.14-.08.24-.1.24-.08.24-.1.23-.08.23-.1.22-.09.23h0l-.18.43-.1.22-.18.41h0l-.1.21-.07.15a.09.09,0,0,0,0,.06h0l-.1.18-.1.2-.09.2-.1.19-.24.48,0,.09-.1.18-.19.36-.09.17-.19.35-.1.16Z"/><path class="cls-13" d="M1619.89,2485.46a3.09,3.09,0,0,1-1.7-5.67c22.38-14.71,40.18-2.37,40.93-1.84a3.09,3.09,0,0,1-3.58,5c-.64-.44-15.23-10.34-34,2A3,3,0,0,1,1619.89,2485.46Z"/><path class="cls-13" d="M1667.68,2504.51a3.06,3.06,0,0,1-1.87-.63c-.53-.4-12.71-9.44-24.26-1a3.09,3.09,0,1,1-3.64-5c12.26-8.93,26.07-3.17,31.66,1.12a3.09,3.09,0,0,1,.56,4.33A3.06,3.06,0,0,1,1667.68,2504.51Z"/><path class="cls-46" d="M1706.77,2587.1l.1-.16.19-.35.09-.17.19-.36.1-.18,0-.09.24-.48.1-.19.09-.2.1-.2.1-.18h0l0-.05.07-.15.1-.21h0l.08-.2.1-.21.1-.22.18-.43h0l.09-.23.1-.22.08-.23.1-.23.08-.24.1-.24.08-.24,0-.14,0-.1.08-.25.09-.24a30.79,30.79,0,0,0,.85-3.06c0-.18.09-.36.13-.54s.12-.59.17-.89a31,31,0,0,0,.46-7c0-.43,0-.86-.08-1.29a.07.07,0,0,1,0,0c0-.44-.09-.9-.15-1.36,0-.23-.06-.47-.1-.7a34.23,34.23,0,0,0-1.18-5.08c-.08-.25-.16-.51-.25-.76s-.15-.44-.23-.67-.2-.57-.32-.86-.19-.52-.3-.78c-.21-.52-.43-1-.68-1.57-.11-.27-.24-.54-.37-.81-.29-.61-.6-1.23-.94-1.86-.14-.27-.29-.55-.45-.83a53.45,53.45,0,0,0-2.86-4.54c-.2-.29-.4-.58-.61-.86l-.71-1-.8-1-.42-.53c-.22-.27-.44-.55-.67-.81q-1.41-1.71-3-3.45l-.86-.9c-.83-.87-1.7-1.74-2.62-2.62l-1.23-1.17-.08-.06c-.4-.38-.81-.75-1.23-1.12s-.93-.84-1.42-1.26c-.94-.81-1.86-1.65-2.76-2.5-.45-.43-.89-.85-1.33-1.29s-.87-.86-1.31-1.3a59.26,59.26,0,0,0-32.44,13.41,71.48,71.48,0,0,0-13.68,15.49c-30.21-18.89-94.82-60.18-119.4-87.71-1,2.09-2,4.09-2.86,6-3.24,7.16-5,12.65-4.8,14.65a1.67,1.67,0,0,0,.08.35.39.39,0,0,0,0,.13l1.11.79.29.21.48.34,0,0c12.22,8.6,79.62,56,117.25,79.32l.47.3.47.29.42.26,0,0,.47.28.47.29.46.28.46.29.92.55.46.28.75.46.63.38.34.2.52.31.44.27.88.52.06,0,1.23.73.43.24,1.27.75.42.24.42.23.4.24.41.23.41.23.4.23.4.23.4.22.17.11.23.12.39.21.39.22.67.37.1.06.2.11.1.05.08,0,.37.21.38.2.38.2.36.2.36.2.36.19.37.19.7.37.25.13.1,0,0,0,.37.18a4.66,4.66,0,0,0,.45.22l1.42.72.66.32.23.11.12.06,0,0,1.51.7c30.87,13.9,44.64,8.46,45.57,8.06h0l0,0a7.35,7.35,0,0,0,3.14-2.47l0-.06,0-.07.09-.16.05-.07.13-.21,0,0,0-.08h0l.06-.1.06-.09.06-.11.07-.1.08-.11.06-.11.08-.11.07-.12,0-.06.11-.18.08-.12,0-.07,0-.06.08-.13,0-.07.12-.21.09-.13.19-.33.07-.11.39-.66Z"/><path class="cls-5" d="M2488.85,2534.78c-25.37-5-33.25,53.2-58.88,80-8.71,9.12-24.16,3.67-25.38-8.89-7.75-79.62-22.62-184.79-47.27-187.69-39.8-4.69-62.86,130.15-91.33,136.87s-22.65-94.17-60.49-99.56-52.64,46.63-78,100.41c-43.87,92.9-62.86,43.37-93,46.89s-49,87.58-49,87.58l539.3,4.69S2522.91,2541.43,2488.85,2534.78Z"/><path class="cls-13" d="M2158.5,2692.15l-1.62-.48c18.3-61.75,37.45-193.67,37.64-195l1.68.24C2196,2498.24,2176.84,2630.28,2158.5,2692.15Z"/><path class="cls-13" d="M2303.4,2693.47l-1.58-.59c34.76-92.42,50.43-225.22,50.59-226.55l1.68.2C2353.93,2467.86,2338.23,2600.86,2303.4,2693.47Z"/><rect class="cls-13" x="2411.45" y="2633.9" width="121.85" height="1.69" transform="translate(-585.65 4559.07) rotate(-79)"/><path class="cls-13" d="M2041,2691.05c-4.49-26.51-4.19-66.7-4.19-67.11l1.69,0c0,.4-.29,40.45,4.17,66.81Z"/><path class="cls-13" d="M2184.81,2558.76c-8.41-22.34-16.19-51.64-16.27-51.93l1.63-.43c.08.29,7.84,29.51,16.22,51.76Z"/><path class="cls-13" d="M2175.71,2617l-1.13-1.25c20.46-18.35,58.07-77.1,58.45-77.69l1.42.91C2234.07,2539.56,2196.34,2598.5,2175.71,2617Z"/><path class="cls-13" d="M2311,2666.71c-11.72-35.77-31.15-106.49-31.34-107.2l1.63-.45c.19.71,19.61,71.39,31.32,107.12Z"/><path class="cls-13" d="M2322,2634.08l-1.1-1.29c34-28.79,68.08-72.63,68.42-73.07l1.33,1C2390.31,2561.2,2356.11,2605.17,2322,2634.08Z"/><path class="cls-13" d="M2340.4,2545.16c-16.93-28.43-18.48-61.18-18.49-61.51l1.69-.07c0,.33,1.55,32.66,18.25,60.72Z"/><rect class="cls-13" x="2469.28" y="2573.82" width="1.69" height="41.56" transform="translate(-662.43 856.63) rotate(-17.39)"/><path class="cls-13" d="M2466.48,2668.44l-1.05-1.32c23.23-18.59,45.91-63.3,46.13-63.75l1.51.76C2512.85,2604.58,2490,2649.62,2466.48,2668.44Z"/><path class="cls-13" d="M2040.66,2678.55l-1.07-1.31c15.33-12.55,27.29-49.74,27.41-50.11l1.61.51a214,214,0,0,1-8,20.52C2054,2662.91,2047.27,2673.13,2040.66,2678.55Z"/><rect class="cls-13" x="2027.48" y="2623.21" width="1.69" height="26.18" transform="translate(-1266.19 2177.68) rotate(-44.5)"/><path class="cls-7" d="M2907.84,2242.86c19.41-1.24,19.67,42.9,36.21,65.39a11.14,11.14,0,0,0,19.79-4.18c13.47-58.66,34.72-135.69,53.39-135.47,30.14.35,34.33,103.17,54.92,110.94s26-68.08,54.74-68.44,34.77,39.86,48.52,82.44c23.76,73.55,42.71,38.43,64.89,44s28.08,70.07,28.08,70.07L2865.58,2359S2881.79,2244.53,2907.84,2242.86Z"/><path class="cls-13" d="M3139.11,2392.16c-7.71-47.93-9.26-148.29-9.27-149.3l1.27,0c0,1,1.56,101.28,9.25,149.12Z"/><path class="cls-13" d="M3030.88,2379.15c-17-72.45-15.92-173.19-15.9-174.2h1.27c0,1-1.14,101.6,15.87,173.9Z"/><rect class="cls-13" x="2909.85" y="2273.19" width="1.27" height="91.66" transform="translate(-140.94 188.86) rotate(-3.63)"/><path class="cls-13" d="M3226.85,2402.68l-1.21-.38c5.87-19.23,9.52-49.13,9.56-49.43l1.26.15C3236.42,2353.32,3232.76,2383.33,3226.85,2402.68Z"/><path class="cls-13" d="M3132.36,2290.1l-1.12-.6c8.4-15.79,17-36.84,17.1-37.05l1.17.48C3149.43,2253.14,3140.79,2274.25,3132.36,2290.1Z"/><path class="cls-13" d="M3133.53,2334.43c-13.61-15.79-36.07-63.41-36.3-63.89l1.15-.54c.23.48,22.62,47.94,36.11,63.6Z"/><path class="cls-13" d="M3027.77,2358.45l-1.15-.55c12.18-25.53,33.5-76.38,33.71-76.89l1.17.49C3061.29,2282,3040,2332.89,3027.77,2358.45Z"/><path class="cls-13" d="M3022.74,2333.05c-22.66-24.86-43.93-61-44.14-61.33l1.09-.65c.22.36,21.42,36.36,44,61.12Z"/><path class="cls-13" d="M3017.6,2264.94l-1-.79c15.17-19.32,19.43-43.29,19.48-43.53l1.25.21C3037.29,2221.07,3033,2245.35,3017.6,2264.94Z"/><rect class="cls-13" x="2900.41" y="2288.66" width="31.27" height="1.27" transform="translate(-383.9 3978.84) rotate(-65.25)"/><path class="cls-13" d="M2911.63,2344.74c-15.73-16.32-28.43-52.12-28.55-52.48l1.2-.43c.12.36,12.73,35.91,28.26,52Z"/><path class="cls-13" d="M3228.34,2393.39c-10.49-11.12-15.72-39.48-15.94-40.68l1.25-.23c0,.29,5.39,29.19,15.62,40Z"/><rect class="cls-13" x="3231.77" y="2362.42" width="19.69" height="1.27" transform="translate(-767.32 2506.3) rotate(-38.14)"/><path class="cls-4" d="M1098.89,2347.53c-12.2-3.45-18.42,24.64-32,36.7a7.26,7.26,0,0,1-12-5.38c-.53-39.22-3.5-91.22-15.43-93.64-19.26-3.92-36,61-50.22,63.15s-7.21-46.94-25.48-51.12-27.63,20.63-42.23,45.87c-25.23,43.6-32.49,18.63-47.38,19.11S846.56,2403,846.56,2403l263.32,24.32S1115.26,2352.17,1098.89,2347.53Z"/><path class="cls-13" d="M931.05,2410.93l-.77-.3c11.46-29.43,26.2-93.11,26.35-93.74l.81.18C957.29,2317.71,942.53,2381.45,931.05,2410.93Z"/><path class="cls-13" d="M1001.79,2417.49l-.74-.35c20.75-43.74,33.84-108,34-108.63l.81.16C1035.7,2309.32,1022.59,2373.66,1001.79,2417.49Z"/><rect class="cls-13" x="1056.88" y="2395.29" width="59.75" height="0.83" transform="translate(-1514.15 2790.29) rotate(-74.23)"/><path class="cls-13" d="M873.69,2405.59c-1.11-13.13.68-32.76.7-33l.82.08c0,.19-1.79,19.75-.69,32.81Z"/><path class="cls-13" d="M949.35,2346.83c-3.2-11.26-5.8-25.9-5.83-26l.82-.15c0,.15,2.62,14.74,5.81,26Z"/><path class="cls-13" d="M942.52,2374.91l-.5-.66c10.75-8.13,31.53-35.3,31.74-35.57l.65.5C974.21,2339.46,953.36,2366.72,942.52,2374.91Z"/><path class="cls-13" d="M1006.62,2404.73c-4.27-18-10.88-53.31-10.94-53.66l.81-.15c.07.35,6.67,35.68,10.93,53.61Z"/><path class="cls-13" d="M1013.3,2389.23l-.48-.67c17.78-12.68,36.23-32.71,36.42-32.91l.61.56C1049.66,2356.41,1031.15,2376.5,1013.3,2389.23Z"/><path class="cls-13" d="M1025.93,2346.54c-7.11-14.59-6.53-30.65-6.52-30.81l.82,0c0,.16-.57,16,6.44,30.42Z"/><rect class="cls-13" x="1086.88" y="2365.8" width="0.83" height="20.38" transform="translate(-492.38 294.6) rotate(-12.61)"/><path class="cls-13" d="M1082.5,2411.92l-.46-.68c12.11-8.14,25-29.06,25.15-29.27l.7.43C1107.76,2382.62,1094.76,2403.69,1082.5,2411.92Z"/><path class="cls-13" d="M874,2399.47l-.47-.68c8-5.51,15.37-23.19,15.44-23.37l.77.32C889.46,2376.47,882.23,2393.82,874,2399.47Z"/><rect class="cls-13" x="869.31" y="2371.9" width="0.83" height="12.84" transform="translate(-1319.14 1104.86) rotate(-39.72)"/></g></g></svg>