<svg xmlns="http://www.w3.org/2000/svg" viewBox="0 0 4680 3120"><defs><style>.cls-1{fill:#fff;}.cls-2{fill:#edf5ff;}.cls-3{fill:#e5ad70;}.cls-4{opacity:0.5;}.cls-5{fill:#935505;}.cls-6{fill:#e59a20;}.cls-7{fill:#fcbd4c;}.cls-8{fill:#d8dcf7;}.cls-9{fill:#333;}.cls-10{fill:#4d4d4d;}.cls-11{fill:#b3d4f7;}.cls-12{fill:#717171;}.cls-13{fill:#edeef6;}.cls-14{fill:#fdce8c;}.cls-15{fill:#c67c12;}.cls-16{fill:#e0a33f;}.cls-17{fill:#161099;}.cls-18{fill:#4242ba;}.cls-19{fill:#ff4a60;}.cls-20{fill:#f9738a;}.cls-21{fill:#4f9e95;}.cls-22{fill:#89c4c0;}.cls-23{fill:#6bafa8;}.cls-24{fill:#f08d32;}.cls-25{fill:#18004c;}.cls-26{fill:#fd9772;}.cls-27{fill:#ce8f51;}.cls-28{fill:#dd7a66;}.cls-29{fill:#ff1d38;}.cls-30{fill:#2c0b73;}.cls-31{fill:#db5b46;}.cls-32{fill:#fc6a3d;}.cls-33{fill:#b30217;}.cls-34{fill:#f9cf9d;}</style></defs><title>05</title><g id="_05" data-name="05"><rect id="_05-2" data-name="05" class="cls-1" width="4680" height="3120"/><path class="cls-2" d="M2332.07,810.37c-873.56,0-1581.73,708.17-1581.73,1581.73H3913.81C3913.81,1518.54,3205.64,810.37,2332.07,810.37Z"/><ellipse class="cls-3" cx="2339.83" cy="2481.22" rx="1884.58" ry="179.14"/><g class="cls-4"><ellipse class="cls-5" cx="2918.78" cy="2438.91" rx="823.79" ry="61.02"/></g><g class="cls-4"><ellipse class="cls-5" cx="1159.1" cy="2412.68" rx="466.82" ry="46.39"/></g><path class="cls-6" d="M1408.54,1348.65c-172.08-57.52-358.21,35.34-415.74,207.42s35.34,358.22,207.41,415.74,358.22-35.33,415.75-207.41S1580.63,1406.18,1408.54,1348.65Z"/><path class="cls-7" d="M1435.73,1357.74c-172.08-57.53-358.22,35.33-415.75,207.41s35.34,358.22,207.42,415.75,358.21-35.34,415.74-207.42S1607.81,1415.27,1435.73,1357.74Z"/><path class="cls-6" d="M1425.23,1389.12a299.31,299.31,0,1,0,173,150.26A297.38,297.38,0,0,0,1425.23,1389.12Zm172,373.13c-49.21,147.19-209,226.91-356.19,177.7s-226.91-209-177.7-356.19,209-226.92,356.18-177.71S1646.48,1615.05,1597.28,1762.25Z"/><path class="cls-6" d="M1450.32,1683.62q-10.5-19.66-24.13-29.74t-50.27-28q-43.07-21.23-52.18-29.08-9.35-7.83-11.23-29.28-1.14-12.87,2.47-19.68t12-7.54q10.38-.91,14.21,6.26t5.95,31.34l1.33,15.13,91.25-8q-.12-11.6-.61-17.24-3.57-40.42-26.6-61.5t-65.73-22.77l-2.57-29.13-42,3.7,2.57,29.14q-45.83,9.49-66.92,34.8t-17.49,66.19q2.49,28.23,15.41,49.62t29,32.38q16.11,11,60.2,33.5,26.44,13.36,31.9,26.2t8.17,43.55q1.07,12.19-2.9,18.81t-13.23,7.42q-10.83,1-14.45-7.71t-6.85-45.49l-2-22.36-91.24,8.05L1236,1750q5.37,61,34.86,83.07a109.93,109.93,0,0,0,66.4,22.49l3.12,35.45,42-3.7-3-34.33q46.39-10.7,67.44-40.54t16.74-78.64Q1460.81,1703.3,1450.32,1683.62Z"/><path class="cls-8" d="M3527.91,1255.93a26.86,26.86,0,1,0,26.86,26.86A26.86,26.86,0,0,0,3527.91,1255.93Z"/><path class="cls-8" d="M3487.83,1628.55a4.29,4.29,0,0,0-6.06,0L3458.3,1652l-23.46-23.47a4.28,4.28,0,0,0-6.05,6.06l23.46,23.46-23.46,23.47a4.28,4.28,0,0,0,6.05,6.06l23.46-23.47,23.47,23.47a4.29,4.29,0,1,0,6.06-6.06l-23.47-23.47,23.47-23.46A4.31,4.31,0,0,0,3487.83,1628.55Z"/><path class="cls-8" d="M3385.87,1170.86a4.28,4.28,0,0,0-6,0l-23.47,23.46-23.47-23.46a4.28,4.28,0,0,0-6.05,6.05l23.47,23.47-23.47,23.46a4.28,4.28,0,0,0,6.05,6.06l23.47-23.47,23.47,23.47a4.28,4.28,0,1,0,6-6.06l-23.46-23.46,23.46-23.47A4.28,4.28,0,0,0,3385.87,1170.86Z"/><path class="cls-8" d="M3156.69,1350.41a4.28,4.28,0,0,0-6.05,0l-23.47,23.46-23.47-23.46a4.28,4.28,0,0,0-6,6l23.47,23.47-23.47,23.46a4.28,4.28,0,0,0,6,6.06l23.47-23.47,23.47,23.47a4.28,4.28,0,0,0,6.05-6.06l-23.46-23.46,23.46-23.47A4.28,4.28,0,0,0,3156.69,1350.41Z"/><path class="cls-8" d="M3288.16,1397.17a36.63,36.63,0,1,0,36.64,36.63A36.63,36.63,0,0,0,3288.16,1397.17Z"/><circle class="cls-8" cx="3212.86" cy="1078.05" r="36.63"/><circle class="cls-1" cx="2079.38" cy="1466.48" r="161.7" transform="translate(-427.93 1899.86) rotate(-45)"/><path d="M2187.71,1345.09a162.7,162.7,0,1,0-108.54,284.1q4.7,0,9.44-.26c89.57-5.09,158.3-82.11,153.21-171.68A161.64,161.64,0,0,0,2187.71,1345.09Zm-99.22,281.84A160.7,160.7,0,0,1,2070.26,1306q4.68-.27,9.32-.27a160.73,160.73,0,0,1,160.24,151.6C2244.85,1545.84,2177,1621.9,2088.49,1626.93Z"/><path class="cls-1" d="M2056.12,1305.84a161.71,161.71,0,1,0,170.62,152.27A161.71,161.71,0,0,0,2056.12,1305.84Z"/><path d="M2173.63,1345.89A162.71,162.71,0,1,0,2065.08,1630c3.14,0,6.29-.08,9.44-.26,89.57-5.09,158.3-82.11,153.21-171.68A161.63,161.63,0,0,0,2173.63,1345.89Zm-99.22,281.84a160.7,160.7,0,1,1-18.24-320.89c3.12-.18,6.23-.26,9.33-.26a160.71,160.71,0,0,1,160.24,151.59C2230.76,1546.64,2162.88,1622.7,2074.41,1627.73Z"/><path class="cls-1" d="M2163.5,1359.27a147.34,147.34,0,1,0,49,101.56A146.39,146.39,0,0,0,2163.5,1359.27Zm-90.24,248.24c-76.27,4.33-141.84-54.19-146.18-130.46s54.19-141.84,130.46-146.18,141.84,54.19,146.18,130.46S2149.53,1603.18,2073.26,1607.51Z"/><path d="M2164.16,1358.53a148.33,148.33,0,1,0-98.95,259q4.29,0,8.61-.25a148.32,148.32,0,0,0,90.34-258.75Zm10.41,208.1A146.33,146.33,0,1,1,2057.1,1323.1q4.26-.24,8.49-.24a146.33,146.33,0,0,1,109,243.77Z"/><path d="M2057.48,1329.88c-76.81,4.36-135.76,70.41-131.4,147.23,4.22,74.14,65.88,131.63,139.23,131.63,2.65,0,5.33-.08,8-.23,76.82-4.37,135.76-70.42,131.4-147.23S2134.31,1325.51,2057.48,1329.88Zm15.72,276.63c-75.73,4.31-140.82-53.8-145.12-129.51s53.8-140.82,129.52-145.13l-.06-1,.06,1c75.72-4.3,140.82,53.8,145.12,129.52S2148.92,1602.21,2073.2,1606.51Z"/><path class="cls-1" d="M2117.64,1404.7a47.43,47.43,0,0,0-13.95-11.84,60.92,60.92,0,0,0-18.81-6.77l1.53-24.75-19.65-1.21-1.5,24.41a67.94,67.94,0,0,0-20.24,3.51,51.21,51.21,0,0,0-15.88,8.7,40.92,40.92,0,0,0-10.68,13.31,44.38,44.38,0,0,0-4.52,17.47q-.69,11.17,2.68,19.51a43.17,43.17,0,0,0,10,14.81,73,73,0,0,0,16.17,11.7,229.59,229.59,0,0,0,21.31,10.18,89.36,89.36,0,0,1,11.55,5.63,33.66,33.66,0,0,1,7.58,6,17.73,17.73,0,0,1,4,6.88,24.45,24.45,0,0,1,.84,8.52,20.59,20.59,0,0,1-2,7.73,16.82,16.82,0,0,1-4.8,5.94,21,21,0,0,1-7.56,3.66,31.69,31.69,0,0,1-10.22.86,38,38,0,0,1-9.8-1.92,22,22,0,0,1-8.38-5.09,22.79,22.79,0,0,1-5.54-9.05,34.81,34.81,0,0,1-1.44-13.65l-35.49-2.18q-.84,13.68,3,23.77a46.63,46.63,0,0,0,10.79,17,52.21,52.21,0,0,0,16.27,10.91,82.55,82.55,0,0,0,19.44,5.65l-1.39,22.59,19.53,1.19,1.39-22.69a73.38,73.38,0,0,0,20.35-3.33,49.49,49.49,0,0,0,16-8.41,40.43,40.43,0,0,0,10.73-13.19,44.5,44.5,0,0,0,4.6-17.8,44,44,0,0,0-2.69-19.4,43.52,43.52,0,0,0-10-14.87,74.34,74.34,0,0,0-16.1-11.81q-9.47-5.28-21.11-10.45a113.23,113.23,0,0,1-12-6.07,33.5,33.5,0,0,1-7.65-6,16.64,16.64,0,0,1-3.85-6.59,22.82,22.82,0,0,1-.76-7.72,24.7,24.7,0,0,1,1.72-7.79,16.52,16.52,0,0,1,4.19-6.1,17.94,17.94,0,0,1,6.83-3.82,26.47,26.47,0,0,1,9.61-.95q10.18.61,15.85,7.78t4.82,20.85l35.49,2.18a61.51,61.51,0,0,0-2-20.79A47.65,47.65,0,0,0,2117.64,1404.7Z"/><path d="M2118.42,1404.08a48.65,48.65,0,0,0-14.23-12.09,61.9,61.9,0,0,0-18.25-6.71l1.52-24.87-21.64-1.34-1.5,24.51a68.76,68.76,0,0,0-19.63,3.52,52.49,52.49,0,0,0-16.19,8.88,42.14,42.14,0,0,0-10.93,13.63,45.36,45.36,0,0,0-4.63,17.86c-.46,7.56.46,14.28,2.75,20a44.48,44.48,0,0,0,10.23,15.15,74.7,74.7,0,0,0,16.39,11.86,232.88,232.88,0,0,0,21.41,10.23,87.84,87.84,0,0,1,11.41,5.56,32.75,32.75,0,0,1,7.36,5.78,16.83,16.83,0,0,1,3.79,6.5,23.18,23.18,0,0,1,.8,8.17,19.62,19.62,0,0,1-1.86,7.35,15.58,15.58,0,0,1-4.52,5.59,20,20,0,0,1-7.2,3.48,30.56,30.56,0,0,1-9.9.83,36.84,36.84,0,0,1-9.54-1.87,21,21,0,0,1-8-4.86,21.87,21.87,0,0,1-5.3-8.66,34.4,34.4,0,0,1-1.39-13.26l.07-1L2002,1496l-.06,1c-.57,9.22.46,17.36,3,24.18a48.08,48.08,0,0,0,11,17.33,53.6,53.6,0,0,0,16.59,11.12,84,84,0,0,0,18.77,5.57l-1.39,22.68,21.52,1.32,1.4-22.78a74.37,74.37,0,0,0,19.72-3.35,50.42,50.42,0,0,0,16.3-8.58,41.66,41.66,0,0,0,11-13.51,49.92,49.92,0,0,0,1.95-38,45.12,45.12,0,0,0-10.22-15.21,75.6,75.6,0,0,0-16.31-12c-6.31-3.51-13.44-7-21.19-10.5a111.47,111.47,0,0,1-11.91-6,32.42,32.42,0,0,1-7.42-5.78,15.67,15.67,0,0,1-3.63-6.19,21.87,21.87,0,0,1-.72-7.38,24,24,0,0,1,1.64-7.48,15.7,15.7,0,0,1,3.95-5.73,17,17,0,0,1,6.45-3.6,25.65,25.65,0,0,1,9.25-.91c6.46.39,11.55,2.88,15.13,7.4s5.15,11.34,4.6,20.17l-.06,1,37.48,2.3.06-1a62.51,62.51,0,0,0-2-21.12A48.61,48.61,0,0,0,2118.42,1404.08Zm8.55,36.83-33.49-2.06c.4-8.85-1.31-15.75-5.08-20.53-4-5-9.52-7.73-16.58-8.16a27.55,27.55,0,0,0-10,1,19,19,0,0,0-7.21,4,17.91,17.91,0,0,0-4.44,6.46,25.82,25.82,0,0,0-1.78,8.11,23.81,23.81,0,0,0,.79,8.06,17.84,17.84,0,0,0,4.07,7,34.85,34.85,0,0,0,7.87,6.15,114.46,114.46,0,0,0,12.12,6.12c7.7,3.43,14.78,6.93,21,10.41a73.54,73.54,0,0,1,15.89,11.65,40.66,40.66,0,0,1,12.39,33.49,43.88,43.88,0,0,1-4.5,17.41,39.52,39.52,0,0,1-10.47,12.87,48.5,48.5,0,0,1-15.67,8.24,73,73,0,0,1-20.07,3.28l-.91,0-1.39,22.61L2052,1576l1.38-22.49-.89-.14a82.59,82.59,0,0,1-19.2-5.59,51.6,51.6,0,0,1-16-10.7,46.1,46.1,0,0,1-10.56-16.62c-2.39-6.31-3.39-13.83-3-22.35l33.49,2.06a35.23,35.23,0,0,0,1.55,13,23.76,23.76,0,0,0,5.8,9.43,23,23,0,0,0,8.75,5.33,39.08,39.08,0,0,0,10.06,2,32.5,32.5,0,0,0,10.54-.9,22.15,22.15,0,0,0,7.92-3.83,17.91,17.91,0,0,0,5.08-6.3,21.55,21.55,0,0,0,2.05-8.1h0a25.27,25.27,0,0,0-.87-8.87,18.86,18.86,0,0,0-4.23-7.27,35,35,0,0,0-7.81-6.15,91.21,91.21,0,0,0-11.67-5.69,230,230,0,0,1-21.22-10.14,72.7,72.7,0,0,1-16-11.53,42.48,42.48,0,0,1-9.77-14.47c-2.18-5.4-3.06-11.81-2.61-19.08a43.47,43.47,0,0,1,4.41-17.08,40.27,40.27,0,0,1,10.42-13,50.44,50.44,0,0,1,15.58-8.53,67.77,67.77,0,0,1,19.94-3.45l.91,0,1.5-24.32,17.65,1.09-1.52,24.63.86.16a60.39,60.39,0,0,1,18.51,6.66,45.19,45.19,0,0,1,21.77,27.73A60.11,60.11,0,0,1,2127,1440.91Z"/><rect class="cls-9" x="1511.74" y="525.9" width="1133.84" height="1858.03" rx="46.63"/><rect class="cls-10" x="1562" y="537.5" width="1133.84" height="1858.03" rx="46.63"/><rect class="cls-11" x="1636.69" y="628.49" width="984.89" height="524" rx="46.63"/><path class="cls-12" d="M1867.11,1199.52H1673.26a36.58,36.58,0,0,0,0,73.15h193.85a36.58,36.58,0,1,0,0-73.15Z"/><path class="cls-12" d="M2226.06,1199.52H2032.21a36.58,36.58,0,1,0,0,73.15h193.85a36.58,36.58,0,0,0,0-73.15Z"/><path class="cls-12" d="M2585,1199.52H2391.15a36.58,36.58,0,0,0,0,73.15H2585a36.58,36.58,0,0,0,0-73.15Z"/><rect class="cls-12" x="1636.69" y="1334.84" width="271.3" height="157.28" rx="50.13"/><rect class="cls-12" x="1991.33" y="1334.84" width="271.3" height="157.28" rx="50.13"/><rect class="cls-12" x="2354.58" y="1334.84" width="271.3" height="157.28" rx="50.13"/><rect class="cls-12" x="1636.69" y="1559.81" width="271.3" height="157.28" rx="50.13"/><rect class="cls-12" x="1991.33" y="1559.81" width="271.3" height="157.28" rx="50.13"/><rect class="cls-12" x="2354.58" y="1559.81" width="271.3" height="157.28" rx="50.13"/><rect class="cls-12" x="1636.69" y="1784.77" width="271.3" height="157.28" rx="50.13"/><rect class="cls-12" x="1991.33" y="1784.77" width="271.3" height="157.28" rx="50.13"/><rect class="cls-12" x="2354.58" y="1784.77" width="271.3" height="157.28" rx="50.13"/><rect class="cls-12" x="1636.69" y="2009.73" width="271.3" height="157.27" rx="50.13"/><rect class="cls-12" x="1991.33" y="2009.73" width="271.3" height="157.27" rx="50.13"/><rect class="cls-12" x="2354.58" y="2009.73" width="271.3" height="157.27" rx="50.13"/><path class="cls-13" d="M2053.5,708.2q-9.15-7.63-24.19-10.25a117.31,117.31,0,0,0-13.51-1.52q-5.34-.33-13.18-.33h-54V861.27H1989V809.52h18.3q15.92,0,25.61-2.5a53.94,53.94,0,0,0,22.55-11.77q8.28-7.41,13.07-19.83a65.49,65.49,0,0,0,4.36-23.53Q2072.89,724.65,2053.5,708.2Zm-29,60.57q-6.21,3.71-18.42,3.71H1989V733.15h15.58q12.86,0,19.17,3.26,8.71,4.59,8.72,16.24Q2032.47,764.08,2024.52,768.77Z"/><path class="cls-13" d="M2131.51,696.1l-66.25,165.17h45.33l8.71-23.86h57.31l8.07,23.86h45.76l-65.7-165.17ZM2130.85,804l17-56.44h.65l17,56.44Z"/><polygon class="cls-13" points="2288.4 762.45 2263.89 696.1 2218.13 696.1 2267.48 801.24 2267.48 861.27 2309.65 861.27 2309.65 801.24 2358.46 696.1 2313.13 696.1 2288.4 762.45"/><rect x="1693.68" y="1044.9" width="193.85" height="2"/><rect x="2032" y="1044.9" width="193.85" height="2"/><rect x="2379.47" y="1044.9" width="193.85" height="2"/><polygon class="cls-13" points="1840.69 917.71 1828.2 917.71 1799.81 960.79 1771.21 917.71 1758.57 917.71 1793 970.38 1756.52 1025.31 1769.15 1025.31 1799.81 979.39 1830.05 1025.31 1842.89 1025.31 1806.06 970.38 1840.69 917.71"/><polygon class="cls-13" points="2175.39 917.71 2162.9 917.71 2134.51 960.79 2105.91 917.71 2093.27 917.71 2127.7 970.38 2091.21 1025.31 2103.85 1025.31 2134.51 979.39 2164.74 1025.31 2177.59 1025.31 2140.76 970.38 2175.39 917.71"/><polygon class="cls-13" points="2529.29 917.71 2516.8 917.71 2488.41 960.79 2459.81 917.71 2447.18 917.71 2481.6 970.38 2445.12 1025.31 2457.75 1025.31 2488.41 979.39 2518.65 1025.31 2531.49 1025.31 2494.66 970.38 2529.29 917.71"/><path class="cls-14" d="M3159.87,460.36c-85.32,0-154.73,69.41-154.73,154.73a153.05,153.05,0,0,0,45.76,109.65c-14.09,16.36-36.5,35.34-67.08,40l-16,2.42,14.86,6.5c1.42.62,20.53,8.75,47.49,8.75a129.45,129.45,0,0,0,73.9-23,153.53,153.53,0,0,0,55.84,10.48c85.32,0,154.73-69.41,154.73-154.73S3245.19,460.36,3159.87,460.36Zm0,300.1a144.35,144.35,0,0,1-54.69-10.74l-2.38-1-2.09,1.47c-38,26.92-77,24.15-98.2,19.57,26.61-8.89,46.08-27.27,58.43-42.45l2.75-3.39-3.19-3a143.93,143.93,0,0,1-46-105.89c0-80.15,65.21-145.36,145.37-145.36s145.36,65.21,145.36,145.36S3240,760.46,3159.87,760.46Z"/><path class="cls-14" d="M3205.25,621.3q-4.83-8.41-10.89-12.61t-22.23-11.51q-19-8.65-23.08-11.95t-5.28-12.59q-.66-5.58.82-8.59a6.09,6.09,0,0,1,5.1-3.44q4.5-.54,6.26,2.54t3,13.55l.78,6.56,39.57-4.71q-.21-5-.49-7.49-2.09-17.53-12.39-26.4t-28.88-9L3156,523l-18.22,2.17,1.5,12.64q-19.8,4.74-28.63,16t-6.73,29a49.46,49.46,0,0,0,7.36,21.37q5.91,9.13,13.06,13.7T3151,631.69q11.68,5.46,14.22,11t4.13,18.83q.63,5.28-1,8.21a6.93,6.93,0,0,1-5.65,3.41q-4.71.55-6.39-3.16t-3.59-19.69l-1.15-9.7L3112,645.27l.92,7.74q3.15,26.44,16.27,35.66a47.81,47.81,0,0,0,29.17,8.9l1.83,15.38,18.22-2.17-1.77-14.89q20-5.26,28.78-18.53t6.24-34.42Q3210.08,629.72,3205.25,621.3Z"/><path class="cls-15" d="M3577.25,2028.18c-107.85-20.49-211.89,50.32-232.38,158.18s50.33,211.89,158.18,232.38,211.89-50.33,232.38-158.18S3685.11,2048.67,3577.25,2028.18Z"/><path class="cls-16" d="M3594.29,2031.41c-107.85-20.49-211.9,50.33-232.39,158.18s50.33,211.9,158.18,232.39,211.9-50.33,232.39-158.18S3702.14,2051.9,3594.29,2031.41Z"/><path class="cls-15" d="M3590.55,2051.08a181.11,181.11,0,1,0,115.91,76A179.92,179.92,0,0,0,3590.55,2051.08Zm133.51,209.71c-17.53,92.25-106.85,153.05-199.1,135.52s-153.05-106.84-135.52-199.09,106.84-153,199.1-135.53S3741.58,2168.54,3724.06,2260.79Z"/><path class="cls-15" d="M3618.54,2242.81q-5.39-10.09-12.38-15.26t-25.79-14.36q-22.1-10.91-26.77-14.93t-5.77-15q-.59-6.6,1.27-10.1a7.18,7.18,0,0,1,6.14-3.87q5.34-.46,7.29,3.21t3.06,16.08l.68,7.77,46.82-4.13q-.06-6-.32-8.85-1.83-20.74-13.64-31.55t-33.73-11.68l-1.32-14.95-21.55,1.9,1.32,14.95q-23.52,4.88-34.34,17.86t-9,33.95a58.36,58.36,0,0,0,7.91,25.47q6.63,11,14.89,16.61t30.89,17.18q13.56,6.87,16.36,13.45t4.2,22.35q.54,6.26-1.49,9.64c-1.36,2.27-3.62,3.53-6.79,3.81q-5.57.49-7.41-4t-3.52-23.34l-1-11.48-46.82,4.13.81,9.16q2.76,31.29,17.89,42.62a56.4,56.4,0,0,0,34.07,11.54l1.6,18.19,21.55-1.9-1.55-17.61q23.8-5.49,34.6-20.81t8.59-40.34Q3623.93,2252.9,3618.54,2242.81Z"/><rect class="cls-17" x="1057.99" y="1969.35" width="488.18" height="459.18"/><rect class="cls-18" x="1038.66" y="1935.51" width="531.68" height="120.84"/><rect class="cls-19" x="1246.5" y="2056.35" width="112.14" height="372.18"/><rect class="cls-20" x="1245.53" y="1936.48" width="112.14" height="120.84"/><path class="cls-19" d="M1435.55,1806.33c-37.08-18.67-133,98.49-133,98.49v30.69h132.58S1464.3,1820.81,1435.55,1806.33Z"/><path class="cls-19" d="M1168.27,1806.33c-28.75,14.48-.91,129.18-.91,129.18h135.21v-30.69S1205.34,1787.66,1168.27,1806.33Z"/><path class="cls-20" d="M1301.76,1860.17c-30.48,0-55.19,16.69-55.19,37.27s24.71,37.27,55.19,37.27,55.2-16.68,55.2-37.27S1332.24,1860.17,1301.76,1860.17Z"/><polygon class="cls-21" points="3053.06 1946.55 3243.08 1946.55 3243.08 1695.19 3065.12 1695.19 3053.06 1946.55"/><polygon class="cls-22" points="3098.11 1695.19 3115.3 1946.85 3408.47 1946.85 3383.61 1695.19 3098.11 1695.19"/><path class="cls-21" d="M3296.63,1706.94a1.9,1.9,0,0,0-1.49,2.24c.05.27,5.27,26.94-8.26,44.2-7.22,9.23-18.57,14.23-33.73,14.85-22.32.92-39-8.73-49.57-28.69a89.74,89.74,0,0,1-9.36-30.89,1.91,1.91,0,1,0-3.8.3,92.34,92.34,0,0,0,9.74,32.27c7.51,14.24,22.27,30.88,50.16,30.88,1,0,2,0,3-.06,16.33-.68,28.64-6.17,36.58-16.33,14.61-18.66,9.22-46.13,9-47.29A1.89,1.89,0,0,0,3296.63,1706.94Z"/><polygon class="cls-23" points="3084.79 1695.43 3084.79 1946.55 3115.3 1946.55 3098.11 1695.19 3084.79 1695.43"/><polygon class="cls-21" points="787.8 2428.03 977.82 2428.03 977.82 2176.67 799.86 2176.67 787.8 2428.03"/><polygon class="cls-22" points="832.85 2176.67 850.04 2428.33 1143.22 2428.33 1118.35 2176.67 832.85 2176.67"/><path class="cls-21" d="M1031.37,2188.42a1.9,1.9,0,0,0-1.49,2.24c.06.27,5.28,26.94-8.25,44.21-7.23,9.22-18.58,14.22-33.74,14.85-22.31.92-39-8.73-49.57-28.69a90.28,90.28,0,0,1-9.36-30.9,1.9,1.9,0,0,0-3.79.3,91.9,91.9,0,0,0,9.73,32.27c7.52,14.24,22.27,30.88,50.17,30.88,1,0,2,0,3-.06,16.33-.68,28.64-6.17,36.59-16.32,14.61-18.67,9.21-46.14,9-47.3A1.89,1.89,0,0,0,1031.37,2188.42Z"/><polygon class="cls-23" points="819.53 2176.91 819.53 2428.03 850.04 2428.03 832.85 2176.67 819.53 2176.91"/><path class="cls-8" d="M1407.49,909.33a4.28,4.28,0,0,0-6,0L1378,932.79l-23.47-23.46a4.28,4.28,0,1,0-6,6l23.47,23.47-23.47,23.46a4.28,4.28,0,1,0,6,6.06L1378,944.9l23.47,23.47a4.28,4.28,0,1,0,6-6.06L1384,938.85l23.46-23.47A4.28,4.28,0,0,0,1407.49,909.33Z"/><path class="cls-8" d="M1051.75,1064a4.29,4.29,0,0,0-6.06,0l-23.46,23.47L998.76,1064a4.28,4.28,0,0,0-6,6l23.46,23.47L992.71,1117a4.28,4.28,0,0,0,6,6l23.47-23.46,23.46,23.46a4.28,4.28,0,0,0,6.06-6l-23.47-23.47,23.47-23.47A4.3,4.3,0,0,0,1051.75,1064Z"/><path class="cls-8" d="M883,1534.33a29.16,29.16,0,1,0,29.15,29.15A29.16,29.16,0,0,0,883,1534.33Z"/><path class="cls-8" d="M1254.23,1000.72a46.4,46.4,0,1,0,46.4,46.4A46.4,46.4,0,0,0,1254.23,1000.72Z"/><path class="cls-8" d="M929.42,1302.74a26.86,26.86,0,1,0,26.87,26.86A26.86,26.86,0,0,0,929.42,1302.74Z"/><path class="cls-8" d="M1146,1219.29a36.64,36.64,0,1,0,36.63,36.64A36.64,36.64,0,0,0,1146,1219.29Z"/><rect class="cls-7" x="3030.74" y="2106.6" width="465.56" height="80.19"/><rect class="cls-6" x="3056.78" y="2106.6" width="23.43" height="80.19"/><rect class="cls-6" x="3155.21" y="2106.6" width="23.43" height="80.19"/><rect class="cls-6" x="3253.63" y="2106.6" width="23.43" height="80.19"/><rect class="cls-6" x="3352.06" y="2106.6" width="23.43" height="80.19"/><rect class="cls-6" x="3450.48" y="2106.6" width="23.44" height="80.19"/><rect class="cls-7" x="2971.63" y="2026.4" width="465.56" height="80.2"/><rect class="cls-6" x="2997.67" y="2026.4" width="23.44" height="80.2"/><rect class="cls-6" x="3096.1" y="2026.4" width="23.43" height="80.2"/><rect class="cls-6" x="3194.52" y="2026.4" width="23.43" height="80.2"/><rect class="cls-6" x="3292.94" y="2026.4" width="23.44" height="80.2"/><rect class="cls-6" x="3391.37" y="2026.4" width="23.44" height="80.2"/><rect class="cls-7" x="3051.57" y="1946.21" width="465.57" height="80.19"/><rect class="cls-6" x="3077.61" y="1946.21" width="23.44" height="80.19"/><rect class="cls-6" x="3176.04" y="1946.21" width="23.44" height="80.19"/><rect class="cls-6" x="3274.46" y="1946.21" width="23.43" height="80.19"/><rect class="cls-6" x="3372.88" y="1946.21" width="23.43" height="80.19"/><rect class="cls-6" x="3471.3" y="1946.21" width="23.44" height="80.19"/><rect class="cls-7" x="3019.75" y="2345.31" width="465.56" height="80.19"/><rect class="cls-6" x="3045.79" y="2345.31" width="23.43" height="80.19"/><rect class="cls-6" x="3144.22" y="2345.31" width="23.43" height="80.19"/><rect class="cls-6" x="3242.64" y="2345.31" width="23.44" height="80.19"/><rect class="cls-6" x="3341.07" y="2345.31" width="23.43" height="80.19"/><rect class="cls-6" x="3439.49" y="2345.31" width="23.44" height="80.19"/><rect class="cls-7" x="2960.64" y="2265.11" width="465.56" height="80.2"/><rect class="cls-6" x="2986.68" y="2265.11" width="23.44" height="80.2"/><rect class="cls-6" x="3085.11" y="2265.11" width="23.43" height="80.2"/><rect class="cls-6" x="3183.53" y="2265.11" width="23.43" height="80.2"/><rect class="cls-6" x="3281.95" y="2265.11" width="23.44" height="80.2"/><rect class="cls-6" x="3380.38" y="2265.11" width="23.44" height="80.2"/><rect class="cls-7" x="3040.58" y="2184.92" width="465.57" height="80.19"/><rect class="cls-6" x="3066.62" y="2184.92" width="23.43" height="80.19"/><rect class="cls-6" x="3165.04" y="2184.92" width="23.44" height="80.19"/><rect class="cls-6" x="3263.47" y="2184.92" width="23.43" height="80.19"/><rect class="cls-6" x="3361.89" y="2184.92" width="23.44" height="80.19"/><rect class="cls-6" x="3460.31" y="2184.92" width="23.43" height="80.19"/><path class="cls-24" d="M3476.78,1945H3050.54a1.93,1.93,0,0,0,0,3.86h426.24a1.93,1.93,0,0,0,0-3.86Z"/><path class="cls-24" d="M3439.23,2023.79H3013a1.93,1.93,0,1,0,0,3.85h426.23a1.93,1.93,0,1,0,0-3.85Z"/><path class="cls-24" d="M3438.07,2105.32h-409.5a1.89,1.89,0,0,0,0,3.78h409.5a1.89,1.89,0,0,0,0-3.78Z"/><path class="cls-24" d="M3497,2184H3039.37a2,2,0,1,0,0,4H3497a2,2,0,0,0,0-4Z"/><path class="cls-24" d="M3425.5,2262.89H3042.11a1.83,1.83,0,0,0,0,3.66H3425.5a1.83,1.83,0,0,0,0-3.66Z"/><path class="cls-24" d="M3427.33,2343.42H3019.22a1.89,1.89,0,1,0,0,3.77h408.11a1.89,1.89,0,1,0,0-3.77Z"/><path class="cls-25" d="M2706.67,696.23c7.36-6.51,21.36-.33,21.36-.33a65.61,65.61,0,0,1,4.41-11.46,202.63,202.63,0,0,1-22.54-36c-5.48-3-52.33-26.66-91.66,4.56-41.89,33.21-62.52,171.2-66.38,235.36s-2.59,118.76-28.78,147.75-34,56.65-37.47,78.71,11.72,42.75,16,51c2.39,4.53,21.11-25.08,25.63-31.51,0,0-11.17,40-22.32,47.58,0,0,48.7,41.93,109,52.88s67.19-24.25,72-36.3c0,0-8.9,33.16-3.84,40.65s47.68,13.33,54.71,10.66,72.88-56,35.21-138.39C2694.9,942.79,2691.66,709.47,2706.67,696.23Z"/><path class="cls-17" d="M2706.89,671.69c-7.25-2.71-15.71-1-22.24,3a38.21,38.21,0,0,0-8.8,7.48,42.6,42.6,0,0,0-6.13,9.71c-6.31,14-7.3,29-9.58,43.35s-3.81,29-5.44,43.58c-.8,7.27-1.4,14.57-2.12,21.86s-1.3,14.58-1.34,21.95a.72.72,0,0,0,1.42.18c1.73-7.17,2.89-14.4,4-21.65s2.21-14.47,3.18-21.72c1.91-14.52,3.8-29,5.16-43.61,1.6-14.5,2-29.44,8.34-42.22a39.81,39.81,0,0,1,13.48-15.52,27.82,27.82,0,0,1,19.69-4.87.8.8,0,0,0,.93-.66A.85.85,0,0,0,2706.89,671.69Z"/><path class="cls-17" d="M2696.19,1076.58a161.94,161.94,0,0,0-10.27-27.85c-8.3-17.93-19-34.37-27.36-51.91S2643,961.31,2640.94,942a.81.81,0,0,0-1.61.06,91.67,91.67,0,0,0,4.24,29.29A165.42,165.42,0,0,0,2655,998.6c9,17.45,18.79,34.38,26.5,52.13a181.91,181.91,0,0,1,14.48,55.59,179.5,179.5,0,0,1,.54,28.87,277.42,277.42,0,0,1-3.63,28.82.73.73,0,0,0,.58.84.76.76,0,0,0,.81-.47,123.27,123.27,0,0,0,6.3-28.85,162.54,162.54,0,0,0-4.37-59Z"/><path class="cls-17" d="M2699.35,666.86a49.38,49.38,0,0,0-18.3-4.59,59.51,59.51,0,0,0-18.82,2.17,74.32,74.32,0,0,0-32.42,19.18c-8.91,9.13-15.38,20.24-20.22,31.81a187,187,0,0,0-10.44,36c-9,48.85-11.92,99.25-3.91,148.59,4,24.68,11.06,48.66,18.55,72.27s15.68,47,21.45,70.92,9.22,48.43,7.82,72.94-7.64,48.79-20.73,69.74a.71.71,0,0,0,1.18.8c14.74-20.29,21.88-45.41,23.61-70.27,1.78-25-1.13-50.15-6.88-74.4s-13.71-47.85-21.27-71.39-14.86-47.14-18.95-71.4c-8.34-48.52-6.39-98.67,3.09-147A186.73,186.73,0,0,1,2613.35,717a99.66,99.66,0,0,1,19.32-30.58,72.88,72.88,0,0,1,30.46-18.91c11.48-3.59,24.25-3.86,35.57.83a.81.81,0,0,0,.65-1.48Z"/><path class="cls-17" d="M2563.72,988.75a366.73,366.73,0,0,1-4.57-65,.8.8,0,0,0-1.6-.12,203.4,203.4,0,0,0,2.24,65.85c4.08,21.73,11.11,42.64,14.91,64a247.44,247.44,0,0,1,3.31,32.28,301.67,301.67,0,0,1-.31,32.53,146,146,0,0,1-5.16,31.84,91.23,91.23,0,0,1-14.24,28.74.72.72,0,0,0,1.07,1c8-7.77,13.53-17.9,17.05-28.47a140.92,140.92,0,0,0,6.4-32.68c1.6-22,1.16-44.33-3.33-66.11S2567.17,1010.24,2563.72,988.75Z"/><path class="cls-17" d="M2550.44,1028.56a.83.83,0,0,0-.74.65l-5.59,26.52a112.39,112.39,0,0,1-9.47,25.23,237.06,237.06,0,0,1-13.5,23.27c-1.3,1.82-2.5,3.72-3.76,5.58l-4,5.45c-1.43,1.74-2.79,3.54-4.16,5.34s-2.79,3.58-4.06,5.52l0,0a.73.73,0,0,0,1,1c1.89-1.34,3.68-2.81,5.44-4.33s3.3-3.23,4.89-4.92l4.57-5.24c1.43-1.81,2.92-3.61,4.31-5.46a117.49,117.49,0,0,0,13.67-24.19,242.12,242.12,0,0,0,8.92-26.25,77.24,77.24,0,0,0,3.33-27.43A.82.82,0,0,0,2550.44,1028.56Z"/><path class="cls-17" d="M2529.45,1068.48a.87.87,0,0,0-.64.36,38.23,38.23,0,0,0-4.95,10.27,38.52,38.52,0,0,1-5.51,9.81c-2.23,3-4.31,6.09-6.45,9.16l-3.19,4.64a21.41,21.41,0,0,0-2.95,5,.77.77,0,0,0,.44,1,.68.68,0,0,0,.56,0,15.91,15.91,0,0,0,5-3.31,53.69,53.69,0,0,0,4.2-4.2,42.86,42.86,0,0,0,6.57-9.85c1.75-3.57,3.15-7.23,5-10.71a21.78,21.78,0,0,0,2.83-11.42A.86.86,0,0,0,2529.45,1068.48Z"/><path class="cls-26" d="M3039.35,1170.72,2994.68,1131l-54.88,64.65c15.46,21.89,70.26,65.48,91.75,78.78,17.57,10.87,35.52-.19,46.58-17.65,44.5-70.22,83-237.6,83-237.6l-41.81-17.76Z"/><path class="cls-26" d="M2668.69,2392.65v-.07C2668.67,2392.63,2668.69,2392.65,2668.69,2392.65Z"/><path class="cls-26" d="M2668.7,2392.58c.22-.32,3.72-1.65,48,.07,66.8-147.11,86.88-682.7,86.88-682.7l-139.07-22.26C2691.41,1800.8,2668.92,2386.79,2668.7,2392.58Z"/><path class="cls-26" d="M2881.44,1714.6c72.2,261.46,44.45,669.87,44.45,669.87s0,1.42,46.36,2.25c78.59-320.47,39.5-676.77,39.5-676.77S2944.07,1693.67,2881.44,1714.6Z"/><path class="cls-26" d="M3003.81,2408.89l-31.55-25.74-46.37-.83-5.43,60.81s116.75,9.93,201.35,2.38C3103.2,2400.86,3003.81,2408.89,3003.81,2408.89Z"/><path class="cls-26" d="M2747.15,2413.31l-31.55-25.75-46.37-.83-5.43,60.8s116.75,9.94,201.35,2.39C2846.54,2405.27,2747.15,2413.31,2747.15,2413.31Z"/><path class="cls-27" d="M2607.83,1424.19v2l11.71-1.86,8.58-8.29s22.05-111.13,84.48-113.17C2673.82,1301.43,2643.42,1311.8,2607.83,1424.19Z"/><path class="cls-27" d="M2712.6,1302.9c3.23.12,6.52.32,9.87.56A55.58,55.58,0,0,0,2712.6,1302.9Z"/><path class="cls-25" d="M3003.81,2408.89l-.09-.07a84.31,84.31,0,0,0-13.92,7.39c-3.08,2.05-6.1,4.32-9.64,5.4a32.07,32.07,0,0,1-7.83,1l-32.85,1.43a50.29,50.29,0,0,0-15.21-23.61l-3.81,42.69s116.75,9.94,201.35,2.39C3103.2,2400.86,3003.81,2408.89,3003.81,2408.89Z"/><path class="cls-26" d="M2828.57,1321.82c-15.05-3-30.3-5-45.43-7.56-31.95-5.41-64.41-9.58-96.13-15.78a170.38,170.38,0,0,1,5.81-46.43L2671,1246.4l-53.35-39.29c-.48,1.19-.94,2.39-1.42,3.58-16.63,42.07-37.39,87.69-34.79,134,1.1,19.93,8.8,26.82,27.83,31.3a345.27,345.27,0,0,0,77.6,8.85c35.49.17,70.76,2.36,106.39,1.35,25.6-.72,51.31-1.46,76.55-5.83a3.71,3.71,0,0,0,3.83-4.29,416.44,416.44,0,0,0,.44-45.93C2859.24,1325.74,2843.64,1324.82,2828.57,1321.82Z"/><path class="cls-25" d="M2747,2414.65l-.09-.07A83.52,83.52,0,0,0,2733,2422c-3.09,2-6.1,4.31-9.64,5.39a31.65,31.65,0,0,1-7.83,1l-32.86,1.44a50.19,50.19,0,0,0-15.21-23.62l-3.81,42.69s116.75,9.94,201.35,2.39C2846.37,2406.62,2747,2414.65,2747,2414.65Z"/><path class="cls-28" d="M2881.44,1714.6c6.76,24.46,12.64,50.21,17.74,76.79,40.52-1,80.21-7,117.37-22-2.41-37.61-4.8-59.4-4.8-59.4S2944.07,1693.67,2881.44,1714.6Z"/><path class="cls-29" d="M2978.8,1434.9h0s-28.59-103.8-41.32-170.55c26.93-26.93,35.52-57.83,35-81.56,36.11,0,55.66-35.12,55.66-35.12s-54.1-99.08-84.85-126.08c-8.81-7.74-41.56-21.75-41.56-21.75-25.68-4.8-53.37-2.2-60-1.47l-.18,0-.89.11h-.14l-.29,0H2783.1l-.29.07-.21,0-3.07.75-.12,0c-1.54.39-3.55.9-5.94,1.53h0a576.42,576.42,0,0,0-57.52,18.47h0c-2.31.9-4.65,1.81-7,2.76,0,0-24.12,10.41-35.11,16.57-45.28,25.41-80.57,161.36-89.44,201,30.51,30.51,123.4,35.09,123.4,35.09l2.6-13.79,24.68,27.32s-8.79,44.12-46.62,162.79c0,0-47.54,101.78-87.75,249.51,194.17,81.59,428.44,24.62,472.85,0-12.86-59.76-94.72-265.78-94.72-265.78Z"/><path class="cls-25" d="M2863.74,647.6c-54.16,1-68.2,21.07-68.2,21.07l132.39,156.46L2954,803.07S2961,664.65,2863.74,647.6Z"/><path class="cls-30" d="M2943.35,1699a685.25,685.25,0,0,1-163.5,6.22,822.77,822.77,0,0,1-169.44-32l-1.87-.57c-.78,2.69-1.56,5.43-2.33,8.15l9.24,2.65c53.65,15.19,108.72,26.11,164.4,30.17,57.7,4.22,116.1,2.64,173.12-7.78,38.28-7,77.48-16.21,113.13-32.59-.79-2.6-1.61-5.29-2.49-8C3025.91,1682.87,2983.79,1692.61,2943.35,1699Z"/><path class="cls-26" d="M3114.5,1011.61l43.53,13.44q12.54-24.49,25.35-48.85c-17.11-11.13-34.84-22.51-55-26C3124.29,970.5,3123,987.21,3114.5,1011.61Z"/><path class="cls-26" d="M2783.1,993a28.57,28.57,0,0,0,57.13,0V886.92H2783.1Z"/><path class="cls-28" d="M2783.1,911.89v48.27c11.36,1.28,22.76,2.16,34.18,2.53a187,187,0,0,0,22.94-.46V916.1A201.15,201.15,0,0,1,2783.1,911.89Z"/><path class="cls-26" d="M2952.53,807c-9.26-8.59-26.64-4.67-38.81,8.73s-14.54,31.24-5.28,39.83,26.64,4.67,38.82-8.74S2961.79,815.53,2952.53,807Z"/><path class="cls-31" d="M2946.61,813a45.86,45.86,0,0,0-28.88,40.38c-.14,2.71,4.06,2.7,4.2,0a41.46,41.46,0,0,1,25.8-36.32C2950.2,816,2949.12,812,2946.61,813Z"/><path class="cls-31" d="M2942,834.55a35.36,35.36,0,0,0-15.44-3.13c-2.7.08-2.71,4.28,0,4.21a30.46,30.46,0,0,1,13.32,2.54C2942.3,839.25,2944.43,835.64,2942,834.55Z"/><path class="cls-26" d="M2815.64,661.93a114.85,114.85,0,0,0-114.85,114.85v43.69a114.85,114.85,0,0,0,114.85,114.85h17.6a97.25,97.25,0,0,0,97.24-97.26V776.78A114.84,114.84,0,0,0,2815.64,661.93Z"/><path class="cls-25" d="M2885.39,795.76c-4.84,0-8.76,6.75-8.76,15.07s3.92,15.07,8.76,15.07,8.75-6.75,8.75-15.07S2890.23,795.76,2885.39,795.76Z"/><path class="cls-25" d="M2801.33,795.76c-4.85,0-8.76,6.75-8.76,15.07s3.91,15.07,8.76,15.07,8.75-6.75,8.75-15.07S2806.16,795.76,2801.33,795.76Z"/><path class="cls-25" d="M2881.84,747.82c-2.7.13-2.7,4.33,0,4.19A30.09,30.09,0,0,1,2911,769.74c1.12,2.45,4.75.32,3.62-2.13A34.14,34.14,0,0,0,2881.84,747.82Z"/><path class="cls-25" d="M2816.63,745.72a46.72,46.72,0,0,0-40.7,10.11c-2.08,1.75.9,4.71,3,3a42.25,42.25,0,0,1,36.62-9C2818.16,750.35,2819.29,746.3,2816.63,745.72Z"/><path class="cls-25" d="M2850.91,811.34c.22-1,.44-2,.65-3-1.08.1-2.16.23-3.23.39C2849.19,809.62,2850.06,810.47,2850.91,811.34Z"/><path class="cls-25" d="M2851.56,808.37c-.21,1-.43,2-.65,3-.85-.87-1.72-1.72-2.58-2.58,1.07-.16,2.15-.29,3.23-.39q5.19-23.43,10.35-46.85c.58-2.64-3.47-3.76-4-1.12l-11,49.82a2.14,2.14,0,0,0,2.59,2.59c8.32-1.21,18.71,2,12.61,12.1a24.7,24.7,0,0,1-5.68,7.26c-1.92,1.91,1,4.88,3,3,3.78-3.77,12.94-15,8.65-21.1C2864.08,808.49,2857.84,807.8,2851.56,808.37Z"/><path class="cls-25" d="M2862.4,843.57c-10.08,9.23-25.37,5-29.35-8.07-.79-2.58-4.84-1.48-4.05,1.12,4.92,16.16,23.92,21.31,36.37,9.92C2867.37,844.7,2864.4,841.75,2862.4,843.57Z"/><path class="cls-25" d="M2764.37,658.56c-20.54,6.34-40.89,16.21-54.23,33.07a96.67,96.67,0,0,0-12.33,21.22,159.14,159.14,0,0,0-4.18,116.84c9.12-1.27,18.15-4.43,25.2-10.35,6.67-5.61,11.17-13.31,15.53-20.84,3.78-6.54,7.56-13.08,11-19.8,5.4-10.6,9.95-23.07,5.6-34.14a115.24,115.24,0,0,0,111.87-93.83l-3.82-.38A225.57,225.57,0,0,0,2764.37,658.56Z"/><path class="cls-29" d="M2698.94,646.29A63.8,63.8,0,0,0,2660,629c1.41,14.15,9.66,27,20.44,36.29s24,15.33,37.35,20.13l.22-1.07A63.8,63.8,0,0,0,2698.94,646.29Z"/><path class="cls-29" d="M2715,638.21a66.38,66.38,0,0,0,2.82,45.33l-.27,2.39c10.2-11.68,19.72-24.29,25.15-38.81s6.33-31.29-.42-45.25A66.38,66.38,0,0,0,2715,638.21Z"/><path class="cls-17" d="M3210.66,883l-44-18.1a15.34,15.34,0,0,0-20,8.34l-35.93,87.28a15.34,15.34,0,0,0,8.34,20l44,18.1a15.34,15.34,0,0,0,20-8.35L3219,903A15.32,15.32,0,0,0,3210.66,883Z"/><path class="cls-25" d="M2967.25,1166.48c.12.3.25.59.38.89.86,2,1.7,3.94,2.56,5.91.06.13.13.26.18.39h0c.09.17.16.35.23.52,18.51-10,36.38-20.86,52.42-34.31l-4.68-7.05C3002.7,1146.05,2985.3,1156.74,2967.25,1166.48Z"/><path class="cls-32" d="M2899.8,832.44c-12.21-1.9-23.23,3.74-24.6,12.59s7.39,17.59,19.6,19.48,23.23-3.73,24.61-12.58S2912,834.34,2899.8,832.44Z"/><path class="cls-32" d="M2791.47,832.28c-12.33.84-21.83,8.76-21.22,17.71s11.08,15.52,23.41,14.68,21.83-8.76,21.23-17.7S2803.8,831.45,2791.47,832.28Z"/><path class="cls-26" d="M2949.76,1354.23c-10.1-3.41-20.44-6.13-30.76-8.85,16.24.86,32.39,8.26,48.28,4.74,1.07-.24,2.34-.74,2.47-1.83a2.64,2.64,0,0,0-1.26-2.19c-4.44-3.67-10.18-5.31-15.79-6.62-15.1-3.53-30.53-5.38-45.92-7.22q8.71-6.13,17.33-12.42c2.86-2.09,6.08-5.37,4.69-8.64-.92-2.15-3.6-3.08-5.92-2.74s-4.36,1.64-6.35,2.87c-14.1,8.71-30.29,15.26-47,16.15-7.25.39-14.14-2.35-21.39-3.23q-13.77-1.66-27.62-2.62l18.53,58.66c21.83,2.9,44.3-3.21,65.88,1.15a15.58,15.58,0,0,1,6.84,2.7c2.38,1.9,3.58,4.88,4.78,7.68a135.42,135.42,0,0,0,11.78,21.78c1.28,1.93,3.38,4.1,5.54,3.24,1.93-.76,2.23-3.33,2.13-5.4a59.71,59.71,0,0,0-14.53-35.82,179.88,179.88,0,0,0,36,20.69c1.94.83,4.83,1.28,5.62-.68a3.94,3.94,0,0,0-.54-3.1c-8.38-16.7-26.41-25.91-43.46-33.58q16.1,4.41,32.17,8.85c6.88,1.88,14.85,3.62,20.69-.47C2966.49,1360.52,2958,1357,2949.76,1354.23Z"/><path class="cls-29" d="M2764.87,649.89c-16.78,4.48-33.75,11-47,22.5-16.54,14.38-19.88,31.2-22.07,52.13q-4.59,43.63-5.49,87.57l11,.8a187.78,187.78,0,0,1,38.12-113.74,117.65,117.65,0,0,1,15.08-16.69c14-12.54,31.87-20.24,50.24-24.34a140.55,140.55,0,0,1,18.54-2.8c25.14-4.39,51.86-3.61,74,6.47-11.93-9.95-25.37-14.39-41.19-16.82A223.91,223.91,0,0,0,2764.87,649.89Z"/><path class="cls-26" d="M2659.86,806.8c-11.88,10.91-10.49,31.77,3.12,46.6s34.27,18,46.16,7.1,10.48-31.77-3.12-46.6S2671.75,795.9,2659.86,806.8Z"/><path class="cls-31" d="M2668,810.65c-2.53-1-3.62,3.07-1.12,4.05a55.17,55.17,0,0,1,34.5,43c.43,2.66,4.47,1.53,4.05-1.12A59.28,59.28,0,0,0,2668,810.65Z"/><path class="cls-31" d="M2697.77,836.58a52,52,0,0,0-25,1.61c-2.58.82-1.48,4.87,1.11,4a47.45,47.45,0,0,1,22.78-1.61C2699.3,841.09,2700.42,837,2697.77,836.58Z"/><path class="cls-26" d="M2828.56,1321.82c-15-3-30.29-5-45.43-7.55-29.12-4.94-58.64-8.91-87.65-14.26-27.87,28.82-65.25,58.32-105.62,67.33,4.41,4,10.71,6.61,19.38,8.65a345.27,345.27,0,0,0,77.6,8.85c35.49.16,70.76,2.36,106.38,1.35,25.6-.72,51.32-1.46,76.56-5.83a3.7,3.7,0,0,0,3.83-4.29,414,414,0,0,0,.44-45.93C2859.24,1325.75,2843.64,1324.81,2828.56,1321.82Z"/><path class="cls-25" d="M2596.23,1193.39c-.81,2.85-1.6,5.65-2.33,8.37,14.41,6.29,29.19,11.43,42.34,16a495.62,495.62,0,0,0,78.08,20.26q.48-4.1,1-8.18a438.48,438.48,0,0,1-76.82-20.17C2625.54,1204.93,2610.68,1199.76,2596.23,1193.39Z"/><path class="cls-25" d="M2588.72,1221.47a286.22,286.22,0,0,0,119.2,40.6c.9-2.69,1.78-5.38,2.61-8.08a278,278,0,0,1-119.66-40.91C2590.12,1216,2589.39,1218.81,2588.72,1221.47Z"/><path class="cls-25" d="M2954.2,1143.8c1.65,2.3,3.25,4.67,4.73,7.1a209.24,209.24,0,0,0,49.59-32.78l-4.71-7.06A201.58,201.58,0,0,1,2954.2,1143.8Z"/><path class="cls-26" d="M3144.34,952.91c-3.49-8.75.74-19.13-3-27.77-1.15-2.69-4-5.34-6.78-4.34a6.34,6.34,0,0,0-2.64,2.18c-8.57,10.8-6.85,25.9-6.88,39.55-.07,23.54-5.34,48.12-16.47,69.08l26.66-11.39c11.23-4,19.25-14.64,21.36-26.09s-1.18-23.45-7.54-33.32C3147.36,958.23,3145.47,955.75,3144.34,952.91Z"/><path class="cls-33" d="M2966.44,1162.85c-5.58-13.48-16.79-30.2-27.24-49.38a194.91,194.91,0,0,1-18.81-52.48c-2.85-14.06-3.33-23-3.86-23-.2,0-.3,2.25-.13,6.29a141.63,141.63,0,0,0,1.84,17.07,175.74,175.74,0,0,0,18.23,53.52c10.62,19.46,22,35.8,28,48.85,6.28,12.9,8.08,21.7,8.61,21.57.2,0-.07-2.27-1-6.23A101.37,101.37,0,0,0,2966.44,1162.85Z"/><path class="cls-33" d="M2718.52,1100a96,96,0,0,0-6.44-14.72c-1.94-4.53-4.91-8-6.91-11.3a53,53,0,0,0-6.14-7.86c-3.62-4.11-5.68-6.31-5.83-6.16s1.6,2.6,4.9,6.91a58.8,58.8,0,0,1,5.64,8.07c1.83,3.37,4.62,6.82,6.4,11.33,2,4.39,4.4,9.11,6,14.57,2,5.31,3.24,11.26,4.62,17.47a195.72,195.72,0,0,1,2.59,41.38c-1.5,29.54-7,56-10.41,75.11-1.73,9.59-3.14,17.35-3.92,22.75s-1.15,8.39-.95,8.43,1-2.89,2.13-8.21c1.76-8.15,3.4-15.71,4.88-22.55,3.95-19,9.82-45.48,11.35-75.4a187.65,187.65,0,0,0-2.88-42C2722,1111.42,2720.7,1105.38,2718.52,1100Z"/><polygon class="cls-27" points="2619.54 1424.36 2552.41 1437.48 2760.8 1520.61 2789.74 1483.37 2837.97 1471.49 2637.08 1407.5 2619.54 1424.36"/><polygon class="cls-34" points="2550.04 1792.78 2757.66 1855.7 2760.8 1521.48 2552.41 1438.56 2550.04 1792.78"/><polygon class="cls-3" points="2788.99 1483.43 2760.2 1520.79 2758.46 1855.89 2801.4 1804.29 2849.46 1798.74 2837.17 1471.35 2788.99 1483.43"/><path class="cls-34" d="M2722.47,1303.46c81.16,62.9,57.83,189.71,57.83,189.71l8.11-10.14,16.23-4.06C2795.51,1300.41,2722.47,1303.46,2722.47,1303.46Z"/></g></svg>